<?xml version="1.0" encoding="utf-8"?>
<!-- Generator: Adobe Illustrator 23.0.1, SVG Export Plug-In . SVG Version: 6.00 Build 0)  -->
<svg version="1.1" id="Camada_1" xmlns="http://www.w3.org/2000/svg" xmlns:xlink="http://www.w3.org/1999/xlink" x="0px" y="0px"
	 viewBox="0 0 214.3 208.8" style="enable-background:new 0 0 214.3 208.8;" xml:space="preserve">
<style type="text/css">
	.st0{fill-rule:evenodd;clip-rule:evenodd;fill:#2B2523;}
	.st1{fill-rule:evenodd;clip-rule:evenodd;fill:#FFFFFF;}
	.st2{fill:#2B2523;}
	.st3{fill-rule:evenodd;clip-rule:evenodd;fill:#FCE900;}
	.st4{fill-rule:evenodd;clip-rule:evenodd;fill:#CF8C59;}
	.st5{fill-rule:evenodd;clip-rule:evenodd;fill:#F7A700;}
	.st6{clip-path:url(#SVGID_2_);fill:url(#SVGID_3_);}
	.st7{clip-path:url(#SVGID_5_);fill-rule:evenodd;clip-rule:evenodd;fill:#2B2523;}
	.st8{clip-path:url(#SVGID_5_);fill-rule:evenodd;clip-rule:evenodd;fill:#ACC90F;}
	.st9{clip-path:url(#SVGID_5_);fill:none;stroke:#2B2523;stroke-width:0.1542;stroke-miterlimit:22.9256;}
	.st10{clip-path:url(#SVGID_5_);fill:none;stroke:#2B2523;stroke-width:0.1548;stroke-miterlimit:22.9256;}
	.st11{clip-path:url(#SVGID_5_);fill:none;stroke:#2B2523;stroke-width:0.1545;stroke-miterlimit:22.9256;}
	.st12{fill-rule:evenodd;clip-rule:evenodd;fill:#1D2C1C;}
	.st13{fill-rule:evenodd;clip-rule:evenodd;fill:#10592A;}
	.st14{fill-rule:evenodd;clip-rule:evenodd;fill:#8DAF26;}
	.st15{fill-rule:evenodd;clip-rule:evenodd;fill:#DAE285;}
</style>
<g>
	<g>
		<g>
			<path class="st0" d="M56.7,36.7C61.4,14.1,83.5,0,107.3,0c19.3,0,37.6,9.3,46.3,24.9c0.8,5.2,1.9,12.7,1.9,16.4
				c0,0.4,0,0.8,0,1.2l-0.3,0.7l-8.6-3l1.6,13.4l-0.1,0.1l-40.8-6l-40.8,6l-3.2-1.1L56.7,36.7z"/>
			<path class="st1" d="M57.3,37.7c4.6-22.7,26.5-36.8,50-36.8c19.9,0,38.6,10.1,46.7,26.9c0.5,3.9,1.2,8.8,1.2,9.8
				c0,1,0.1,3.2,0.2,4.9l-0.7,1.8l-8.5-3l1.6,13.4l-0.2,0l-40.3-6l-40.3,6l-3.2-1.1L57.3,37.7z"/>
			<path class="st2" d="M133.6,19.9l4.3,3.3l0.9-1.1l-3-2.2l1.1-1.5l1.9,1.4l0.8-1.1l-1.9-1.5l1-1.3l2.8,2.1l0.8-1.1l-4.1-3.1
				L133.6,19.9z M132.6,12.1c0.2,0.1,0.4,0.2,0.5,0.3c0.1,0.1,0.3,0.2,0.3,0.3c0.1,0.1,0.2,0.2,0.2,0.3c0.1,0.1,0.1,0.2,0.1,0.4
				c0,0.2,0,0.3,0,0.5c-0.1,0.2-0.1,0.4-0.3,0.6c-0.1,0.2-0.2,0.5-0.4,0.7c0,0.1-0.1,0.2-0.2,0.3c-0.1,0.1-0.1,0.2-0.2,0.3
				c0,0.1-0.1,0.2-0.1,0.3c-0.1,0.3-0.3,0.5-0.4,0.6c-0.1,0.1-0.3,0.3-0.4,0.3c-0.1,0.1-0.3,0.1-0.4,0.1c-0.1,0-0.3,0-0.4-0.1
				c-0.1,0-0.2-0.1-0.4-0.2l-0.4-0.2L132.6,12.1z M128.1,16.8c0.3,0.1,0.5,0.3,0.8,0.4c0.2,0.1,0.5,0.3,0.7,0.4
				c0.2,0.1,0.4,0.2,0.5,0.3c0.1,0.1,0.2,0.1,0.3,0.1c0.2,0.1,0.4,0.1,0.5,0.2c0.2,0.1,0.3,0.1,0.5,0.2c0.2,0,0.4,0.1,0.6,0.1
				c0.2,0,0.5,0,0.7-0.1c0.2-0.1,0.4-0.2,0.5-0.3c0.2-0.1,0.3-0.3,0.4-0.5c0.1-0.2,0.3-0.3,0.4-0.5l0.6-1.2c0.2-0.3,0.3-0.6,0.4-0.8
				c0.1-0.2,0.2-0.4,0.3-0.6c0.1-0.2,0.1-0.3,0.1-0.5c0.1-0.1,0.1-0.3,0.1-0.4c0-0.1,0-0.2,0-0.4c0-0.2-0.1-0.4-0.1-0.6
				c-0.1-0.2-0.2-0.4-0.3-0.5c-0.2-0.2-0.4-0.4-0.6-0.6c-0.3-0.2-0.6-0.4-1-0.7l-1.6-0.9L128.1,16.8z M120.3,10.9
				c0,0.1-0.1,0.3-0.1,0.4c-0.1,0.2-0.1,0.4-0.1,0.5c0,0.2-0.1,0.4-0.1,0.6c0,0.3,0,0.5,0.1,0.7c0.1,0.2,0.2,0.4,0.3,0.6
				c0.1,0.2,0.3,0.3,0.4,0.4c0.2,0.1,0.3,0.2,0.5,0.3c0.2,0.1,0.3,0.2,0.5,0.2c0.1,0,0.2,0.1,0.4,0.1c0.2,0,0.4,0.1,0.5,0.1
				c0.2,0,0.4,0,0.6,0c0.2,0,0.4-0.1,0.6-0.2c0.2-0.1,0.4-0.3,0.5-0.4c0.2-0.2,0.3-0.4,0.4-0.6c0.1-0.3,0.2-0.6,0.4-0.9l0.6-1.8
				c0.1-0.4,0.2-0.7,0.3-1c0-0.3,0-0.6,0-0.8c0-0.2-0.1-0.4-0.2-0.6c-0.1-0.2-0.3-0.4-0.4-0.6c-0.2-0.2-0.4-0.3-0.6-0.4
				c-0.2-0.1-0.5-0.2-0.7-0.3c-0.2-0.1-0.5-0.1-0.7-0.2c-0.2,0-0.5,0-0.7,0c-0.3,0-0.5,0.1-0.7,0.2c-0.2,0.1-0.4,0.3-0.6,0.5
				c-0.2,0.2-0.3,0.4-0.4,0.6c-0.1,0.2-0.2,0.5-0.3,0.7L120.3,10.9z M122.6,9.2c0,0,0.1-0.1,0.1-0.2c0-0.1,0.1-0.2,0.2-0.3
				c0.1-0.1,0.1-0.2,0.2-0.2c0.1-0.1,0.2-0.1,0.3-0.1c0.1,0,0.3,0,0.5,0.1c0.2,0.1,0.4,0.2,0.5,0.3c0.1,0.1,0.2,0.2,0.2,0.3
				c0,0.1,0,0.3,0,0.4c0,0.1-0.1,0.3-0.1,0.4l-0.8,2.6c0,0.1-0.1,0.2-0.1,0.3c0,0.1-0.1,0.2-0.2,0.3c-0.1,0.1-0.2,0.2-0.2,0.3
				c-0.1,0.1-0.2,0.1-0.3,0.1c-0.1,0-0.3,0-0.5,0c-0.2-0.1-0.4-0.2-0.5-0.3c-0.1-0.2-0.1-0.3-0.1-0.6c0-0.2,0.1-0.5,0.2-0.7
				L122.6,9.2z M118.9,13.8l0.2-0.7l-0.9-0.2l1.4-6.2l0.9,0.2l0.2-0.7l-3.4-0.8l-0.1,0.7l0.9,0.2l-1.4,6.2l-0.9-0.2l-0.2,0.7
				L118.9,13.8z M110,12.3l1.7,0.2l0.4-2.9l0.9,0.1c0.2,0,0.4,0,0.6,0c0.2,0,0.4,0,0.6,0c0.2,0,0.4-0.1,0.6-0.2
				c0.1,0,0.2-0.1,0.3-0.2c0.1-0.1,0.3-0.2,0.4-0.4c0.1-0.1,0.2-0.3,0.3-0.5c0.1-0.2,0.2-0.5,0.2-0.8c0.1-0.4,0-0.7,0-1
				c-0.1-0.3-0.2-0.6-0.4-0.8c-0.1-0.1-0.3-0.3-0.4-0.4c-0.2-0.1-0.4-0.2-0.7-0.3c-0.3-0.1-0.6-0.2-1-0.2l-2.5-0.3L110,12.3z
				 M112.4,6.1c0.2,0,0.5,0,0.6,0.1c0.2,0,0.3,0,0.4,0.1c0.1,0,0.2,0,0.2,0.1c0.1,0,0.1,0.1,0.2,0.1c0,0,0.1,0.1,0.2,0.1
				c0.1,0,0.1,0.1,0.2,0.2c0,0.1,0.1,0.2,0.1,0.3c0,0.1,0,0.3,0,0.5c0,0.2-0.1,0.4-0.1,0.5c-0.1,0.1-0.1,0.2-0.2,0.3
				c-0.1,0.1-0.2,0.1-0.2,0.2c0,0-0.1,0-0.2,0.1c0,0-0.1,0-0.2,0c-0.1,0-0.2,0-0.4,0c-0.2,0-0.4,0-0.7-0.1L112.4,6.1z M108,2.5
				l-1,1.5l1.1,0l1.6-1.5L108,2.5z M109.4,12.4l0-0.7l-0.9,0l0.2-6.3l0.9,0l0-0.7l-3.5-0.1l0,0.7l0.9,0l-0.2,6.4l-0.9,0l0,0.7
				L109.4,12.4z M99.9,10c0,0.4,0.1,0.7,0.2,1c0.1,0.3,0.1,0.5,0.2,0.6c0.1,0.2,0.2,0.3,0.3,0.4c0.1,0.1,0.2,0.2,0.3,0.3
				c0.3,0.2,0.6,0.4,0.9,0.4c0.3,0.1,0.7,0.1,1.2,0.1c0.1,0,0.2,0,0.3-0.1c0.1,0,0.3-0.1,0.4-0.1c0.2-0.1,0.3-0.1,0.5-0.2
				c0.2-0.1,0.3-0.2,0.4-0.3c0.2-0.1,0.3-0.3,0.4-0.4c0.1-0.1,0.2-0.3,0.2-0.4c0-0.1,0.1-0.3,0.1-0.3c0-0.1,0-0.2,0-0.3
				c0-0.1,0-0.1,0-0.2c0,0,0-0.1,0-0.2c0,0,0-0.1,0-0.2c0-0.1,0-0.2,0-0.3l-1.7,0.1c0,0.3,0,0.5,0,0.7c0,0.2-0.1,0.4-0.2,0.5
				c-0.1,0.1-0.3,0.2-0.5,0.2c-0.2,0-0.3,0-0.5,0c-0.1,0-0.2-0.1-0.3-0.2c-0.1-0.1-0.1-0.2-0.2-0.3c0-0.1-0.1-0.2-0.1-0.3
				c0-0.1,0-0.2,0-0.3l-0.3-2.9c0-0.1,0-0.2,0-0.2c0-0.1,0-0.2,0-0.3c0-0.1,0.1-0.2,0.2-0.3c0-0.1,0.1-0.1,0.2-0.2
				c0.1,0,0.2-0.1,0.2-0.1c0.1,0,0.2,0,0.2,0c0.2,0,0.3,0,0.4,0c0.1,0.1,0.2,0.1,0.3,0.2c0.1,0.1,0.1,0.2,0.2,0.3
				c0,0.1,0.1,0.2,0.1,0.3c0,0.1,0,0.2,0,0.3l1.7-0.1c0-0.2,0-0.3-0.1-0.5c0-0.2-0.1-0.4-0.2-0.6c-0.1-0.2-0.2-0.4-0.3-0.5
				c-0.1-0.2-0.3-0.3-0.5-0.4c-0.2-0.1-0.4-0.2-0.6-0.3c-0.2-0.1-0.4-0.1-0.6-0.1c-0.2,0-0.4,0-0.5,0c-0.6,0.1-1.1,0.2-1.5,0.5
				c-0.4,0.3-0.7,0.6-0.8,1c-0.2,0.4-0.2,0.9-0.2,1.5L99.9,10z M99.6,12.9l-0.1-0.7l-0.9,0.2l-1.1-6.2L98.4,6l-0.1-0.7l-3.4,0.6
				L95,6.6l0.9-0.2l1.1,6.3l-0.9,0.2l0.1,0.7L99.6,12.9z M90.3,15.3l1.5-0.5l-1.1-3.4c0,0,0-0.1-0.1-0.2c0-0.1-0.1-0.2-0.1-0.3
				c0-0.1-0.1-0.2-0.1-0.3c0-0.1-0.1-0.2-0.1-0.3c0-0.1-0.1-0.2-0.1-0.2l0,0c0.1,0.1,0.2,0.3,0.3,0.4c0.1,0.1,0.2,0.2,0.2,0.3
				c0.1,0.1,0.1,0.1,0.2,0.2c0,0,0.1,0.1,0.1,0.1c0,0,0.1,0.1,0.1,0.1l3.1,2.9l1.3-0.4l-2.4-7.3l-1.5,0.5l0.9,2.7
				c0,0.1,0,0.1,0.1,0.2c0,0.1,0,0.1,0.1,0.1c0,0.1,0,0.1,0.1,0.2c0,0.1,0.1,0.2,0.1,0.3l0.3,0.7h0c0,0,0,0-0.1-0.1
				c0-0.1-0.1-0.1-0.1-0.1c0,0-0.1-0.1-0.1-0.1c-0.1-0.1-0.1-0.1-0.2-0.2c-0.1-0.1-0.2-0.1-0.2-0.2l-3-2.8L87.9,8L90.3,15.3z
				 M82.9,15.7c0.1,0.2,0.2,0.3,0.3,0.5c0.1,0.2,0.2,0.3,0.3,0.5c0.1,0.2,0.3,0.3,0.5,0.4c0.2,0.1,0.4,0.2,0.6,0.3
				c0.2,0.1,0.4,0.1,0.7,0.1c0.3,0,0.5-0.1,0.7-0.1c0.3-0.1,0.5-0.2,0.8-0.3c0.3-0.2,0.6-0.3,0.8-0.6c0.3-0.2,0.5-0.5,0.6-0.8
				c0.1-0.2,0.1-0.4,0.1-0.6c0-0.2,0-0.4,0-0.6c0-0.2-0.1-0.3-0.1-0.5c0-0.2-0.1-0.3-0.2-0.4c-0.1-0.1-0.1-0.2-0.2-0.3l-2.2-4.6
				l-1.5,0.7l2.2,4.6c0.1,0.2,0.2,0.5,0.2,0.7c0,0.2,0,0.3,0,0.4c0,0.1-0.1,0.2-0.1,0.3c-0.1,0.1-0.1,0.1-0.2,0.2
				c-0.1,0-0.2,0.1-0.2,0.1c-0.2,0.1-0.4,0.1-0.5,0.1c-0.1,0-0.3,0-0.4-0.1c-0.1-0.1-0.2-0.1-0.3-0.2c-0.1-0.1-0.2-0.2-0.2-0.3
				c-0.1-0.1-0.1-0.2-0.2-0.3l-2.2-4.6l-1.6,0.8L82.9,15.7z M76.8,22.9l1.2-0.8l-2.3-3.4c0,0-0.1-0.1-0.2-0.2
				c-0.1-0.1-0.1-0.2-0.2-0.3c-0.1-0.1-0.2-0.3-0.3-0.4c-0.1-0.1-0.2-0.3-0.3-0.4c-0.1-0.1-0.2-0.2-0.2-0.3
				c-0.1-0.1-0.1-0.2-0.2-0.2l0,0l4.9,4.3l0.9-0.6l-2.2-6.2l0,0c0.1,0.2,0.2,0.3,0.3,0.5c0.1,0.2,0.2,0.3,0.3,0.5
				c0.1,0.2,0.2,0.3,0.3,0.5c0.1,0.1,0.2,0.3,0.3,0.4l2.3,3.4l1.2-0.8l-4.3-6.4l-1.9,1.3l1,3.2c0.1,0.2,0.1,0.4,0.2,0.6
				c0.1,0.2,0.1,0.4,0.2,0.5c0.1,0.2,0.2,0.4,0.2,0.6l0,0c0,0-0.1-0.1-0.2-0.1c-0.1-0.1-0.1-0.1-0.2-0.2c-0.1-0.1-0.1-0.1-0.2-0.2
				c-0.1-0.1-0.1-0.1-0.2-0.1c-0.1-0.1-0.2-0.2-0.2-0.2c-0.1-0.1-0.1-0.1-0.2-0.2c-0.1-0.1-0.1-0.1-0.2-0.2l-2.6-2.1l-1.9,1.3
				L76.8,22.9z"/>
			<path class="st0" d="M59.2,52.9c0.6,0.7,1.2,1.4,1.7,2.1c0.2-0.5,0.3-1,0.3-1.6C60.5,53.2,59.8,53,59.2,52.9 M64.6,78.4
				C64.6,78.4,64.6,78.4,64.6,78.4c0.2-0.2,0.1-0.9,0.1-1.2c-0.1-0.7-0.4-1.5-0.7-2.2c-0.9,0.4-1.7,0.7-2.5,1.2
				C62.3,77.2,63.4,78,64.6,78.4z M64.6,86.2c0.5-1,0.5-1.9,0.2-2.9c-0.3-0.2-0.5-0.5-0.8-0.7c-1.7,0.2-3.3,0.7-4.8,1.4
				c0.6,0.4,1.3,0.9,1.9,1.3c0.7,0.4,1.4,0.8,2.1,1.2C63.8,86.6,64.2,86.6,64.6,86.2z M62.4,92.1c0.4,0.2,0.9,0.5,1.3,0.7
				c-0.4-0.4-0.7-0.9-1.1-1.3C62.6,91.7,62.5,91.9,62.4,92.1z M55.3,80.8c1.9-0.8,4.5-0.6,6.6-0.3c-0.9-0.9-1.9-1.9-2.9-2.8
				C57.6,78.5,56.4,79.5,55.3,80.8z M58.7,73.8c0.9-0.3,1.8-0.4,2.7-0.5c-0.3-0.2-0.5-0.3-0.8-0.5C59.9,73.2,59.3,73.5,58.7,73.8z
				 M58.6,99.2c2-0.6,4-0.9,6.1-0.7c-1.1-0.9-2.3-1.6-3.5-2.2c-0.4-0.2-0.8-0.4-1.2-0.6c-0.5,1.1-0.9,2.2-1.4,3.3L58.6,99.2z
				 M61.3,28c0,1.9,0.2,3.9,0.4,5.8c0.8-1,1.5-2.1,2.1-3.2c1-1.7,1.9-3.4,2.8-5.1c0.2-0.5,0.5-0.9,0.7-1.3l0.1-0.2l0.2-0.1
				c3.6-1.4,6.1-0.3,7.3,3.5l0,0.2l0,0.2c-0.3,1.1-1.3,1.8-2.4,2.1c-3.4,1.1-5.8,2.9-7.6,6c-0.6,1.1-1.1,2.2-1.5,3.3
				c-0.3,1.7-1,6,0.6,7.1c0.2,0.1,0.3,0.2,0.6,0.3l0.4,0.1v1.8l0,0.1c-0.4,2.4-0.7,4.8-0.6,7.2c0,1.8,0.2,3.7,0.5,5.5v0v0.5
				c1.2,6.3,2.5,12.6,3.6,19c1.8,10.9,2.2,22.1,2,33.1v0.1l-0.1,0.1c-1.2,2.5-2.5,5-3.7,7.5l-0.1,0.2l-0.2,0.1
				c-2.6,1.3-6.8,3.2-9.7,2c-4.3-1.8-5.3-5.4-3.5-9.5l0.3-0.8l0.6,0.6c1,1.1,2,2,3.2,2.8c5.2,1.4,8.4-1.6,10.5-6.1
				c0-1.5,0-3.3-0.7-4.7c-0.4-0.9-1-1.6-1.9-2.1c-0.3-0.2-0.6-0.3-0.9-0.4c-0.6,0-1.3,0-1.9,0.2c-1.9,0.4-3.7,1.4-5.3,2.5
				c-1.8,1.3-3.4,2.8-5.1,4.3c-0.9,0.8-1.8,1.6-2.7,2.4l-1.2,1l0.3-1.6c0.9-5.2,3.3-9.2,7.6-12.2l0,0l0.1,0c0.5-0.2,1-0.4,1.5-0.6
				l-0.1-0.4c-0.5-1.6-0.9-3.2-0.9-4.9c-1.5-0.6-3-1.2-4.6-1.7l-0.9-0.3l0.6-0.7c1.3-1.4,3.8-1.4,5.7-1.3c0.3-0.8,1-1.6,1.6-2.2
				c-0.9-0.8-1.9-1.7-2.8-2.5c-1.7,1.3-3,3.1-4.4,4.7l-1.2,1.4l0.2-1.9c0-0.3,0.1-0.7,0.1-1c0-0.7,0.1-1.4,0.2-2l-0.3,0.4l0.6-3
				c0.1-0.8,0.2-1.6,0.4-2.4c-0.2-0.2-0.5-0.4-0.7-0.6L50,80.4l1.5-0.1c0.3,0,0.5,0,0.8,0c0.4-1.4,1-2.5,1.9-3.5
				c-1.7,1.2-3.3,2.6-4.9,4l-1.1,0.9l0.1-1.4c0.2-1.8,0.6-3.7,1.6-5.2c1.8-2.7,4.8-3.6,7.9-3.8c-0.8-0.5-1.6-1-2.3-1.6
				c-0.8-0.6-2-1.6-2-2.6v-0.3l0.3-0.2c0.8-0.5,1.8-0.2,2.6,0.1c0.7,0.2,1.3,0.6,2,0.9c0.3,0.1,0.6,0.3,0.9,0.5
				c-0.2-0.3-0.3-0.6-0.5-0.9c-0.4-0.3-0.8-0.6-1.2-0.8c-2.6-1.3-6.3-1.1-9.1-1c-0.3,0-0.5,0-0.8,0h-0.3L47,65.1
				c-0.5-0.8-0.4-1.7,0.3-2.4c1.5-1.3,3.4-1.8,5.3-2.1l0.1,0l0.1,0c2.2,0.1,4.3,0.9,6.1,2c-0.8-1.2-1.8-2.3-3.1-3
				c-3.9-2.2-7.6-0.2-11.2,1.6l-1.2,0.6l0.5-1.3c0.7-1.9,2-3.3,3.6-4.5c0.5-0.4,1-0.7,1.6-0.9c2.5-1.1,4.9-0.5,7.1,0.6
				c-0.9-1-1.9-2.1-2.9-3.1c-2.3,0.2-4.1,1.1-6.1,2.2l-1.4,0.8l0.7-1.5c0.4-0.9,0.8-1.8,1.4-2.6c0.6-0.8,1.3-1.4,2.2-1.8
				c-1.4-1.2-2.9-2.4-4.3-3.5l-1-0.7l1.2-0.3c1.5-0.3,3-0.1,4.5,0.5c1.8,0.7,3.5,2,5,3.2c2.3,0.2,4.2,1.2,6,2.5c0-0.3,0-0.6-0.1-0.9
				c-0.5-2.5-1.3-5.4-2.9-7.5c-1-1.4-2.2-2.2-3.5-3.1c-0.5-0.3-0.9-0.4-1.4-0.5c-4,0.8-7,2.9-10.1,5.3L41.3,46l0.9-2
				c2.1-4.9,5.4-8.6,10.7-10.1l0.4-0.1l0.2,0.3c0.6,0.9,1.5,1.9,2.5,2.4c0-0.2,0-0.5-0.1-0.8c-0.3-1.5-1.4-3-2.3-4.3
				c-0.3-0.3-0.5-0.6-0.7-1c-0.2-0.1-0.5-0.1-0.7,0c-3.2,3.5-6.3,6.9-9.5,10.4l-2.3,2.5l1.3-3.1c1.9-4.6,3.9-9.2,5.8-13.8l0-0.1
				l0-0.1c3.2-3.9,6.4-3.7,9.4,0.5l0,0.1l0,0.1c0.7,2.1,1.3,4.3,2,6.4c0.1-2,0.1-4-0.2-5.9c-0.3-1.6-0.9-3.1-1.6-4.6L57,22.3
				l0.7-0.2c0.4-0.1,0.7-0.2,1.1-0.2c-0.2-0.1-0.4-0.2-0.6-0.2c-0.4,0-0.9,0.2-1.2,0.3c-1.1,0.3-2.4,0.3-3.1-0.8l-0.1-0.1l0-0.1
				c-0.4-2,0.6-3.6,2.1-4.7c-0.1,0-0.2,0-0.3,0c-0.8-0.1-1.4-0.3-2.1-0.7l-0.2-0.1l-0.1-0.2c-0.3-0.6-0.5-1.2-0.4-1.9
				c0.2-1.1,1.2-1.8,2.1-2.3l0.1,0l0.1,0c0.2,0,0.5-0.1,0.8-0.1c-0.9-0.3-1.7-0.7-2-1.5c-0.3-0.9,0.2-1.9,0.8-2.6l0-0.1l0.1-0.1
				c0.5-0.3,1-0.5,1.6-0.4C56,5.7,55.7,4.9,56,4.2c0.3-0.8,1.1-1.3,1.9-1.6l0.2-0.1l0.2,0.1C59,2.9,59.7,3.3,60.1,4
				c0.3,0.7,0.2,1.5-0.1,2.2c0.8-0.1,1.5,0,2.3,0.4l0.1,0l0.1,0c1.3,1.2,1.4,2.5,0,3.7l-0.1,0.1l-0.2,0c-0.6,0.1-1.6,0.3-2.1,0.7
				c1.5-0.2,3.3-0.5,4.4,0.9c0.5,0.6,0.3,1.5,0.2,2.2l0,0.2l-0.1,0.1c-0.8,0.9-1.8,1.4-2.9,1.6c1.2,0.1,2.5,0.4,3.3,1.2
				c0.7,0.8,0.8,1.7,0.6,2.7l0,0.1l-0.1,0.1c-0.7,0.9-1.7,1.1-2.7,1.2c-0.3,0-1.4-0.1-1.7,0.2c-0.1,0-0.1,0.1-0.1,0.2
				c0.1,0.2,0.2,0.4,0.3,0.6c0.9,0.2,1.9-0.1,2.9,0l0.9,0.1l-0.5,0.8C63.3,24.7,62.3,26.3,61.3,28z"/>
			<path class="st3" d="M57.7,52L57.7,52c1.4,0.2,2.7,0.5,4.1,1c-0.1,1.2-0.3,2.2-0.8,3C59.9,54.6,58.8,53.2,57.7,52 M64.6,79
				L64.6,79c-1-0.3-2.1-1-3.6-2.5c-0.2-0.2-0.3-0.3-0.4-0.4c1-0.6,2.2-1.2,3.8-1.8C65.4,76.9,65.8,78.8,64.6,79z M65,86.6L65,86.6
				c-0.6,0.5-1.3,0.6-2,0.3c-1.3-0.6-2.9-1.6-4.9-3.1c1.8-0.9,3.8-1.6,6.1-1.9c0.3,0.4,0.7,0.7,1.1,1C65.7,84.2,65.8,85.4,65,86.6z
				 M61.5,92.3L61.5,92.3c0.6-0.4,0.7-1.2,0.5-2.3c1.5,1.5,2.8,3.1,4,4.8C64.4,93.8,62.9,93,61.5,92.3z M54.1,81.4L54.1,81.4
				c1.3-1.7,2.9-3.3,5.2-4.4c0,0.1,0.1,0.2,0.1,0.3c1.5,1.4,2.9,2.8,4.3,4.3c-4-1-7-1-8.9,0.2c0,0,0,0,0,0
				C54.6,81.6,54.4,81.5,54.1,81.4z M67.8,24.4c-2.1,4-4.2,8.1-6.5,10.8c-0.4-2.5-0.6-4.9-0.6-7.4c1-1.7,2-3.4,3-5.1
				c-0.9-0.1-2.1,0.2-3.2-0.1c-0.2-0.3-0.3-0.7-0.5-1c0.3-1.9,3.2,0,4.7-1.9c0.5-3.1-2.2-3.2-4.9-3.3c0.1-0.3,0.3-0.7,0.4-1
				c1.3,0.1,2.6-0.2,3.7-1.4c0.2-0.8,0.2-1.4,0-1.7c-1.1-1.2-2.9-0.7-4.7-0.5c0-0.3,0.1-0.6,0.2-0.9c0.5-0.5,1.4-0.8,2.6-0.9
				c1-0.8,1.1-1.8,0-2.8c-1.1-0.5-2.3-0.6-3.6,0.3c2.1-2.5,1.2-3.5-0.3-4.2c-2.1,0.7-2.2,2.1-0.4,4.3c-0.3,0-0.7-0.2-1.2-0.3
				c-0.5-0.1-1,0-1.4,0.3c-1.6,2-0.5,3.2,2.9,3.6c0,0.2,0.1,0.5,0.1,0.7c-1.1-0.2-2-0.1-3,0.1c-1.9,0.9-2.2,2-1.4,3.4
				c1.2,0.5,2.3,1.1,5,0c0.1,0.4,0.1,0.8,0.2,1.1C58,16,57.3,16,56.7,16.4C55,17.6,54,19.1,54.3,21c0.4,0.7,1.3,0.9,2.5,0.6
				c0.9-0.2,1.7-0.8,2.6,0.3c0.1,0.3,0.2,0.5,0.3,0.8c-0.6-0.2-1.3-0.1-1.9,0.1c0.7,1.4,1.3,3,1.7,4.8c0.2,3,0.4,5.9,0,8.9
				c-1-3-1.9-6.1-2.8-9.1c-2.9-4.1-5.7-3.8-8.5-0.4c-2,4.6-3.9,9.2-5.8,13.8c3.2-3.5,6.4-7,9.6-10.5c0.5-0.1,0.9-0.1,1.4,0.1
				c1.6,2.4,3.7,4.6,3.2,7.3c-1.2-0.4-2.3-1.4-3.4-2.9c-4.9,1.4-8.2,4.9-10.3,9.8c3.1-2.3,6.2-4.6,10.4-5.4c0.6,0,1.2,0.2,1.8,0.6
				c2.4,1.7,4.7,3.4,6.7,10.9c0.1,0.8,0.2,1.5,0.2,2.2c-2.7-2.3-4.9-3-6.8-3.2c-3.6-3.1-6.6-4.3-9.1-3.8c1.6,1.3,3.3,2.6,5,4.1
				c-2.6,1-3.3,2.8-4.1,4.5c2-1.1,4-2.1,6.5-2.3c1.9,1.8,3.7,3.7,5.4,6c-5-3.8-8.3-3.4-11-1.5c-1.9,1.4-2.9,2.8-3.4,4.2
				c3.8-1.9,7.6-3.9,11.7-1.6c1.9,1.2,3.4,3,4.6,5.4c-2.7-2.1-5.4-3.2-7.9-3.3c-2,0.3-3.7,0.9-5,2c-0.5,0.5-0.6,1-0.2,1.6
				c4.3-0.1,8.7-0.5,11.6,1.9c0.6,1,1,1.9,1.5,2.8c-4-2.4-5.8-3-6.6-2.4c0,1.2,2.6,2.9,6.2,5c-0.2-0.1-0.4-0.2-0.5-0.3
				c-8.1-0.1-10.4,3.6-10.8,8.6c3.5-2.9,7-5.8,11.8-8c0.9,0.5,1.8,1.1,2.8,1.6c-3,0-5.3,0.6-7.1,1.7c-2.4,2-3.3,3.7-3.7,5.4
				c-0.4-0.1-0.8-0.1-1.1-0.1c0.3,0.3,0.6,0.5,1,0.8c-0.2,0.9-0.3,1.8-0.5,2.7c0.4-0.7,0.9-1.3,1.3-2c0.1,0.1,0.2,0.2,0.4,0.3
				c-2.4,2.4-1.9,4.8-2.2,7.2c1.5-1.8,2.9-3.6,4.8-5.1c1.2,1,2.4,2.1,3.6,3.2c-0.9,1-1.7,1.9-2,2.8c-2.6-0.2-4.6,0-5.6,1.1
				c1.7,0.5,3.3,1.2,5,1.9c-0.1,1.8,0.4,3.6,0.9,5.1c0.5-1.3,1-2.7,1.6-3.9c0.6,0.3,1.1,0.5,1.7,0.8c2,0.9,3.7,2.1,5.1,3.6
				c-3.4-0.8-6.7-0.3-10,1.2c-3.6,2.6-6.3,6.2-7.4,11.8c4.9-4.2,9.6-9.6,15.3-9.5c2.3,0.7,4.1,2.5,3.9,7.9c-2.8,6-6.7,7.8-11.3,6.5
				c-1.3-0.8-2.4-1.9-3.4-3c-1.6,3.7-0.9,6.8,3.2,8.8c2,0.7,4.8,0.3,9.2-1.9c1.2-2.5,2.5-5,3.7-7.5c0.2-11.1-0.5-22.1-1.9-33
				c-1.2-6.4-2.4-12.7-3.6-19.1v-0.5c-0.3-1.8-0.5-3.7-0.5-5.6c0-2.5,0.2-4.9,0.6-7.3l0-1.3c-2.1-0.6-2.4-3.6-1.6-8.1
				c1.6-4.1,3.6-8,9.5-9.7c1.2-0.4,1.8-1,2-1.7C73.2,23.8,70.8,23.2,67.8,24.4z"/>
			<path class="st0" d="M157,91.9c0,0.7,0,1.5-0.1,2.2c0,1-0.2,2-0.4,3c1.2-1.2,2.5-2.4,4-3.3C159.3,93.3,158.1,92.7,157,91.9
				 M157.3,73.7c0.4,0.4,0.9,0.8,1.3,1.2l0.3-0.1c1.6-0.5,3.5-0.7,5.2-0.9l0.1,0l0,0c-0.2-0.1-0.4-0.1-0.6-0.2l-0.1,0l-0.1,0
				c-1-0.8-2-1.5-2.9-2.4C159.5,72.1,158.4,72.9,157.3,73.7z M150.4,76.5c-0.6,0.1-1.2,0.2-1.8,0.2l-0.9,0L148,76
				c0.1-0.5,0.3-1,0.4-1.5l0-0.1l0.1-0.1c2-1.9,3.9-3.7,5.9-5.6c-1.3-0.4-2.6-0.8-3.9-1.2l-0.5-0.1l0.1-0.5c0-0.2,0-0.3,0.1-0.5
				c0.1-0.8,0.3-1.7,0.4-2.5l0.1-0.6c0.2-1.2,0.4-2.4,0.5-3.6l0-0.2l-0.4-0.3l0.4-0.1l0-0.4c0-0.2,0-0.4,0-0.6h0v-0.7
				c0-0.2,0-0.5,0-0.7l0-0.4h0l0-0.2c-0.1-0.6-0.2-1.3-0.2-1.9c0-0.2,0-0.4,0-0.5c0-0.2,0-0.5-0.1-0.7l0-0.1l0-0.1
				c0.7-2.3,1.7-4.5,3.3-6.3c-0.6,0.2-1.2,0.4-1.9,0.5l-0.2,0c-0.1,0.4-0.2,0.7-0.4,1.1c-0.2,0.3-0.5,0.6-0.9,0.6
				c-0.3,0-0.5-0.1-0.7-0.3l-0.2-0.1l0-0.2c-0.3-1.1-0.6-2.2-0.9-3.3c-0.1-0.2-0.1-0.4-0.2-0.5c-0.1-0.4-0.3-0.7-0.4-1
				c-0.4-1-0.8-2-1.3-3c-0.2-0.4-0.4-0.8-0.6-1.2c-0.1-0.2-0.2-0.5-0.3-0.7L146,38v-0.1c0.1-2,0.1-4,0.1-6l0-1.1l0.9,0.6
				c2,1.4,3.6,3.3,4.9,5.4c0.1-0.8,0.2-1.5,0.2-2.3c0.2-2.9,0.1-6.2-1-8.9c-1.5-1.3-3.3-2.2-4.9-3.1l0,0l-0.1,0
				c-1.9-1.7-3.4-3.9-3.2-6.6c0-0.2,0-0.3,0-0.5l0-0.3l0.3-0.1c0.2-0.1,0.4-0.2,0.5-0.4l0.2-0.3l0.4,0.1c1.9,0.5,3.3,1.1,4.7,2.5
				c1.3,1.3,2.5,2.6,3.6,4.1c0.1-0.2,0.2-0.4,0.2-0.7c0,0,0-0.1,0-0.2c0-0.4-0.1-0.7-0.3-1c-1.6-2.8-2.9-6.4-2.7-9.8
				c0.2-2.5,1.2-4.3,3.2-5.8l0.4-0.3l0.4,0.3c2.9,2.4,3.2,7,2.9,10.6c-0.1,1.7-0.4,3.5-0.7,5.3c0.9-1.2,1.7-2.3,2.7-3.4
				c1.1-1.2,2.4-2.4,4.1-2.7c0.2,0,0.4-0.1,0.6-0.1l0.7,0l-0.1,0.7c-0.5,5.7-2.4,11.2-8.3,12.9l-0.4,5.7c0.5-0.5,0.9-0.9,1.4-1.4
				c0.6-0.6,1.3-1.2,1.9-1.8c0.5-0.5,1-1,1.4-1.5l0.7-1l0.4,1.1c0.2,0.6,0.2,1.2,0.1,1.8c0,0.2,0,0.3,0,0.4c1.3-0.3,2.8-0.7,4.1-0.6
				c0.5,0,1,0.1,1.4,0.3l0.1,0l0.1,0.1c0.3,0.3,0.4,0.7,0.4,1c0,0.7-0.4,1.6-0.8,2.3l0,0l0,0.1c-1.5,2-3.3,3.7-5.4,5.1l0,0.1
				c-0.1,0.9-0.4,1.7-0.7,2.5c0.7-0.9,1.5-1.7,2.4-2.5c1.3-1.1,2.8-2,4.5-2l0.5,0l0.1,0.5c0.1,0.6,0.1,1.2,0.1,1.8
				c-0.2,2.5-1.3,4.7-2.9,6.7l0,0l0,0c-1.3,1.1-3.5,2.8-5.3,2.7c-0.1,0-0.3,0-0.4-0.1c0,0-0.1,0-0.1-0.1l-0.2-0.1l-0.1,0.1l-0.2-0.2
				c-0.2,0.7-0.3,1.3-0.6,2c0.8-0.1,1.7-0.1,2.6-0.1c0.6,0,1.2,0.1,1.7,0.2l0.2,0c2-2.7,4.9-5.7,8.3-6.4l0.7-0.1l0,0.7
				c0,0.3,0,0.6,0,0.9c-0.2,2.9-1.8,5.1-4.3,6.6c-1.9,1.1-3.4,1.1-5.5,1.1h-0.3c-0.8,1.2-1.7,2.3-2.6,3.4c0.9,1.2,1.9,2.5,2.6,3.9
				c0.5-4.9,2.7-7.6,8-7.4l0.4,0l0.1,0.4c0.5,1.3,0.7,2.7,0.7,4.1c0,0.5-0.1,1.1-0.2,1.6c0.6-0.3,1.2-0.5,1.9-0.5l0.7,0l-0.1,0.6
				c-0.4,3.4-2.1,6.2-3.9,9.1c2.1,1,3.5,2.5,4.5,4.5l0.3,0.6l-0.7,0.2c-1.7,0.5-3.5,0.8-5.3,0.9c-0.2,0-0.4,0-0.7,0
				c-0.6,0-1.2-0.1-1.8-0.3c2,0.8,3.8,1.9,5,3.8l0.3,0.5l-0.5,0.3c-1.2,0.8-2.9,0.9-4.3,0.7c-1.6-0.2-3-0.8-4.5-1.5
				c0.1,0.6,0.2,1.1,0.2,1.7c0,0.4-0.1,0.7-0.2,1.1l-0.2,0.7l-0.6-0.3c-2.2-1-4.6-1.7-7-2.2c1.6,1.4,2.5,3.2,3.2,5.3
				c3-1.1,6.2-1.9,9.4-1.8h0.5l0.1,0.5c0.1,0.4,0.1,0.7,0.1,1.1c-0.1,1.7-1.3,3.2-2.5,4.4c1.6,0.7,2.8,1.9,2.9,3.7v0h0l0,0.2l0,0.4
				l-0.1,0c-0.3,2.2-2.2,3.8-4.1,4.8c1,0.1,1.9,0.5,2.8,1l0.4,0.2l-0.1,0.4c-0.4,1.9-2.2,3-3.8,3.8c1.4,1.1,2.1,2.7,2.3,4.5l0.1,0.6
				l-0.6,0.1c-0.2,0-0.4,0-0.7,0c-1.6-0.1-3-0.6-4.3-1.3c0.2,0.7,0.3,1.3,0.3,2c0,0.1,0,0.3,0,0.4c-0.1,0.8-0.2,1.7-0.4,2.5
				l-0.1,0.7l-0.6-0.2c-2.6-0.9-4.3-2.7-5.5-5c-0.8,1.3-1.8,2.4-3,3.4c-0.1,0.1-0.1,0.1-0.2,0.2l-0.2,0.2c0.2,1.2,0.2,2.5,0.1,3.7
				l0,0.6l-0.7,0c-2.5-0.1-4.4-1.5-6.2-3.2l-0.2-0.2v-0.3c0-0.1,0-0.1,0-0.2c-0.1-2.3-0.1-4.6,0-6.9l0-0.8l0.3,0
				c-0.1-0.7-0.3-1.4-0.3-2.1c0-0.1,0-0.3,0-0.4v0v-0.1c0.1-1.5,0.3-3,0.5-4.5l0.1-0.6l0.3,0c0-0.1,0.1-0.3,0.1-0.4l0.2-0.6l0.6,0.2
				c0.3,0.1,0.6,0.2,0.9,0.4c-0.4-0.9-0.5-1.9-0.6-2.9l-0.1-1l0.9,0.4c0.7,0.3,1.4,0.7,2,1.1c-0.2-0.8-0.4-1.7-0.3-2.6l0-0.2
				l-0.2-0.3c-0.1-0.1-0.2-0.3-0.3-0.4l-0.1-0.2v-0.3c0.1-1.2,0.3-2.5,1-3.4l0.2-0.3l0.3,0.1c0.6,0.1,1.2,0.4,1.7,0.7
				c-0.2-0.9-0.3-1.9-0.2-2.9c0-0.3,0-0.6,0.1-0.8c0.3-1.5,1-3.1,2.1-4.3c-0.3-0.7-0.8-1.2-1.3-1.7L150.4,76.5z"/>
			<path class="st4" d="M143.8,96.8c-0.2,1.5-0.4,3-0.5,4.5v0.1v0v0v0c0,0.4,0,0.8,0,1.1c0-0.3,0-0.5,0-0.8c0,0.8,0.1,1.5,0.3,2.3
				c0.2,0,0.4,0.1,0.5,0.1c0.3,0.1,0.7,0.1,1,0.3c0.3,0.1,0.7,0.3,1,0.4c0.2,0.1,0.4,0.1,0.6,0.2c0,0,0.1,0,0.1-0.1
				c1.8-1,3.4-2.2,4.9-3.6c-0.1-0.1-0.1-0.2-0.2-0.3c0-0.1-0.1-0.1-0.1-0.2c-0.4-0.2-0.9-0.4-1.3-0.6c-0.1,0.4-0.4,0.7-0.8,0.7
				c-1,0.2-1.9,0.5-2.8,0.7c0,0,0,0-0.1,0c-0.1,0-0.2-0.1-0.2-0.2c0-0.2,0-0.3,0.2-0.3c0.9-0.2,1.8-0.5,2.8-0.7
				c0.3-0.1,0.4-0.1,0.4-0.3c0,0,0-0.1,0-0.2c-1.2-0.7-2.2-1.6-3.2-2.6c-0.2-0.2-0.4-0.4-0.6-0.7c-0.5-0.2-1.1-0.5-1.6-0.7
				c-0.2,0.6-0.4,1.2-0.5,1.8C143.7,97.5,143.7,97.2,143.8,96.8 M154.5,16.9L154.5,16.9L154.5,16.9c0.2,0,0.3-0.1,0.3-0.3l-0.6-8.9
				c0-0.2-0.1-0.3-0.3-0.3c-0.1,0-0.3,0.2-0.3,0.3l0.6,9C154.2,16.8,154.3,16.9,154.5,16.9z M151.1,23.7L151.1,23.7
				c0.1,0.1,0.1,0.1,0.2,0.1c0.1,0,0.2,0,0.2-0.1c0.1-0.1,0.1-0.3,0-0.4h0c-1.6-1.6-2.9-3.2-3-4.5c0-0.2-0.1-0.3-0.3-0.2
				c-0.1,0-0.2,0.2-0.2,0.3C148.1,20.5,149.5,22.1,151.1,23.7z M157.1,22.6L157.1,22.6c0,0,0.1,0,0.2-0.1c1.9-1.5,3.5-3,4.3-4.4
				c0.1-0.1,0-0.3-0.1-0.4c-0.1-0.1-0.3,0-0.4,0.1c-0.7,1.2-2.3,2.7-4.2,4.2c-0.1,0.1-0.1,0.3,0,0.4C156.9,22.6,157,22.6,157.1,22.6
				z M164.6,61.7L164.6,61.7c0.1,0,0.2,0,0.3-0.1h0c0.7-1.5,1.6-2.6,2.6-3.4c0.1-0.1,0.1-0.2,0-0.4c-0.1-0.1-0.3-0.1-0.4,0
				c-1.1,0.8-2,2-2.7,3.5c-0.1,0.1,0,0.3,0.1,0.4C164.5,61.7,164.5,61.7,164.6,61.7z M166.2,64.7L166.2,64.7
				c-0.1,0.1-0.2,0.2-0.1,0.4c0,0.1,0.1,0.1,0.2,0.1c0,0,0.1,0,0.2,0c1.3-0.7,2.4-1.6,2.9-2.6c0.1-0.1,0-0.3-0.1-0.4
				c-0.1-0.1-0.3,0-0.4,0.1C168.5,63.2,167.6,64,166.2,64.7z M158.2,60.3L158.2,60.3c0-0.1-0.2-0.2-0.3-0.2c-0.1,0-0.2,0.2-0.2,0.3
				c0.3,1.1,1.2,2.2,2.2,3.3c0.1,0,0.1,0.1,0.2,0.1c0.1,0,0.1,0,0.2-0.1c0.1-0.1,0.1-0.3,0-0.4C159.3,62.3,158.4,61.2,158.2,60.3z
				 M157.5,70.7L157.5,70.7c-0.8,0-1.8,1-2.9,1.9c-0.1,0.1-0.1,0.3,0,0.4c0,0.1,0.1,0.1,0.2,0.1c0.1,0,0.1,0,0.2-0.1
				c1-0.9,2.3-1.8,2.5-1.8c0,0,0,0,0,0c0.1,0,0.3,0,0.3-0.2c0-0.1,0-0.3-0.2-0.3C157.6,70.7,157.5,70.7,157.5,70.7z M164.5,69.8
				L164.5,69.8l5.7,2.4c0,0,0.1,0,0.1,0c0.1,0,0.2-0.1,0.3-0.2c0.1-0.1,0-0.3-0.2-0.4l-5.7-2.4c-0.1-0.1-0.3,0-0.4,0.2
				C164.3,69.6,164.4,69.8,164.5,69.8z M165.8,77.2L165.8,77.2L165.8,77.2c0.2,0,0.3-0.1,0.3-0.2c0-0.1-0.1-0.3-0.2-0.3
				c-1.7-0.4-2.9-1-3.1-1.4c-0.1-0.1-0.2-0.2-0.4-0.1c-0.1,0.1-0.2,0.3-0.1,0.4C162.9,76.3,164.1,76.7,165.8,77.2z M156.4,73.5
				L156.4,73.5c-0.8,0.5-1.7,1-2.6,1.3c-0.1,0.1-0.2,0.1-0.3,0.1c-0.9,0.4-1.8,0.6-2.8,0.9c-0.7,0.1-1.5,0.3-2.2,0.3
				c0.2-0.5,0.3-1,0.4-1.5c2.1-2,4.1-3.9,6.2-5.9c0.5,0.1,1,0.2,1.6,0.3c0.4,0,0.8,0,1.2,0c0.2,0,0.4-0.1,0.6-0.1
				c0.1,0,0.3,0,0.5-0.1c0.7-0.2,1.2-0.6,1.3-1.3v-0.1c-0.1-0.4-0.3-0.8-0.5-1.3c0-0.1-0.1-0.2-0.1-0.3c-0.1-0.2-0.2-0.4-0.4-0.5
				c-1.1-1.8-2.9-3.2-4.8-4.6c-0.7-0.5-1.4-1-2.3-1.5c2.1-0.7,4.3-1.3,6.4-2.5c1.5,1.8,2.6,3.6,3.2,5.2c0.1,0.2,0.1,0.3,0.1,0.5
				c0.1,0.3,0.2,0.6,0.2,0.9c0,0.3,0.1,0.7,0.1,1v0v0.1c0,0,0,0,0,0c0,0,0,0,0,0c0,0.9,0,1.8,0,2.7c0,0.1,0,0.2,0.1,0.2
				c0,0,0.1,0,0.1,0l0,0c4.3,0.4,8.3,0.7,10.7,5.6c-1.7,0.5-3.4,0.8-5.2,0.8c-0.2,0-0.4,0-0.6,0c-1.2-0.1-2.4-0.4-3.6-1
				c-1-0.8-2.1-1.7-3.1-2.5c-0.1-0.1-0.2-0.1-0.3,0C159.1,71.8,157.7,72.7,156.4,73.5z M159.8,76.8L159.8,76.8
				c0.3,0.3,0.7,0.6,1,0.9c0.2,0.7,0.4,1.5,0.3,2.2c0,0.3-0.1,0.7-0.2,1c-2.6-1.1-5.4-1.9-8.4-2.5c-0.3-0.8-0.9-1.4-1.5-2
				c1-0.2,1.9-0.5,2.8-0.9c0.1,0,0.2-0.1,0.2-0.1c0.1,0,0.2-0.1,0.3-0.1l2,2.1c0,0.1,0.1,0.1,0.2,0.1c0.1,0,0.2,0,0.2-0.1
				c0.1-0.1,0.1-0.3,0-0.4l-1.9-2c0.5-0.2,1-0.5,1.5-0.8c0.1-0.1,0.2-0.1,0.3-0.1C157.8,74.9,158.8,75.9,159.8,76.8z M164.1,74.5
				L164.1,74.5c2.5,0.7,4.6,1.8,5.9,4c-0.9,0.6-2.3,0.7-3.9,0.7c-1.8-0.3-3.4-1-4.9-1.8c-0.7-0.7-1.4-1.3-2.2-2
				C160.4,74.9,162.2,74.6,164.1,74.5z M156.5,85L156.5,85c0,0.2,0,0.4,0,0.6c0,0.1,0,0.3,0,0.4c0,0.6-0.1,1.3-0.2,1.9
				c-0.2,0.8-0.4,1.5-0.6,2.2c0,0-0.1,0-0.1,0c-0.4-0.3-0.9-0.5-1.3-0.6c-0.3-0.1-0.6-0.2-0.9-0.3c-0.1,0-0.3-0.1-0.4-0.1
				c-0.3-0.1-0.5-0.1-0.8-0.2c0,0,0-0.1,0-0.1c-0.1-0.3-0.2-0.6-0.4-0.9c-0.1-0.1-0.2-0.2-0.3-0.3c-0.2-0.2-0.3-0.4-0.5-0.5
				c0,0-0.1-0.1-0.1-0.1c-0.3-1.1-0.5-2.2-0.4-3.4c0-0.2,0.1-0.5,0.1-0.8c0.4-1.7,1-3,1.9-4C154,80,155.4,81.5,156.5,85z
				 M156.3,89.8L156.3,89.8c0.1-0.6,0.3-1.2,0.4-1.8c0,0,0,0,0,0c0.8,0,1.6,0,2.4,0c1.6,0.1,3.2,0.3,4.8,1c1.7,0.8,2.9,1.8,3,3.4
				c-0.2,0-0.3,0-0.5-0.1c-1.6-0.1-3.2,0.4-4.9,1.1c0,0-0.2,0-0.2,0.1c-1.6-0.7-3-1.5-4.4-2.4c-0.2-0.3-0.4-0.6-0.6-0.8
				C156.2,90.1,156.3,90,156.3,89.8z M157,86L157,86L157,86c0-0.1,0-0.2,0-0.3c0-0.2,0-0.4,0-0.6c3.1-1.2,6.3-1.9,9.3-1.8
				c0.1,0.3,0.1,0.6,0.1,1c-0.1,1.5-1.1,2.9-2.5,4.2c-1.6-0.6-3.2-0.9-4.8-1c-0.2,0-0.4,0-0.6,0l6.1-2.3c0.2,0,0.2-0.2,0.2-0.3
				c-0.1-0.1-0.2-0.2-0.3-0.2l-7.5,2.8c-0.1,0-0.1,0-0.2,0C156.9,87,157,86.5,157,86L157,86z M162.1,97.9L162.1,97.9
				c-1.7,0.3-3.5,0.7-5.2,1c-0.3,0.1-0.5,0.1-0.8,0.2c-0.1-0.1-0.1-0.2-0.2-0.3c1.7-1.7,3.4-3.4,5.5-4.6c0,0,0,0,0.1,0
				c1.6-0.7,3.4-1,5.3-1C166.6,94.8,165.1,96.4,162.1,97.9z M165.8,99.4L165.8,99.4c-0.4,1.5-1.8,2.7-3.9,3.6
				c-2-0.7-4.1-1.2-6.1-1.7c0,0,0,0,0-0.1c0-0.1,0.1-0.2,0.1-0.4c0.1-0.4,0.2-0.8,0.3-1.1l0-0.2c0.4-0.1,0.9-0.2,1.3-0.3
				c1.6-0.3,3.2-0.6,4.7-0.9h0.2C163.5,98.5,164.7,98.7,165.8,99.4z M164.3,107.9L164.3,107.9c-0.2,0-0.4,0-0.6,0
				c-1.7-0.1-3.3-0.7-4.8-1.7c-0.9-1.6-2.1-3-3.5-4.2c0-0.1,0.1-0.1,0.1-0.2c0.4,0.1,0.8,0.2,1.3,0.3c1.6,0.4,3.2,0.8,5,1.4
				C163.1,104.4,164,105.6,164.3,107.9z M159,109.6L159,109.6c-0.1,0.8-0.2,1.6-0.4,2.4c-2.6-0.8-4.2-2.7-5.3-5.2
				c0.2-1.4,0.3-2.8,0.4-4c0.2,0,0.4,0,0.6-0.1c0,0,0,0,0.1,0c0.2-0.1,0.3-0.1,0.5-0.2c0,0,0,0,0,0c1.1,0.9,2,2,2.9,3.3
				c0.2,0.3,0.4,0.6,0.6,0.9l0,0c0.4,0.9,0.6,1.8,0.6,2.6C159.1,109.3,159,109.4,159,109.6z M152.1,100.9L152.1,100.9
				c0-0.1-0.1-0.1-0.1-0.2c-0.1-0.2-0.1-0.5-0.1-0.7c0-0.1,0-0.3,0.1-0.4c0-0.1,0-0.1,0-0.1c0-0.1,0.1-0.1,0.1-0.1
				c0.1-0.2,0.3-0.4,0.4-0.5c0,0,0.1-0.1,0.1-0.1c0.1-0.1,0.3-0.2,0.4-0.3c0.1,0,0.1-0.1,0.2-0.1c0.2,0,0.3,0,0.5,0
				c0.3,0,0.5,0.1,0.8,0.1c0.2,0.1,0.4,0.2,0.6,0.3c0.1,0.1,0.2,0.1,0.2,0.1c0.1,0.1,0.2,0.2,0.2,0.3c0,0,0,0,0,0c0,0.1,0,0.1,0,0.1
				c0,0.1,0.1,0.3,0.1,0.5c0,0.1,0,0.2,0,0.2c0,0.2-0.1,0.4-0.2,0.6c0,0.2-0.1,0.3-0.2,0.5c-0.1,0.3-0.3,0.5-0.4,0.7
				c-0.1,0.1-0.1,0.1-0.2,0.1c-0.1,0.1-0.3,0.2-0.5,0.2c-0.2,0-0.3,0.1-0.5,0.1C152.9,102.1,152.3,101.6,152.1,100.9z M152.9,105.8
				L152.9,105.8c0,0.3-0.1,0.6-0.1,0.9c-1,1.6-2,2.8-3.1,3.7c-0.1,0.1-0.1,0.1-0.2,0.2c-0.2-1.8-0.9-3.4-2-4.7
				c-0.1-0.1-0.2-0.2-0.3-0.4c1.1-0.6,2.1-1.3,3-2c0,0,0.1-0.1,0.1-0.1c0.6-0.5,1.2-0.9,1.7-1.5c0.2,0.3,0.6,0.5,1.1,0.6
				c0,0,0,0,0.1,0C153.1,103.7,153,104.7,152.9,105.8z M149,114.9L149,114.9c-2.2-0.1-4.1-1.4-5.8-3c0-0.1,0-0.2,0-0.3
				c0-2.3,0-4.6,0-6.8v-0.1c0.2,0,0.4,0.1,0.6,0.1c0.2,0,0.4,0.1,0.6,0.1c0.2,0,0.3,0.1,0.5,0.1c0.4,0.1,0.8,0.3,1.2,0.5
				c0.2,0.1,0.3,0.1,0.5,0.2c0,0,0.1,0.1,0.1,0.1c0.3,0.4,0.7,0.8,0.9,1.2c0.1,0.2,0.2,0.4,0.4,0.6c0.2,0.4,0.4,0.8,0.5,1.3
				c0.1,0.3,0.2,0.6,0.3,0.9C149,111.3,149.2,112.9,149,114.9L149,114.9z M148.8,17.1L148.8,17.1c1.3,1.5,2.6,3,3.9,4.5
				c0,0.1,0.2,0.1,0.2,0.1c0.1,0,0.2-0.1,0.2-0.2c0.1-0.4,0.3-0.8,0.4-1.2c0-0.1,0-0.2,0-0.3c0-0.4-0.1-0.9-0.3-1.3
				c-1.8-3.5-2.8-6.8-2.6-9.4c0.1-2.2,1-3.9,3-5.3c2.3,1.9,3,5.5,2.7,10.1c-0.1,2-0.4,4.2-0.9,6.5c0,0.1,0,0.2,0.2,0.3
				c0.1,0,0.2,0,0.3-0.1c2.4-3.4,4.8-6.9,7.8-7.1c-0.7,7.3-3.4,11.3-8.1,12.4c-0.1,0-0.2,0.1-0.2,0.3L155,33
				c-0.3,0.3-0.5,0.6-0.7,0.9l-0.1,0c-0.5,1.2-1,2.4-1.6,3.5c0.1-1,0.2-2,0.3-3c0.2-3.5,0-6.7-1.1-9.3l-0.1-0.1
				c-1.5-1.2-3.3-2.2-5-3.2c-2.2-2-3.2-4-3.1-6.1c0-0.2,0-0.3,0.1-0.5c0.3-0.1,0.6-0.3,0.8-0.5C145.7,15.2,147.2,15.7,148.8,17.1z
				 M160.8,27.9L160.8,27.9c0.1,0.4,0.2,0.9,0.1,1.6c0,0.2,0,0.5-0.1,0.9c-0.7,2.8-1.6,4.5-2.5,5.8c-0.1,0.2-0.3,0.4-0.5,0.6
				c-0.3,0.4-0.6,0.7-0.9,1c-0.1,0-0.3,0.1-0.4,0.2c-0.5,0.1-0.9,0.3-1.3,0.5c-0.3,0.2-0.6,0.3-0.9,0.5c-0.3,0.2-0.6,0.4-0.8,0.5
				c-0.2,0.1-0.4,0.2-0.5,0.4c0-0.1,0-0.2,0-0.2c0,0,0,0,0,0c0,0,0,0,0,0c0-0.3,0-0.5,0-0.8l5.7-5.4c0.1-0.1,0.1-0.3,0-0.4
				c-0.1-0.1-0.3-0.1-0.4,0l-5.4,5.2c0,0,0,0,0,0c0,0,0-0.1,0-0.1c0,0,0,0,0-0.1c0,0,0,0,0,0c0.9-1.6,1.8-3.2,2.6-4.8
				C157.2,31.4,159.7,29.4,160.8,27.9z M161.3,30.7L161.3,30.7c1.5-0.4,3-0.8,4.2-0.7c0.5,0,0.9,0.1,1.3,0.3
				c0.1,0.1,0.2,0.2,0.2,0.6c0,0.5-0.3,1.1-0.7,2c-1.5,2-3.2,3.6-5.3,5c-0.4-0.2-0.9-0.3-1.4-0.3h0c-0.2,0-0.4,0-0.7,0.1
				c2.1-1.3,4-2.7,5.2-4.5c0.1-0.1,0-0.3-0.1-0.4c-0.1-0.1-0.3-0.1-0.4,0.1c-1.1,1.8-3.2,3.3-5.5,4.7c0.3-0.3,0.5-0.6,0.7-1
				c0.5-0.7,1-1.5,1.4-2.4C160.6,32.9,161.1,31.8,161.3,30.7z M158.9,43.2L158.9,43.2c-1.1,0.6-2.2,1.1-3.3,1.7
				c-1.2,0.7-2.4,1.2-3.5,1.3c0.1-0.3,0.1-0.5,0.2-0.7h0c1.5-1.6,3.1-3.2,5.1-4.3c0.1-0.1,0.2-0.2,0.1-0.4c-0.1-0.1-0.2-0.2-0.4-0.1
				c-1.8,1-3.2,2.4-4.6,3.8c0,0,0,0,0,0c0,0,0-0.1,0-0.1c0-0.2,0-0.4,0.1-0.6v0c0-0.3,0.1-0.6,0.1-0.9c0-0.2,0.1-0.5,0.1-0.7
				c0-0.6,0.1-1.1,0.1-1.7c0.6-0.4,1.1-0.8,1.7-1.2c0.2-0.1,0.4-0.2,0.5-0.3c0.5-0.3,1.1-0.5,1.8-0.7c0.2,0,0.3-0.1,0.5-0.1
				c0.7-0.1,1.3-0.2,1.9-0.2c0.3,0,0.6,0.1,0.9,0.1c0.2,0,0.3,0,0.5,0.1C160.4,40,159.8,41.6,158.9,43.2z M167.5,37.2L167.5,37.2
				c0.1,0.6,0.1,1.2,0.1,1.7c-0.1,2.2-1.1,4.3-2.7,6.4c-2,1.7-3.7,2.6-4.9,2.5c-0.1,0-0.3-0.1-0.4-0.1c2-2.2,3.6-4.5,4.7-6.7
				c0.1-0.1,0-0.3-0.1-0.4c-0.1,0-0.3,0-0.4,0.1c-1,2.2-2.7,4.5-4.7,6.8c0,0,0,0,0,0c0-0.2,0-0.4,0.1-0.7c0.1-0.7,0.3-1.4,0.3-2.1
				c0-0.2,0-0.4,0-0.6c0-0.2,0-0.4,0-0.6C162,40,164.7,37.1,167.5,37.2z M158.6,45.8L158.6,45.8c-0.2,1.6-0.5,3.1-1.1,4.6
				c-1.1,1.8-2.2,3-3.2,3.9c-0.1,0.1-0.2,0.1-0.2,0.2c-0.4,0.3-0.8,0.6-1.2,0.8c0,0-0.1,0-0.1,0.1c0.4-3.2,1.4-5.3,3.3-6.2
				c0.2-0.1,0.2-0.2,0.1-0.4c-0.1-0.1-0.2-0.2-0.4-0.1h0c-2.2,1-3.3,3.6-3.6,7c-0.1,0-0.1,0.1-0.2,0.1c-0.1,0.1-0.2,0.1-0.3,0.1
				c-0.1-0.6-0.1-1.2-0.2-1.9c0-0.2,0-0.4,0-0.6c0-0.2,0-0.4-0.1-0.6c0.9-2.9,2.2-5.6,4.6-7.4c0.9-0.5,1.9-1,2.8-1.5
				c0,0.3,0,0.5,0,0.7C158.7,45,158.7,45.4,158.6,45.8z M150.7,66.9L150.7,66.9c0-0.2,0-0.3,0-0.5c0.2-0.8,0.3-1.7,0.4-2.5l3.4,1.5
				c0,0,0.1,0,0.1,0c0.1,0,0.2-0.1,0.3-0.2c0.1-0.1,0-0.3-0.1-0.4l-3.5-1.6c0.2-1.2,0.4-2.4,0.5-3.6c0.9,0.5,1.7,1.1,2.5,1.6
				c0.1,0,0.1,0.1,0.2,0.1c0.2,0.2,0.4,0.3,0.6,0.4c1.9,1.4,3.1,2.7,3.8,3.8c0.1,0.1,0.1,0.2,0.2,0.3c0.1,0.1,0.2,0.3,0.2,0.5
				c0.2,0.3,0.3,0.6,0.4,0.9c0,0.1,0,0.1,0.1,0.1c-0.1,0.5-0.5,0.7-1,0.9c-0.2,0-0.4,0.1-0.7,0.1c-0.1,0-0.1,0-0.2,0
				c-0.3,0-0.7,0-1.1,0c-0.5-0.1-1.1-0.2-1.7-0.3C153.6,67.8,152.1,67.3,150.7,66.9z M152.3,40.3L152.3,40.3c0,0.1,0,0.1,0,0.1v0v0
				c0,0.7-0.1,1.3-0.1,2c0,0.3-0.1,0.6-0.1,0.8c-2-1.8-3.2-4.2-3.6-7c0-0.1-0.2-0.3-0.3-0.2c-0.2,0-0.3,0.2-0.2,0.3
				c0.4,3,1.7,5.6,4.1,7.6c0,0.1,0,0.2,0,0.2c-0.1,0.8-0.3,1.5-0.5,2.3c-0.1,0.5-0.3,0.9-0.4,1.1c-0.2,0.2-0.3,0.3-0.3,0.3
				c-0.1,0-0.2-0.1-0.4-0.2c-0.3-1.1-0.6-2.2-0.9-3.3c-0.1-0.2-0.2-0.4-0.2-0.6c-0.1-0.4-0.3-0.7-0.4-1c-0.4-1-0.8-2.1-1.3-3.1
				c-0.2-0.4-0.4-0.8-0.6-1.2c-0.1-0.2-0.2-0.5-0.3-0.7c0.1-2.1,0.1-4,0.1-6c1.7,1.2,3.5,3,5.5,6.3c0.1,0.2,0.2,0.5,0.2,0.7v0
				c0,0.2,0,0.5,0,0.7C152.4,39.8,152.4,40,152.3,40.3z M151.3,90.7L151.3,90.7c-0.6-1-1.2-1.4-1.9-1.5l0,0c0,0,0,0-0.1,0
				c-0.3,0-0.5,0.1-0.8,0.2c0,0-0.1,0.1-0.2,0.1c-0.2,0.1-0.4,0.3-0.6,0.4c-0.1,0.1-0.1,0.1-0.2,0.2c-0.1-0.2-0.2-0.3-0.3-0.5l0-0.1
				c0.1-1.3,0.4-2.4,0.9-3.1c0.6,0.1,1.3,0.5,2.2,1c0.4,0.3,0.7,0.6,0.9,0.8c0.2,0.3,0.3,0.6,0.4,0.9
				C151.5,89.6,151.4,90.2,151.3,90.7z M151.3,100.2L151.3,100.2c-0.2-0.1-0.5-0.2-0.7-0.3c-0.2-0.1-0.4-0.2-0.6-0.3
				c-0.4-0.3-0.9-0.5-1.3-0.8c0,0,0,0,0,0c-0.8-0.6-1.5-1.3-2.1-2c-0.1-0.1-0.2-0.3-0.4-0.4c-0.6-1.1-0.8-2.2-0.9-3.4
				c0.9,0.4,1.9,1,2.8,2c0,0,0.1,0.1,0.1,0.1c1,1.6,1.9,3.1,3.1,4.3c0.1,0.1,0.1,0.1,0.1,0.1c-0.1,0.2-0.1,0.3-0.1,0.5
				C151.3,100.1,151.3,100.1,151.3,100.2z M151.7,91.6L151.7,91.6c0.2-0.7,0.3-1.4,0.4-2.1c0.1,0,0.2,0,0.3,0c0.3,0.1,0.7,0.1,1,0.2
				c0.2,0,0.5,0.1,0.8,0.2c0.5,0.2,1,0.4,1.4,0.8c0.3,0.2,0.6,0.4,0.8,0.7c0,0.9,0,1.8-0.1,2.7c-0.1,1-0.2,2-0.4,3
				c-0.2,0.4-0.4,0.8-0.6,1.2c-0.5-0.3-0.9-0.4-1.4-0.5c-0.1,0-0.2-0.1-0.3-0.1c-0.1,0-0.2,0-0.2,0c-0.1,0-0.2,0-0.3,0
				c-0.3-0.8-0.6-1.7-0.9-2.5c-0.1-0.3-0.2-0.6-0.3-1c0-0.1,0-0.3-0.1-0.4C151.7,93.1,151.6,92.3,151.7,91.6z M152.1,96.3
				L152.1,96.3c0.2,0.5,0.4,1.1,0.6,1.6c0,0-0.1,0.1-0.1,0.1c-0.3,0.2-0.6,0.5-0.9,0.9l0,0c-0.5-0.5-0.9-1-1.3-1.6
				c-0.4-0.5-0.8-1.1-1.2-1.7c-0.2-0.4-0.5-0.7-0.7-1c0,0,0,0,0,0c-0.6-1.2-0.9-2.5-0.8-3.7v-0.3c0.3-0.3,0.5-0.6,0.7-0.7
				c0,0,0,0,0.1,0c0.2-0.1,0.5-0.2,0.7-0.2c0.3,0.1,0.9,0.4,1.5,1.4c0.2,1.1,0.4,2.2,0.6,3.3c0,0,0,0.1,0,0.1
				C151.7,95.1,151.9,95.7,152.1,96.3z M160.8,50.7L160.8,50.7c0.5,0,1.1,0.1,1.6,0.2c-0.2,0.3-0.3,0.5-0.5,0.8
				c-1,1.6-2.2,3.1-3.4,4.6c-0.7,0.4-1.4,0.7-2.1,1c-1.6,0.6-3.1,1.1-4.7,1.4c0-0.3,0-0.5,0-0.8c2.7-0.6,4.9-2.2,6.6-4.4
				c0.1-0.1,0.1-0.3-0.1-0.4c-0.1-0.1-0.3-0.1-0.4,0c-1.6,2.2-3.7,3.6-6.2,4.2c0-0.3,0-0.5,0-0.7c0.3-0.1,0.6-0.3,0.9-0.4
				c0,0,0,0,0.1-0.1c0.2-0.1,0.3-0.2,0.5-0.3c0.2-0.1,0.4-0.2,0.6-0.4c0.3-0.2,0.7-0.5,1-0.8c1.2-1,2.3-2.3,3.2-3.9
				C158.9,50.6,159.9,50.6,160.8,50.7z M163,51L163,51c0-0.1,0.1-0.1,0.1-0.2l0,0c2.6-3.5,5.3-5.8,8.1-6.3c0,0.3,0,0.6,0,0.8
				c-0.2,2.3-1.4,4.3-4,6.1c-1.9,1-3.5,1-5.2,1C162.3,52,162.7,51.5,163,51z M169.7,53.6L169.7,53.6c0.5,1.3,0.7,2.6,0.6,3.9
				c0,0.7-0.2,1.4-0.4,2.1c-0.6,0.6-1.2,1.2-1.8,1.8c-1.2,0.6-2.5,1.3-3.7,1.9c-0.5,0.3-1.1,0.5-1.6,0.8c0,0,0-0.1,0-0.1
				c0-0.1,0-0.2,0-0.2c0-0.1,0-0.2-0.1-0.3c0-0.4-0.1-0.8-0.2-1.2c0-0.2-0.1-0.3-0.1-0.4c0,0,0-0.1,0-0.1c0-0.3,0-0.6,0-0.9
				C162.7,56.1,164.6,53.4,169.7,53.6z M172.5,59.3L172.5,59.3L172.5,59.3c-0.3,3.3-2,6.1-3.8,9c-1.7-0.7-3.8-1-5.9-1.1h0
				c0-0.6,0-1.1,0-1.7c0-0.2,0-0.4,0-0.7c1.9-0.9,3.7-1.9,5.6-2.9l0.1,0c0.6-0.6,1.3-1.2,1.9-1.9C171.1,59.5,171.8,59.3,172.5,59.3z
				 M164.7,91.7L164.7,91.7C164.7,91.7,164.7,91.7,164.7,91.7c0.2,0,0.3-0.1,0.3-0.2c0-0.1-0.1-0.3-0.2-0.3c-3-0.6-5.6-1.3-6.2-1.8
				c-0.1-0.1-0.3-0.1-0.4,0c-0.1,0.1-0.1,0.3,0,0.4C159.1,90.4,161.6,91,164.7,91.7z M153.4,85.7L153.4,85.7c0,0.1,0.1,0.2,0.2,0.2
				c0,0,0.1,0,0.1,0c0.2,0,0.2-0.2,0.2-0.3l-1.2-4.3c-0.1-0.2-0.2-0.2-0.3-0.2c-0.2,0-0.2,0.2-0.2,0.3L153.4,85.7z M144.6,108.3
				L144.6,108.3c-0.2,0-0.3,0.1-0.3,0.3c0.1,1.4,1.5,2.8,1.5,3.9c0,0.1,0.1,0.2,0.3,0.2c0.2,0,0.3-0.1,0.3-0.2c0-1.5-1.4-2.9-1.5-4
				C144.8,108.4,144.7,108.3,144.6,108.3z M154.4,96.7L154.4,96.7c0.1,0,0.1,0,0.2,0c0.1-0.1,0.1-0.3,0-0.4c-0.7-1-1.1-1.9-1-2.8
				v-0.1c0-0.2,0-0.3-0.2-0.3c-0.2,0-0.3,0.1-0.3,0.2c0,0.1,0,0.1,0,0.1c-0.1,1.1,0.4,2.1,1.1,3.1C154.3,96.7,154.3,96.7,154.4,96.7
				z M158.7,97.4L158.7,97.4c0,0.1,0.1,0.1,0.2,0.2c0,0,0.1,0,0.1,0c1.8-0.9,3.6-1.7,4.4-2.9c0.1-0.1,0-0.3-0.1-0.4
				c-0.1-0.1-0.3,0-0.4,0.1c-0.6,0.9-2.3,1.9-4.2,2.7C158.6,97,158.6,97.2,158.7,97.4z M157.3,100.9L157.3,100.9
				c0,0.2,0.1,0.3,0.3,0.3c1.6,0.1,3.2,0.3,4.5,0.6h0.1c0.1,0,0.2-0.1,0.3-0.2c0-0.2,0-0.3-0.2-0.3c-1.4-0.4-3-0.5-4.6-0.6
				C157.4,100.7,157.3,100.8,157.3,100.9z M158.2,103.6L158.2,103.6c-0.1-0.1-0.3-0.1-0.4,0c-0.1,0.1-0.1,0.3,0,0.4
				c0.7,0.7,1.4,1.2,2.2,1.5c0,0,0.1,0,0.1,0c0.1,0,0.2-0.1,0.3-0.2c0-0.2,0-0.3-0.2-0.4C159.6,104.7,158.9,104.2,158.2,103.6z
				 M154.7,104.3L154.7,104.3c-0.1,0.1-0.2,0.2-0.1,0.4c0.5,1.1,0.9,2.2,0.8,2.9c0,0.2,0.1,0.3,0.3,0.3c0.1,0,0.3-0.1,0.3-0.3
				c0-0.9-0.4-2-0.9-3.2C155,104.3,154.9,104.2,154.7,104.3z M149.2,106.8c-0.1,0.1,0,0.3,0.1,0.4c0,0,0.1,0,0.1,0
				c0.1,0,0.2-0.1,0.3-0.2c0.4-0.9,1.2-1.9,2.6-3c0.1-0.1,0.1-0.3,0-0.4c-0.1-0.1-0.3-0.1-0.4,0
				C150.6,104.8,149.7,105.8,149.2,106.8z"/>
			<path class="st0" d="M108.5,122.5c0.8,1.1,1.2,2.6,1.2,4.1c0.6-0.2,1.2-0.3,1.8-0.3c0.8,0,1.5,0.1,2.3,0.4l1.8,0.7l-1.8,0.8
				c-2.5,1.1-4,2.6-5.2,5l0,0c1-0.6,2.3-0.9,3.5-0.9c1.2,0,2.3,0.3,3.2,1l0.8,0.6l-0.7,0.7c-0.5,0.5-0.7,0.9-0.8,1.6l-0.1,0.9
				l-0.9-0.3c-1.2-0.4-2.9-0.6-3.7,0.5c-0.7,1-0.9,2.7-0.9,3.9c0,0.2,0,0.3,0,0.5v0.3h-2.7v-0.3c0-0.2,0-0.3,0-0.5
				c0-1.2-0.2-2.9-0.9-3.9c-0.9-1.1-2.6-0.8-3.7-0.5l-0.9,0.3l-0.1-0.9c-0.1-0.7-0.3-1.2-0.8-1.6l-0.7-0.7l0.8-0.6
				c1-0.6,2.1-1,3.2-1c1.2,0,2.5,0.3,3.5,0.9l0,0c-1.3-2.4-2.7-3.9-5.2-5l-1.8-0.8l1.8-0.7c0.7-0.3,1.5-0.4,2.3-0.4
				c0.6,0,1.2,0.1,1.8,0.3c0-1.4,0.3-2.9,1.2-4.1l-5.5-7.9h12.8L108.5,122.5z"/>
			<path class="st1" d="M112.5,115.3l-4.9,7.1l-4.9-7.1H112.5z M103.1,132.9c1.3,0,2.7,0.5,3.6,1.2l0.9-0.9
				c-1.2-2.5-2.7-4.5-5.8-5.9c0.6-0.2,1.3-0.3,2-0.3c1,0,1.9,0.3,2.7,0.7c-0.3-1.7-0.1-3.9,1.2-5.2c1.3,1.3,1.5,3.5,1.2,5.2
				c0.7-0.4,1.6-0.7,2.6-0.7c0.7,0,1.4,0.1,2,0.3c-3.1,1.4-4.6,3.4-5.9,5.9l0.9,0.9c0.8-0.6,2.2-1.2,3.5-1.2c1.2,0,2.1,0.4,2.8,0.9
				c-0.6,0.5-0.9,1.1-1,2.1c-1.5-0.5-3.5-0.7-4.6,0.7c-0.6,0.8-1.1,2.3-1.1,4.4c0,0,0,0,0,0h-0.6H107c0,0,0,0,0,0
				c0-2.1-0.5-3.5-1.1-4.4c-1.1-1.4-3-1.2-4.6-0.7c-0.1-0.9-0.5-1.6-1-2.1C101,133.3,102,132.9,103.1,132.9z"/>
			<path class="st0" d="M139.3,125.6c0,0-5.2-0.5-9.2,2.7c-4,3.2-9.6-5.7-9.6-5.7c1.5-2,5.1-3.7,6.8-3.9
				C132.3,118.1,139.3,125.6,139.3,125.6"/>
			<path class="st0" d="M164.8,140.6c-6.1,1.1-12.4,1.4-18.6,1c-10.2-0.8-20.3-3.7-29.3-8.7c0-0.2,0-0.5,0-0.7
				c0-3.8,1.5-7.3,4.1-10.1c7.9,4.7,17.1,7.3,26.1,7.9c5.8,0.4,11.8,0.1,17.6-1.1l-5.7,6.8L164.8,140.6z"/>
			<path class="st1" d="M162.9,140.1c-5.5,0.9-11,1.1-16.6,0.7c-9.9-0.7-19.8-3.5-28.5-8.3c0-0.1,0-0.2,0-0.3c0-3.4,1.3-6.5,3.4-9
				c7.8,4.5,16.9,7,25.9,7.7c5.2,0.4,10.4,0.2,15.6-0.7l-4.8,5.7L162.9,140.1z"/>
			<path class="st0" d="M75.7,125.6c0,0,5.2-0.5,9.2,2.7c4,3.2,9.6-5.7,9.6-5.7c-1.5-2-5.1-3.7-6.8-3.9
				C82.8,118.1,75.7,125.6,75.7,125.6"/>
			<path class="st0" d="M50.3,140.6c6.1,1.1,12.4,1.4,18.6,1c10.2-0.8,20.3-3.7,29.3-8.7c0-0.2,0-0.5,0-0.7c0-3.8-1.5-7.3-4.1-10.1
				c-7.9,4.7-17,7.3-26.1,7.9c-5.8,0.4-11.8,0.1-17.7-1.1l5.7,6.8L50.3,140.6z"/>
			<path class="st1" d="M52.3,140.1c5.5,0.9,11,1.1,16.6,0.7c9.9-0.7,19.8-3.5,28.5-8.3c0-0.1,0-0.2,0-0.3c0-3.4-1.3-6.5-3.4-9
				c-7.8,4.5-16.9,7-25.8,7.7c-5.2,0.4-10.4,0.2-15.5-0.7l4.7,5.7L52.3,140.1z"/>
			<path class="st5" d="M76.2,77.6c-1.6-4.9-7.8-28.1-9.4-34.4c1-0.9,2.7-1.2,3.3-1.2C71.1,45.3,73.2,54.4,76.2,77.6"/>
			<path class="st5" d="M81.8,106.3c-1.6-4.9-7.7-27.7-9.3-33.9c0.9-0.9,2.6-1.2,3.2-1.2C76.7,74.5,78.8,83.5,81.8,106.3"/>
			<path class="st0" d="M64.7,67.1c2,9.8,5.1,22.8,4.4,47.2h76.7c-0.7-25.4,2.7-38.4,4.7-48.3c0.8-3.2,1.3-6.6,1.3-10
				c0-22.9-19.8-41.5-44.3-41.5C83,14.5,63.1,33.1,63.1,56C63.1,59.9,63.7,63.6,64.7,67.1"/>
			<g>
				<defs>
					<path id="SVGID_1_" d="M69.6,113.8h75.7c-0.3-9.9,0-19.8,1.2-29.6c0.4-3.4,1-6.8,1.7-10.2c0.5-2.7,1.1-5.4,1.8-8.1
						c0.8-3.3,1.3-6.6,1.3-9.9c0-6.9-1.8-13.6-5.3-19.5c-3.8-6.5-9.3-11.9-15.8-15.6c-6.9-4-14.8-6-22.8-6c-8,0-15.8,2-22.8,6
						c-6.5,3.7-12,9-15.8,15.6c-3.4,5.9-5.3,12.6-5.3,19.5c0,3.7,0.7,7.4,1.6,11c0.7,2.7,1.3,5.3,1.8,8c0.6,3.3,1.2,6.7,1.6,10.1
						C69.7,94.6,69.9,104.3,69.6,113.8"/>
				</defs>
				<clipPath id="SVGID_2_">
					<use xlink:href="#SVGID_1_"  style="overflow:visible;"/>
				</clipPath>
				
					<radialGradient id="SVGID_3_" cx="105.159" cy="53.6882" r="83.4811" fx="178.7308" fy="55.2184" gradientUnits="userSpaceOnUse">
					<stop  offset="0.2632" style="stop-color:#20BBE5"/>
					<stop  offset="0.6616" style="stop-color:#1D71B8"/>
				</radialGradient>
				<rect x="63.7" y="14.3" class="st6" width="87.4" height="99.7"/>
			</g>
			<g>
				<defs>
					<path id="SVGID_4_" d="M69.6,113.8h75.7c-0.3-9.9,0-19.8,1.2-29.6c0.4-3.4,1-6.8,1.7-10.2c0.5-2.7,1.1-5.4,1.8-8.1
						c0.8-3.3,1.3-6.6,1.3-9.9c0-6.9-1.8-13.6-5.3-19.5c-3.8-6.5-9.3-11.9-15.8-15.6c-6.9-4-14.8-6-22.8-6c-8,0-15.8,2-22.8,6
						c-6.5,3.7-12,9-15.8,15.6c-3.4,5.9-5.3,12.6-5.3,19.5c0,3.7,0.7,7.4,1.6,11c0.7,2.7,1.3,5.3,1.8,8c0.6,3.3,1.2,6.7,1.6,10.1
						C69.7,94.6,69.9,104.3,69.6,113.8"/>
				</defs>
				<clipPath id="SVGID_5_">
					<use xlink:href="#SVGID_4_"  style="overflow:visible;"/>
				</clipPath>
				<rect x="65.9" y="80.8" class="st7" width="84.9" height="37"/>
				<rect x="65.9" y="81.6" class="st8" width="84.9" height="37"/>
				<path class="st9" d="M78.7,92.7c0,0,0.1-0.4-0.6-1.1c0.7-0.3,1.8,0.7,1.8,0.7L79.9,91l1,1.2l1-2.4l0.8,2.2l1.3-1.5l0.7,1.5
					l1.6-0.8l-0.1,1.2"/>
				<path class="st9" d="M121.3,91.3c0,0,0.1-0.4-0.6-1.1c1-0.1,1.8,0.7,1.8,0.7l-0.1-1.3l1.1,1.2l1-2.4l0.8,2.2l1.3-1.5l0.7,1.6
					l1.5-0.8l-0.1,1.2"/>
				<path class="st10" d="M99.5,98.9c0,0,0-0.4-0.4-1.1c0.4-0.2,1.2,0.7,1.2,0.7l0-1.3l0.7,1.2l0.6-2.4l0.5,2.2l0.9-1.5l0.5,1.6
					l1-0.9l-0.1,1.2"/>
				<polyline class="st9" points="127.1,99.6 127,98.6 128.5,99.7 128.4,98.2 129.5,99.5 129.9,97.1 130.7,99.3 131.7,97.7 
					132.3,99.4 133.2,98.4 133.7,99.7 134.5,99 134.5,100 136.4,99.3 135.7,100.5 				"/>
				<path class="st11" d="M79.4,101.4c0,0,0-0.3-0.3-0.8c0.5-0.1,1,0.5,1,0.5l0-0.9l0.6,0.9l0.5-1.8l0.4,1.6l0.7-1.1l0.4,1.1
					l0.8-0.6l-0.1,0.9"/>
				<polyline class="st9" points="140.6,92.8 140.5,91.9 142,92.9 141.9,91.5 143,92.8 143.4,90.4 144.2,92.5 145.2,91 145.8,92.6 
					146.7,91.7 147.2,92.9 148,92.2 148,93.2 149.9,92.5 149.3,93.8 				"/>
			</g>
			<path class="st0" d="M107.9,32.4c0.6,0.7,1.6,1.1,2.6,1.1c1.9,0,3.4-1.4,3.4-3c0,0,0,0,0-0.1c-0.2,1.4-1.7,2.5-3.4,2.3
				c-1.1-0.1-2-0.6-2.6-1.3V32.4z"/>
			<path class="st0" d="M107.9,32.4c-0.6,0.7-1.6,1.1-2.6,1.1c-1.9,0-3.4-1.4-3.4-3c0,0,0,0,0-0.1c0.2,1.4,1.7,2.5,3.4,2.3
				c1.1-0.1,2-0.6,2.6-1.3V32.4z"/>
			<path class="st0" d="M107.2,38.3c-1,1.1-2.6,1.8-4.3,1.8c-3.1,0-5.5-2.2-5.5-5c0,0,0-0.1,0-0.1c0.4,2.3,2.7,4,5.5,3.8
				c1.7-0.1,3.3-0.9,4.3-2.1V38.3z"/>
			<path class="st0" d="M107.2,38.3c1,1.1,2.6,1.8,4.3,1.8c3.1,0,5.5-2.2,5.5-5c0,0,0-0.1,0-0.1c-0.4,2.3-2.7,4-5.5,3.8
				c-1.7-0.1-3.3-0.9-4.3-2.1V38.3z"/>
			<path class="st12" d="M109.3,79.9l0.2,18.7c0.2,1.9-3.9,1.9-4,0.1l0.2-18.9H109.3z"/>
			<path class="st0" d="M110.3,53.4c4.1,0.2,7.7,1.7,10.1,4c2.5,2.4,3.8,5.7,3.1,9.6c-0.8,3.9-3.6,7.5-7.6,9.8
				c-4,2.4-9,3.5-13.7,2.8c-4.7-0.7-8.1-2.9-9.9-5.9c-1.8-2.8-2.1-6.3-0.7-9.7c1.3-3.4,4-6.1,7.3-7.9
				C102.2,54.3,106.2,53.2,110.3,53.4 M110.5,46.7l2.4,0.1l-0.5-0.7l0.4-1.2l0.8-0.8l0.6,2.7v0c-0.1,0.9-0.2,1.8-0.4,2.7
				c1,0.1,2,0.3,2.9,0.5c0.9-0.8,1.7-1.6,2.6-2.4c0.5,0.2,0.9,0.3,1.4,0.5l0.4-1.3l1.1-0.7l0.6,2.7c-0.6,0.9-1.2,1.8-1.8,2.8
				c0.9,0.4,1.8,0.9,2.6,1.5c1.2-0.6,2.5-1.2,3.8-1.8c0.1,0.1,0.3,0.3,0.4,0.4l-0.1-0.6l1.8-0.2l0.6,2.7c-1.1,0.8-2.2,1.6-3.2,2.4
				c0.6,0.7,1.1,1.5,1.6,2.3c1.5-0.2,3.1-0.4,4.6-0.7l0.2,0.4l0.7,0.1l0.6,2.7l0,0v0c-1.5,0.5-3,1-4.5,1.4c0.2,1,0.3,2,0.3,3.1
				l3.4,0.6l-0.1-1.4l1.1-1l0.6,2.7c-0.2,1.3-0.3,2.5-0.5,3.8c-1.8,0-3.5,0-5.2,0c-0.3,1-0.7,2-1.3,3c0.6,0.4,1.3,0.7,1.9,1.1l0-1.2
				l1.8,0l0.6,2.7c-0.8,1.2-1.7,2.4-2.6,3.7c-1.7-0.6-3.3-1.2-4.9-1.8c-0.9,1-1.9,1.9-3,2.7l1,1.5l1.1-0.1l0.6,2.7
				c-1.4,0.9-2.9,1.8-4.3,2.7c-1.2-1.2-2.4-2.4-3.5-3.5c-1.2,0.6-2.4,1.1-3.7,1.5c0.1,1.5,0.3,3.1,0.4,4.7c-1.7,0.3-3.4,0.7-5.1,1
				c-0.5-1.5-0.9-3-1.4-4.5c-1.4,0.1-2.8,0.2-4.2,0.1c-0.6,1.5-1.2,2.9-1.9,4.4c-1.6-0.3-3.1-0.6-4.7-0.9l-0.6-2.7l1.1,0
				c0.1-0.6,0.2-1.2,0.4-1.8c-1.2-0.3-2.2-0.7-3.3-1.2c-1.1,1.1-2.3,2.3-3.5,3.4c-1.1-0.8-2.3-1.6-3.3-2.3L87,82.3l1.7,0.1l0.4,0.5
				c0.4-0.5,0.7-1.1,1.1-1.6c-0.8-0.7-1.6-1.5-2.2-2.3c-1.4,0.6-2.8,1.3-4.1,2c-0.6-1.1-1.1-2.1-1.6-3.1L81.6,75l1.6,0.5l0.7,1
				c0.7-0.5,1.3-1,2-1.4c-0.3-0.8-0.6-1.7-0.7-2.6c-1.4,0.2-2.7,0.3-4.1,0.5l-0.6-2.7l0.6-0.1c0-0.1,0-0.3,0-0.5
				c1.3-0.4,2.6-0.9,3.9-1.3c0.1-0.9,0.3-1.9,0.6-2.8c-1.1-0.2-2.3-0.5-3.4-0.7l-0.6-2.7l1.7,0.2l0.2-0.5c1.2,0,2.4,0,3.6-0.1
				c0.5-0.8,1-1.6,1.6-2.3c-0.8-0.6-1.6-1.1-2.4-1.6L85.9,55c2.7,0.2,3.5,0.3,6.1,1.1c0.8-0.7,1.6-1.3,2.5-1.9
				c-0.4-0.8-0.8-1.5-1.2-2.3l0,0l0,0l-0.6-2.7l1.8,0.6l0,1.4l1.9-1c0.7,0.6,1.4,1.2,2.1,1.8c0.9-0.4,1.8-0.8,2.8-1.1
				c0-0.9,0-1.8,0-2.6c1.2-0.3,2.4-0.6,3.6-0.9c0.3,0.8,0.6,1.6,0.9,2.4c1.1-0.2,2.1-0.3,3.2-0.3C109.6,48.5,110.1,47.6,110.5,46.7z
				"/>
			<path class="st1" d="M109.7,50.7c4.1,0.2,7.7,1.7,10.1,4c2.5,2.4,3.8,5.7,3.1,9.6c-0.8,3.9-3.6,7.5-7.5,9.8
				c-4,2.4-9,3.5-13.7,2.8c-4.7-0.7-8.1-2.9-9.9-5.9c-1.8-2.8-2.1-6.3-0.7-9.7c1.4-3.4,4.1-6.1,7.4-7.9
				C101.7,51.6,105.6,50.5,109.7,50.7 M109.9,44c1.2,0,2.5,0.1,3.7,0.1c-0.1,0.9-0.2,1.8-0.4,2.7c1,0.1,2,0.3,2.9,0.5
				c0.9-0.8,1.7-1.6,2.6-2.4c1.2,0.4,2.3,0.8,3.5,1.1c-0.6,0.9-1.2,1.8-1.8,2.8c0.9,0.4,1.8,0.9,2.6,1.5c1.3-0.6,2.5-1.2,3.8-1.7
				c0.9,0.7,1.8,1.5,2.7,2.3c-1.1,0.8-2.2,1.6-3.2,2.4c0.6,0.7,1.2,1.4,1.6,2.2c1.5-0.2,3.1-0.4,4.6-0.6c0.5,1,0.9,2.1,1.4,3.2
				c-1.5,0.5-3,1-4.5,1.4c0.2,1,0.4,2,0.4,3.1c1.6,0.3,3.3,0.6,4.9,0.9c-0.1,1.3-0.3,2.5-0.4,3.8c-1.8,0-3.5,0-5.2,0
				c-0.3,1-0.7,2-1.3,3c1.4,0.8,2.9,1.7,4.3,2.6c-0.8,1.2-1.7,2.5-2.5,3.7c-1.7-0.6-3.3-1.2-4.9-1.8c-0.9,1-1.9,1.9-3,2.7
				c0.9,1.3,1.7,2.6,2.6,4c-1.4,0.9-2.9,1.8-4.3,2.6c-1.2-1.2-2.4-2.4-3.5-3.5c-1.2,0.6-2.4,1.1-3.8,1.5c0.1,1.5,0.3,3.1,0.4,4.7
				c-1.7,0.3-3.4,0.6-5.1,1c-0.5-1.5-1-3-1.4-4.5c-1.4,0.1-2.8,0.2-4.1,0.1c-0.6,1.5-1.2,3-1.9,4.5c-1.6-0.3-3.1-0.6-4.7-0.9
				c0.3-1.5,0.6-3,0.9-4.5c-1.2-0.3-2.2-0.8-3.2-1.2c-1.2,1.1-2.3,2.2-3.5,3.4c-1.1-0.8-2.3-1.6-3.4-2.3c0.9-1.3,1.7-2.6,2.6-3.8
				c-0.8-0.7-1.5-1.5-2.2-2.3c-1.4,0.7-2.8,1.3-4.1,1.9c-0.6-1-1.1-2.1-1.6-3.1c1.2-0.9,2.4-1.7,3.7-2.6c-0.3-0.8-0.6-1.7-0.7-2.6
				c-1.4,0.2-2.7,0.4-4.1,0.5c0-1.1,0-2.2,0-3.3c1.3-0.4,2.6-0.9,3.9-1.3c0.1-0.9,0.3-1.9,0.6-2.8c-1.1-0.2-2.3-0.5-3.4-0.7
				c0.5-1,1-2,1.4-3.1c1.2,0,2.4-0.1,3.7-0.1c0.5-0.8,1-1.6,1.6-2.3c-0.8-0.5-1.6-1.1-2.4-1.6c0.8-0.8,1.7-1.7,2.5-2.5
				c1,0.3,2,0.6,3,1c0.8-0.7,1.6-1.3,2.5-1.9c-0.4-0.8-0.8-1.5-1.2-2.3c1.1-0.6,2.1-1.2,3.2-1.8c0.7,0.6,1.4,1.2,2.1,1.8
				c0.9-0.4,1.9-0.8,2.8-1.1c0-0.9,0-1.8,0-2.6c1.2-0.3,2.4-0.6,3.6-0.9c0.3,0.8,0.7,1.6,1,2.4c1.1-0.2,2.2-0.3,3.2-0.3
				C109.1,45.8,109.5,44.9,109.9,44z"/>
			<path class="st12" d="M106.1,30h2.6l0.5,46.7c-1.2,0.2-2.4,0.4-3.6,0.4L106.1,30z"/>
			<path class="st0" d="M113.7,29.2L113.7,29.2c0.2-0.5,0.5-0.9,0.9-0.9c0.3,0,0.6,0.3,0.8,0.7c0.1-0.2,0.4-0.4,0.6-0.4
				c0.3,0,0.6,0.2,0.7,0.6c0.1-0.1,0.3-0.2,0.5-0.2c0.2,0,0.3,0.1,0.4,0.2c0.2-0.2,0.4-0.4,0.6-0.4c0.5,0,0.9,0.5,0.9,1.2
				c0,0.1,0,0.1,0,0.2c0.2,0.2,0.4,0.5,0.4,0.9c0.2,0.2,0.4,0.6,0.4,1c0,0.5-0.3,1-0.6,1.1c0,0.6-0.4,1.1-0.9,1.1
				c-0.1,0-0.1,0-0.2,0c-0.2,0.3-0.4,0.5-0.7,0.5c-0.1,0-0.3,0-0.4-0.1c-0.1,0.4-0.4,0.7-0.8,0.7c-0.3,0-0.5-0.2-0.7-0.4
				c-0.2,0.2-0.4,0.4-0.7,0.4c-0.2,0-0.5-0.1-0.6-0.3c-0.2,0.2-0.4,0.4-0.7,0.4c-0.3,0-0.5-0.2-0.6-0.4c-0.1,0.1-0.3,0.1-0.4,0.1
				c-0.2,0-0.3-0.1-0.5-0.2c-0.2,0.2-0.3,0.3-0.5,0.3c-0.4,0-0.8-0.4-0.9-1c-0.1-0.1-0.2-0.2-0.2-0.3c-0.1,0-0.2,0.1-0.3,0.1
				c-0.5,0-0.8-0.6-0.8-1.2c0-0.2,0-0.4,0.1-0.5c-0.2-0.2-0.4-0.6-0.4-1c0-0.6,0.4-1.2,0.8-1.2c0,0,0.1,0,0.1,0c0.1-0.5,0.4-1,0.9-1
				c0.1,0,0.1,0,0.2,0c0.1-0.4,0.4-0.6,0.8-0.6c0.3,0,0.5,0.2,0.7,0.4c0.1-0.1,0.2-0.1,0.4-0.1C113.4,28.9,113.6,29,113.7,29.2"/>
			<path class="st0" d="M99.7,29.5L99.7,29.5c0.2-0.5,0.5-0.9,0.9-0.9c0.3,0,0.6,0.3,0.8,0.6c0.2-0.2,0.4-0.4,0.6-0.4
				c0.3,0,0.6,0.2,0.8,0.5c0.1-0.1,0.3-0.2,0.5-0.2c0.2,0,0.3,0,0.4,0.1c0.2-0.2,0.4-0.3,0.6-0.3c0.5,0,0.8,0.5,0.8,1.1
				c0,0.1,0,0.1,0,0.2c0.2,0.2,0.4,0.5,0.4,0.9c0.2,0.2,0.4,0.5,0.4,0.9c0,0.5-0.3,0.9-0.6,1c0,0.5-0.4,1-0.8,1c-0.1,0-0.1,0-0.2,0
				c-0.2,0.3-0.4,0.5-0.7,0.5c-0.1,0-0.2,0-0.3-0.1c-0.1,0.4-0.4,0.6-0.8,0.6c-0.3,0-0.5-0.2-0.7-0.4c-0.1,0.2-0.4,0.4-0.7,0.4
				c-0.2,0-0.5-0.1-0.6-0.3c-0.2,0.2-0.4,0.4-0.7,0.4c-0.2,0-0.5-0.1-0.6-0.4c-0.1,0.1-0.2,0.1-0.4,0.1c-0.2,0-0.3-0.1-0.5-0.2
				C98.2,34.9,98,35,97.8,35c-0.4,0-0.8-0.4-0.8-0.9c-0.1-0.1-0.2-0.2-0.2-0.3c-0.1,0-0.2,0.1-0.3,0.1c-0.5,0-0.9-0.5-0.9-1.1
				c0-0.2,0.1-0.4,0.1-0.5c-0.2-0.2-0.4-0.5-0.4-0.9c0-0.6,0.4-1.1,0.9-1.1c0,0,0.1,0,0.2,0c0.1-0.5,0.4-0.9,0.8-0.9
				c0.1,0,0.2,0,0.2,0c0.1-0.4,0.4-0.6,0.7-0.6c0.3,0,0.5,0.2,0.7,0.4c0.1-0.1,0.2-0.1,0.4-0.1C99.4,29.2,99.5,29.3,99.7,29.5"/>
			<path class="st13" d="M105.7,21.8l0.1,0c0.1-0.8,0.7-1.4,1.3-1.4c0.6,0,1,0.4,1.2,1c0.3-0.4,0.6-0.6,1-0.6c0.5,0,1,0.4,1.2,0.9
				c0.2-0.2,0.5-0.3,0.8-0.3c0.2,0,0.5,0.1,0.7,0.2c0.2-0.3,0.6-0.5,1-0.5c0.8,0,1.4,0.8,1.4,1.7c0,0.1,0,0.2,0,0.3
				c0.4,0.3,0.6,0.8,0.7,1.4c0.4,0.3,0.6,0.8,0.6,1.4c0,0.8-0.4,1.4-0.9,1.6c-0.1,0.9-0.7,1.5-1.4,1.5c-0.1,0-0.2,0-0.2,0
				c-0.2,0.5-0.7,0.8-1.2,0.8c-0.2,0-0.4,0-0.5-0.1c-0.2,0.6-0.7,1-1.3,1c-0.4,0-0.8-0.2-1-0.6c-0.3,0.4-0.6,0.6-1.1,0.6
				c-0.4,0-0.7-0.2-1-0.5c-0.2,0.4-0.6,0.6-1,0.6c-0.4,0-0.8-0.2-1-0.6c-0.2,0.1-0.4,0.2-0.6,0.2c-0.3,0-0.5-0.1-0.8-0.3
				c-0.2,0.3-0.5,0.4-0.9,0.4c-0.7,0-1.2-0.6-1.4-1.4c-0.1-0.1-0.3-0.3-0.4-0.4c-0.2,0.1-0.3,0.1-0.5,0.1c-0.8,0-1.4-0.8-1.4-1.7
				c0-0.3,0.1-0.6,0.2-0.8c-0.4-0.3-0.6-0.8-0.6-1.4c0-0.9,0.6-1.7,1.4-1.7c0.1,0,0.1,0,0.2,0c0.1-0.8,0.7-1.4,1.3-1.4
				c0.1,0,0.2,0,0.4,0c0.2-0.5,0.7-0.9,1.2-0.9c0.4,0,0.8,0.3,1.1,0.6c0.2-0.1,0.4-0.1,0.6-0.1C105.2,21.4,105.5,21.6,105.7,21.8"/>
			<path class="st14" d="M105.9,22.3l0.1,0c0.1-0.6,0.6-1.1,1.2-1.1c0.5,0,0.9,0.3,1.1,0.8c0.2-0.3,0.5-0.5,0.9-0.5
				c0.5,0,0.9,0.3,1.1,0.7c0.2-0.2,0.4-0.2,0.7-0.2c0.2,0,0.4,0.1,0.6,0.2c0.2-0.3,0.5-0.4,0.9-0.4c0.7,0,1.2,0.6,1.2,1.3
				c0,0.1,0,0.2,0,0.2c0.3,0.2,0.5,0.6,0.6,1.1c0.3,0.2,0.5,0.7,0.5,1.1c0,0.6-0.3,1.1-0.8,1.3c-0.1,0.7-0.6,1.2-1.2,1.2
				c-0.1,0-0.2,0-0.2,0c-0.2,0.4-0.6,0.6-1,0.6c-0.1,0-0.3,0-0.5-0.1c-0.2,0.5-0.6,0.8-1.1,0.8c-0.4,0-0.7-0.2-0.9-0.5
				c-0.2,0.3-0.6,0.5-0.9,0.5c-0.3,0-0.7-0.2-0.9-0.4c-0.2,0.3-0.6,0.5-0.9,0.5c-0.4,0-0.7-0.2-0.9-0.4c-0.2,0.1-0.4,0.2-0.6,0.2
				c-0.2,0-0.5-0.1-0.7-0.2c-0.2,0.2-0.5,0.3-0.8,0.3c-0.6,0-1.1-0.5-1.2-1.1c-0.1-0.1-0.2-0.2-0.3-0.3c-0.1,0.1-0.3,0.1-0.4,0.1
				c-0.7,0-1.2-0.6-1.2-1.3c0-0.2,0.1-0.5,0.2-0.6c-0.3-0.2-0.6-0.6-0.6-1.1c0-0.7,0.5-1.3,1.2-1.3c0.1,0,0.1,0,0.2,0
				c0.1-0.6,0.6-1.1,1.2-1.1c0.1,0,0.2,0,0.3,0c0.2-0.4,0.6-0.7,1.1-0.7c0.4,0,0.7,0.2,1,0.5c0.2-0.1,0.3-0.1,0.5-0.1
				C105.4,22,105.7,22.1,105.9,22.3"/>
			<path class="st15" d="M106,22.7L106,22.7c0.2-0.6,0.7-1.1,1.2-1.1c0.5,0,0.9,0.3,1.1,0.8c0.2-0.3,0.5-0.4,0.9-0.4
				c0.4,0,0.8,0.3,1,0.7c0.2-0.1,0.4-0.2,0.7-0.2c0.2,0,0.4,0.1,0.6,0.2c0.2-0.3,0.5-0.4,0.8-0.4c0.6,0,1.2,0.6,1.2,1.3
				c0,0.1,0,0.2,0,0.2c0.3,0.2,0.5,0.6,0.6,1.1c0.3,0.2,0.5,0.7,0.5,1.1c0,0.1,0,0.2,0,0.3c-0.1-0.4-0.3-0.7-0.5-0.9
				c0-0.5-0.2-0.9-0.6-1.1c0-0.1,0-0.2,0-0.2c0-0.7-0.5-1.3-1.2-1.3c-0.3,0-0.6,0.2-0.8,0.4c-0.2-0.1-0.4-0.2-0.6-0.2
				c-0.2,0-0.5,0.1-0.7,0.2c-0.2-0.4-0.6-0.7-1-0.7c-0.4,0-0.7,0.2-0.9,0.5c-0.2-0.5-0.6-0.8-1.1-0.8c-0.5,0-1,0.5-1.1,1.1l-0.1,0
				c-0.2-0.2-0.5-0.3-0.8-0.3c-0.2,0-0.3,0-0.5,0.1c-0.2-0.3-0.5-0.5-0.9-0.5c-0.5,0-0.9,0.3-1.1,0.7c-0.1,0-0.2,0-0.3,0
				c-0.6,0-1.1,0.5-1.2,1.1c0,0-0.1,0-0.2,0c-0.6,0-1,0.4-1.1,1.1c0-0.1,0-0.2,0-0.3c0-0.7,0.5-1.3,1.2-1.3c0.1,0,0.1,0,0.2,0
				c0.1-0.6,0.6-1.1,1.2-1.1c0.1,0,0.2,0,0.3,0c0.2-0.5,0.6-0.7,1.1-0.7c0.4,0,0.7,0.2,0.9,0.5c0.2-0.1,0.3-0.1,0.5-0.1
				C105.6,22.4,105.8,22.5,106,22.7"/>
			<path class="st0" d="M117.5,35.1L117.5,35.1c-0.2-0.5-0.5-0.9-0.9-0.9c-0.3,0-0.6,0.3-0.8,0.6c-0.2-0.2-0.4-0.4-0.6-0.4
				c-0.3,0-0.6,0.2-0.8,0.6c-0.1-0.1-0.3-0.2-0.5-0.2c-0.2,0-0.3,0-0.4,0.1c-0.2-0.2-0.4-0.3-0.6-0.3c-0.5,0-0.8,0.5-0.8,1.1
				c0,0.1,0,0.1,0,0.2c-0.2,0.2-0.4,0.5-0.4,0.9c-0.2,0.2-0.4,0.5-0.4,0.9c0,0.5,0.2,0.9,0.6,1c0,0.5,0.4,1,0.9,1c0,0,0.1,0,0.1,0
				c0.2,0.3,0.4,0.5,0.7,0.5c0.1,0,0.2,0,0.4-0.1c0.1,0.4,0.4,0.6,0.8,0.6c0.3,0,0.5-0.2,0.7-0.4c0.2,0.2,0.4,0.4,0.7,0.4
				c0.2,0,0.5-0.1,0.6-0.3c0.2,0.2,0.4,0.4,0.7,0.4c0.2,0,0.5-0.1,0.6-0.3c0.1,0.1,0.2,0.1,0.4,0.1c0.2,0,0.3-0.1,0.5-0.2
				c0.2,0.2,0.3,0.3,0.5,0.3c0.4,0,0.8-0.4,0.9-0.9c0.1-0.1,0.2-0.2,0.2-0.3c0.1,0,0.2,0.1,0.3,0.1c0.5,0,0.8-0.5,0.8-1.1
				c0-0.2,0-0.4-0.1-0.5c0.2-0.2,0.4-0.5,0.4-0.9c0-0.6-0.4-1.1-0.8-1.1c0,0-0.1,0-0.1,0c-0.1-0.5-0.4-0.9-0.8-0.9
				c-0.1,0-0.1,0-0.2,0c-0.2-0.4-0.4-0.6-0.8-0.6c-0.3,0-0.5,0.2-0.7,0.4c-0.1-0.1-0.2-0.1-0.3-0.1C117.9,34.9,117.7,35,117.5,35.1"
				/>
			<path class="st0" d="M96.9,35.1L96.9,35.1c0.2-0.5,0.5-0.9,0.9-0.9c0.3,0,0.6,0.3,0.8,0.6c0.1-0.2,0.4-0.4,0.6-0.4
				c0.3,0,0.6,0.2,0.7,0.6c0.1-0.1,0.3-0.2,0.5-0.2c0.2,0,0.3,0,0.4,0.1c0.2-0.2,0.4-0.3,0.6-0.3c0.5,0,0.9,0.5,0.9,1.1
				c0,0.1,0,0.1,0,0.2c0.2,0.2,0.4,0.5,0.4,0.9c0.2,0.2,0.4,0.5,0.4,0.9c0,0.5-0.2,0.9-0.6,1c-0.1,0.5-0.4,1-0.9,1
				c-0.1,0-0.1,0-0.2,0c-0.1,0.3-0.4,0.5-0.7,0.5c-0.1,0-0.2,0-0.3-0.1c-0.1,0.4-0.4,0.6-0.8,0.6c-0.3,0-0.5-0.2-0.7-0.4
				c-0.2,0.2-0.4,0.4-0.7,0.4c-0.2,0-0.5-0.1-0.6-0.3c-0.2,0.2-0.4,0.4-0.7,0.4c-0.3,0-0.5-0.1-0.6-0.3c-0.1,0.1-0.3,0.1-0.4,0.1
				c-0.2,0-0.4-0.1-0.5-0.2c-0.1,0.2-0.3,0.3-0.5,0.3c-0.4,0-0.8-0.4-0.9-0.9c-0.1-0.1-0.2-0.2-0.2-0.3c-0.1,0-0.2,0.1-0.3,0.1
				c-0.5,0-0.9-0.5-0.9-1.1c0-0.2,0-0.4,0.1-0.5c-0.2-0.2-0.4-0.5-0.4-0.9c0-0.6,0.4-1.1,0.9-1.1c0,0,0.1,0,0.1,0
				c0.1-0.5,0.4-0.9,0.8-0.9c0.1,0,0.1,0,0.2,0c0.1-0.4,0.4-0.6,0.8-0.6c0.3,0,0.5,0.2,0.7,0.4c0.1-0.1,0.2-0.1,0.4-0.1
				C96.5,34.9,96.7,35,96.9,35.1"/>
			<path class="st12" d="M107.8,34.9c1.2,1.4,3.1,2.3,5.2,2.3c3.7,0,6.8-2.7,6.8-6.1c0-0.1,0-0.1,0-0.2c-0.5,2.9-3.4,4.9-6.8,4.7
				c-2.1-0.1-4-1.1-5.2-2.6V34.9z"/>
			<path class="st12" d="M107.8,34.9c-1.2,1.4-3.1,2.3-5.3,2.3c-3.7,0-6.8-2.7-6.8-6.1c0-0.1,0-0.1,0-0.2c0.5,2.9,3.3,4.9,6.7,4.7
				c2.1-0.1,4.1-1.1,5.3-2.6V34.9z"/>
			<path class="st12" d="M107.9,41.4c-2,1.4-5,2.3-8.4,2.3c-6,0-10.8-2.7-10.8-6.1c0-0.1,0-0.1,0-0.1c0.8,2.9,5.3,4.9,10.8,4.7
				c3.4-0.1,6.4-1.1,8.4-2.6V41.4z"/>
			<path class="st12" d="M107.9,41.4c1.9,1.4,4.8,2.3,8,2.3c5.7,0,10.3-2.7,10.3-6.1c0-0.1,0-0.1,0-0.1c-0.8,2.9-5.1,4.9-10.2,4.7
				c-3.2-0.1-6.1-1.1-8-2.6V41.4z"/>
			<path class="st13" d="M119.6,39.4L119.6,39.4c-0.1,0.2-0.1,0.4-0.1,0.5c0,0.4,0.1,0.9,0.4,1.1c0,0.1,0,0.2,0,0.4
				c0,0.9,0.6,1.6,1.4,1.6c0.3,0,0.5-0.1,0.7-0.3c0.2,0.3,0.6,0.5,1,0.5c0.2,0.5,0.7,0.9,1.2,0.9c0.5,0,0.9-0.3,1.1-0.8
				c0.2,0.2,0.5,0.3,0.8,0.3c0.3,0,0.6-0.1,0.8-0.3c0.2,0.5,0.7,0.9,1.2,0.9c0.2,0,0.4-0.1,0.6-0.2c0.2,0.2,0.5,0.3,0.8,0.3
				c0.6,0,1-0.4,1.3-0.9c0.2,0.1,0.3,0.1,0.5,0.1c0.2,0,0.3,0,0.5-0.1c0.2,0.2,0.6,0.4,0.9,0.4c0.7,0,1.2-0.6,1.3-1.3
				c0.1,0,0.2,0,0.3,0c0.6,0,1.1-0.5,1.3-1.1c0.5-0.1,1-0.5,1.1-1.1l0,0c0.7-0.1,1.2-0.8,1.2-1.6c0-0.9-0.6-1.6-1.4-1.6
				c0,0-0.1,0-0.1,0c-0.1,0-0.1-0.1-0.2-0.2c-0.2-0.6-0.7-1-1.3-1c-0.2-0.6-0.7-1-1.3-1c-0.2,0-0.5,0.1-0.7,0.2
				c-0.2-0.1-0.4-0.2-0.7-0.2c-0.1,0-0.2,0-0.3,0c0,0-0.1,0-0.1,0c-0.2-0.6-0.7-1.1-1.3-1.1c-0.4,0-0.8,0.2-1,0.6
				c-0.1,0-0.1,0-0.2,0c-0.1,0-0.2,0-0.3,0c-0.2-0.4-0.6-0.6-1-0.6c-0.4,0-0.7,0.2-0.9,0.4c-0.2-0.5-0.7-0.8-1.2-0.8
				c-0.4,0-0.8,0.2-1,0.6c-0.2-0.1-0.3-0.1-0.5-0.1c-0.5,0-1,0.3-1.2,0.8c-0.2-0.1-0.4-0.2-0.7-0.2c-0.5,0-0.9,0.3-1.2,0.8
				c-0.7,0-1.2,0.6-1.3,1.3c-0.6,0.1-1.1,0.8-1.1,1.5C119.2,38.7,119.4,39.1,119.6,39.4"/>
			<path class="st13" d="M120.1,35.6c-0.1,0-0.1,0-0.2,0.1c-0.2,0.6-0.7,1.1-1.4,1.1c-0.6,0-1.2-0.4-1.4-1c-0.2,0.1-0.4,0.2-0.7,0.2
				c-0.1,0-0.1,0-0.2,0c-0.3,0.3-0.6,0.5-1,0.5c-0.6,0-1.2-0.4-1.4-1.1c0,0-0.1,0-0.1,0c-0.4,0-0.7-0.2-1-0.4
				c-0.2,0.2-0.5,0.2-0.8,0.2c-0.8,0-1.5-0.7-1.5-1.7c0-0.2,0-0.3,0.1-0.5c-0.5-0.2-0.9-0.8-0.9-1.5c0-0.6,0.3-1.1,0.7-1.4
				c0.2-0.7,0.8-1.1,1.4-1.1c0.1,0,0.2,0,0.3,0c0.2-0.6,0.7-1,1.4-1c0.3-0.4,0.7-0.7,1.2-0.7c0.1,0,0.3,0,0.4,0c0.2-0.6,0.8-1,1.4-1
				c0.2,0,0.4,0,0.6,0.2c0.1-0.1,0.3-0.1,0.4-0.1c0.5,0,0.9,0.3,1.2,0.6c0.2-0.5,0.7-0.8,1.3-0.8c0.5,0,1,0.3,1.3,0.8
				c0.3-0.3,0.6-0.5,1-0.5c0.7,0,1.4,0.6,1.5,1.4c0.1,0,0.3-0.1,0.4-0.1c0.4,0,0.8,0.2,1.1,0.5c0.2-0.2,0.5-0.3,0.8-0.3
				c0.8,0,1.5,0.7,1.5,1.7c0,0.2-0.1,0.4-0.1,0.6c0.3,0.3,0.5,0.7,0.5,1.3c0,0.8-0.5,1.4-1.1,1.6c-0.2,0.7-0.7,1.3-1.4,1.3
				c-0.3,0-0.6-0.1-0.8-0.2c-0.3,0.4-0.7,0.6-1.2,0.6c-0.1,0-0.3,0-0.4-0.1c-0.2,0.7-0.8,1.2-1.4,1.2
				C120.8,36.3,120.4,36,120.1,35.6"/>
			<path class="st13" d="M94.7,35.6c0.1,0,0.1,0.1,0.2,0.1c0.2,0.6,0.8,1,1.4,1c0.6,0,1.1-0.4,1.4-1c0.2,0.1,0.4,0.2,0.6,0.2
				c0,0,0.1,0,0.2,0c0.2,0.3,0.6,0.5,1,0.5c0.6,0,1.1-0.4,1.4-1c0,0,0.1,0,0.1,0c0.4,0,0.7-0.2,1-0.4c0.2,0.2,0.5,0.3,0.8,0.3
				c0.8,0,1.4-0.7,1.4-1.6c0-0.2,0-0.3,0-0.5c0.5-0.2,0.9-0.8,0.9-1.5c0-0.6-0.3-1.1-0.7-1.4c-0.2-0.6-0.7-1.1-1.4-1.1
				c-0.1,0-0.2,0-0.3,0.1c-0.2-0.6-0.7-1-1.3-1c-0.3-0.4-0.7-0.6-1.2-0.6c-0.1,0-0.2,0-0.3,0c-0.2-0.6-0.7-1-1.3-1
				c-0.2,0-0.4,0.1-0.6,0.2c-0.1,0-0.3-0.1-0.4-0.1c-0.5,0-0.9,0.2-1.1,0.6c-0.2-0.5-0.7-0.8-1.3-0.8c-0.5,0-1,0.3-1.3,0.8
				c-0.3-0.3-0.6-0.4-1-0.4c-0.7,0-1.3,0.6-1.4,1.4c-0.1,0-0.2-0.1-0.4-0.1c-0.4,0-0.8,0.2-1.1,0.5c-0.2-0.2-0.5-0.2-0.8-0.2
				c-0.8,0-1.5,0.7-1.5,1.6c0,0.2,0,0.4,0.1,0.6c-0.3,0.3-0.5,0.8-0.5,1.3c0,0.8,0.5,1.4,1.1,1.6c0.1,0.7,0.7,1.2,1.4,1.2
				c0.3,0,0.6-0.1,0.8-0.2c0.3,0.4,0.7,0.6,1.2,0.6c0.2,0,0.3,0,0.4-0.1c0.2,0.7,0.7,1.2,1.4,1.2C94,36.2,94.5,36,94.7,35.6"/>
			<path class="st14" d="M119.9,34.7c0,0-0.1,0-0.2,0c-0.2,0.5-0.6,0.9-1.1,0.9c-0.5,0-0.9-0.3-1.1-0.8c-0.2,0.1-0.4,0.1-0.5,0.1
				c0,0-0.1,0-0.1,0c-0.2,0.2-0.5,0.4-0.9,0.4c-0.5,0-1-0.4-1.1-0.8c-0.1,0-0.1,0-0.1,0c-0.3,0-0.6-0.1-0.8-0.3
				c-0.2,0.1-0.4,0.2-0.6,0.2c-0.7,0-1.2-0.6-1.2-1.4c0-0.1,0-0.2,0-0.4c-0.4-0.2-0.7-0.7-0.7-1.2c0-0.5,0.2-0.9,0.5-1.1
				c0.2-0.5,0.6-0.9,1.1-0.9c0.1,0,0.2,0,0.3,0c0.2-0.5,0.6-0.8,1.1-0.8c0.2-0.3,0.6-0.5,1-0.5c0.1,0,0.2,0,0.3,0
				c0.2-0.5,0.6-0.8,1.1-0.8c0.2,0,0.4,0,0.5,0.1c0.1,0,0.2,0,0.3,0c0.4,0,0.8,0.2,1,0.5c0.2-0.4,0.6-0.7,1.1-0.7
				c0.4,0,0.8,0.3,1,0.7c0.2-0.2,0.5-0.4,0.8-0.4c0.6,0,1.1,0.5,1.2,1.1c0.1,0,0.2-0.1,0.3-0.1c0.3,0,0.7,0.2,0.9,0.4
				c0.2-0.1,0.4-0.2,0.6-0.2c0.7,0,1.2,0.6,1.2,1.3c0,0.2,0,0.4-0.1,0.5c0.3,0.3,0.4,0.6,0.4,1c0,0.6-0.4,1.2-0.9,1.3
				c-0.1,0.6-0.6,1-1.2,1c-0.2,0-0.4-0.1-0.6-0.2c-0.2,0.3-0.6,0.5-0.9,0.5c-0.1,0-0.3,0-0.4-0.1c-0.1,0.6-0.6,1-1.2,1
				C120.4,35.3,120.1,35.1,119.9,34.7"/>
			<path class="st14" d="M120.6,39.1L120.6,39.1c0,0.2,0,0.3,0,0.5c0,0.4,0.1,0.7,0.4,1c0,0.1,0,0.2,0,0.3c0,0.7,0.6,1.3,1.2,1.3
				c0.2,0,0.5-0.1,0.7-0.2c0.2,0.3,0.5,0.4,0.9,0.5c0.2,0.5,0.6,0.8,1.1,0.8c0.5,0,0.8-0.2,1-0.6c0.2,0.1,0.4,0.2,0.7,0.2
				c0.3,0,0.5-0.1,0.7-0.3c0.2,0.4,0.6,0.7,1.1,0.7c0.2,0,0.4-0.1,0.6-0.1c0.2,0.2,0.5,0.3,0.8,0.3c0.5,0,0.9-0.3,1.1-0.8
				c0.1,0.1,0.3,0.1,0.5,0.1c0.2,0,0.3,0,0.5-0.1c0.2,0.2,0.5,0.3,0.8,0.3c0.6,0,1.1-0.5,1.2-1.1c0.1,0,0.2,0,0.3,0
				c0.5,0,1-0.4,1.2-0.9c0.5-0.1,0.8-0.5,1-0.9l0,0c0.6-0.1,1.1-0.6,1.1-1.3c0-0.7-0.5-1.3-1.2-1.3c0,0-0.1,0-0.1,0
				c-0.1,0-0.1-0.1-0.1-0.1c-0.2-0.5-0.6-0.9-1.1-0.9c-0.2-0.5-0.6-0.8-1.1-0.8c-0.2,0-0.4,0.1-0.6,0.2c-0.2-0.1-0.4-0.2-0.6-0.2
				c-0.1,0-0.2,0-0.2,0c0,0-0.1,0-0.1,0c-0.2-0.5-0.6-0.9-1.2-0.9c-0.4,0-0.7,0.2-0.9,0.5c-0.1,0-0.1,0-0.2,0c-0.1,0-0.2,0-0.2,0
				c-0.2-0.3-0.6-0.5-0.9-0.5c-0.3,0-0.6,0.1-0.8,0.3c-0.2-0.4-0.6-0.7-1.1-0.7c-0.4,0-0.7,0.2-0.9,0.5c-0.1-0.1-0.3-0.1-0.4-0.1
				c-0.5,0-0.9,0.3-1.1,0.7c-0.2-0.1-0.4-0.2-0.6-0.2c-0.5,0-0.9,0.3-1.1,0.7c-0.6,0-1.1,0.5-1.2,1.1c-0.6,0.1-1,0.7-1,1.3
				C120.3,38.5,120.4,38.8,120.6,39.1"/>
			<path class="st14" d="M94.3,34.7c0.1,0,0.1,0,0.2,0c0.2,0.5,0.6,0.9,1.1,0.9c0.5,0,0.9-0.3,1.1-0.8c0,0,1.5,0.5,1.5,0.5
				c0.5,0,1-0.4,1.1-0.8c0,0,0.1,0,0.1,0c0.3,0,0.6-0.1,0.8-0.3c0.2,0.1,0.4,0.2,0.6,0.2c0.7,0,1.2-0.6,1.2-1.4c0-0.1,0-0.2,0-0.4
				c0.4-0.2,0.7-0.7,0.7-1.2c0-0.5-0.2-0.9-0.5-1.1c-0.2-0.5-0.6-0.9-1.1-0.9c-0.1,0-0.2,0-0.3,0c-0.2-0.5-0.6-0.8-1.1-0.8
				c-0.2-0.3-0.6-0.5-1-0.5c-0.1,0-0.2,0-0.3,0c-0.2-0.5-0.6-0.8-1.1-0.8c-0.2,0-0.4,0-0.5,0.1c-0.1,0-0.2,0-0.3,0
				c-0.4,0-0.7,0.2-1,0.5c-0.2-0.4-0.6-0.7-1.1-0.7c-0.4,0-0.8,0.3-1,0.7c-0.2-0.2-0.5-0.4-0.8-0.4c-0.6,0-1.1,0.5-1.2,1.1
				c-0.1,0-0.2-0.1-0.3-0.1c-0.4,0-0.7,0.2-0.9,0.4c-0.2-0.1-0.4-0.2-0.6-0.2c-0.7,0-1.2,0.6-1.2,1.3c0,0.2,0,0.4,0.1,0.5
				c-0.3,0.3-0.4,0.6-0.4,1c0,0.6,0.4,1.2,0.9,1.3c0.1,0.6,0.6,1,1.2,1c0.2,0,0.4-0.1,0.6-0.2c0.2,0.3,0.6,0.5,1,0.5
				c0.1,0,0.2,0,0.3-0.1c0.1,0.6,0.6,1,1.2,1C93.8,35.3,94.1,35.1,94.3,34.7"/>
			<path class="st13" d="M86.2,44.1c-0.2,0.2-0.5,0.3-0.9,0.3c-0.6,0-1.1-0.4-1.3-0.9c-0.1,0-0.3,0.1-0.5,0.1c-0.2,0-0.3,0-0.5-0.1
				c-0.3,0.2-0.6,0.4-0.9,0.4c-0.7,0-1.3-0.6-1.5-1.3c0,0-0.1,0-0.2,0c-0.7,0-1.2-0.5-1.4-1.1c-0.5-0.1-0.9-0.6-1.1-1.2
				c-0.8-0.2-1.2-0.9-1.2-1.7c0-0.9,0.6-1.8,1.5-1.8c0,0,0,0,0.1,0c0,0,0-0.1,0.1-0.1c0.2-0.6,0.7-1,1.3-1.1c0.2-0.6,0.8-1,1.4-1
				c0.2,0,0.5,0.1,0.7,0.2c0.2-0.1,0.4-0.2,0.6-0.2c0.1,0,0.2,0,0.3,0c0,0,0,0,0,0c0.2-0.6,0.7-1.1,1.4-1.1c0.4,0,0.8,0.2,1.1,0.6
				c0,0,0.1,0,0.1,0c0.1,0,0.1,0,0.2,0c0.3-0.3,0.7-0.6,1.1-0.6c0.3,0,0.6,0.1,0.8,0.3c0.3-0.5,0.7-0.8,1.2-0.8
				c0.4,0,0.8,0.2,1.1,0.5c0.2-0.1,0.3-0.1,0.5-0.1c0.5,0,1,0.3,1.2,0.8c0.2-0.1,0.4-0.1,0.6-0.1c0.5,0,1,0.3,1.3,0.8
				c0.7,0,1.2,0.6,1.3,1.3c0.7,0.2,1.1,0.9,1.1,1.7c0,0.4-0.1,0.8-0.4,1.2c0,0.2,0.1,0.3,0.1,0.5c0,0.4-0.1,0.9-0.4,1.2
				c0,0.1,0,0.2,0,0.3c0,0.9-0.6,1.8-1.5,1.8c-0.3,0-0.5-0.1-0.7-0.2c-0.2,0.3-0.5,0.4-0.9,0.5c-0.3,0.5-0.7,0.9-1.3,0.9
				c-0.5,0-0.9-0.3-1.2-0.7c-0.2,0.2-0.5,0.2-0.8,0.2c-0.3,0-0.5-0.1-0.7-0.2c-0.3,0.5-0.7,0.8-1.2,0.8
				C86.6,44.2,86.4,44.2,86.2,44.1"/>
			<path class="st14" d="M93.6,39.1L93.6,39.1c0,0.2,0.1,0.3,0.1,0.5c0,0.4-0.1,0.7-0.4,1c0,0.1,0,0.2,0,0.3c0,0.7-0.6,1.3-1.2,1.3
				c-0.3,0-0.5-0.1-0.7-0.2c-0.2,0.3-0.5,0.4-0.9,0.5c-0.2,0.5-0.6,0.8-1.1,0.8c-0.4,0-0.8-0.2-1-0.6c-0.2,0.1-0.4,0.2-0.7,0.2
				c-0.3,0-0.5-0.1-0.7-0.3c-0.2,0.4-0.6,0.7-1.1,0.7c-0.2,0-0.4-0.1-0.5-0.1c-0.2,0.2-0.5,0.3-0.8,0.3c-0.5,0-0.9-0.3-1.1-0.8
				c-0.2,0.1-0.3,0.1-0.5,0.1c-0.2,0-0.3,0-0.5-0.1c-0.2,0.2-0.5,0.3-0.8,0.3c-0.6,0-1.1-0.5-1.2-1.1c-0.1,0-0.2,0-0.3,0
				c-0.5,0-1-0.4-1.2-0.9c-0.5-0.1-0.8-0.5-1-0.9l0,0c-0.6-0.1-1.1-0.6-1.1-1.3c0-0.7,0.6-1.3,1.2-1.3c0,0,0.1,0,0.1,0
				c0,0,0.1-0.1,0.1-0.1c0.2-0.5,0.6-0.9,1.1-0.9c0.2-0.5,0.6-0.8,1.1-0.8c0.2,0,0.4,0.1,0.6,0.2c0.2-0.1,0.4-0.2,0.6-0.2
				c0.1,0,0.1,0,0.2,0c0.1,0,0.1,0,0.2,0c0.2-0.5,0.6-0.9,1.2-0.9c0.4,0,0.7,0.2,0.9,0.5c0.1,0,0.1,0,0.2,0c0.1,0,0.2,0,0.3,0
				c0.2-0.3,0.6-0.5,0.9-0.5c0.3,0,0.6,0.1,0.8,0.3c0.2-0.4,0.6-0.7,1.1-0.7c0.4,0,0.7,0.2,0.9,0.5c0.1-0.1,0.3-0.1,0.5-0.1
				c0.5,0,0.9,0.3,1.1,0.7c0.2-0.1,0.4-0.2,0.6-0.2c0.5,0,0.9,0.3,1.1,0.7c0.6,0,1.1,0.5,1.2,1.1c0.6,0.1,1,0.7,1,1.3
				C94,38.5,93.9,38.8,93.6,39.1"/>
			<path class="st15" d="M78.2,39.4c0-0.1,0-0.2,0-0.3c0-0.6,0.5-1.2,1.1-1.2c0,0,0.1,0,0.1,0c0,0,0.1-0.1,0.1-0.1
				c0.2-0.4,0.5-0.8,1-0.8c0.2-0.4,0.5-0.7,1-0.7c0.2,0,0.4,0.1,0.5,0.2c0.2-0.1,0.3-0.2,0.5-0.2c0.1,0,0.1,0,0.2,0c0,0,0.1,0,0.1,0
				c0.1-0.5,0.5-0.8,1-0.8c0.3,0,0.6,0.2,0.8,0.4c0,0,0.1,0,0.2,0c0.1,0,0.1,0,0.2,0c0.2-0.3,0.5-0.4,0.8-0.4c0.3,0,0.5,0.1,0.7,0.3
				c0.2-0.4,0.5-0.6,0.9-0.6c0.3,0,0.6,0.2,0.8,0.4c0.1,0,0.3-0.1,0.4-0.1c0.4,0,0.8,0.3,0.9,0.6C89.7,36,89.9,36,90,36
				c0.4,0,0.8,0.2,0.9,0.6c0.5,0,0.9,0.4,1,1c0.5,0.1,0.9,0.6,0.9,1.2c0,0.1,0,0.2,0,0.3c-0.1-0.4-0.4-0.7-0.8-0.8
				c-0.1-0.6-0.5-0.9-1-1c-0.2-0.4-0.5-0.6-0.9-0.6c-0.2,0-0.4,0.1-0.5,0.1c-0.2-0.4-0.5-0.6-0.9-0.6c-0.1,0-0.3,0-0.4,0.1
				c-0.2-0.3-0.5-0.4-0.8-0.4c-0.4,0-0.8,0.3-0.9,0.6c-0.2-0.2-0.4-0.3-0.7-0.3c-0.3,0-0.6,0.2-0.8,0.4c-0.1,0-0.1,0-0.2,0
				c0,0-0.1,0-0.2,0c-0.2-0.2-0.5-0.4-0.8-0.4c-0.5,0-0.9,0.3-1,0.8c0,0-0.1,0-0.1,0c-0.1,0-0.2,0-0.2,0c-0.2,0-0.4,0.1-0.5,0.1
				c-0.1-0.1-0.3-0.1-0.5-0.1c-0.5,0-0.8,0.3-1,0.7c-0.4,0-0.8,0.3-1,0.8c0,0-0.1,0.1-0.1,0.1c0,0-0.1,0-0.1,0
				C78.7,38.5,78.3,38.9,78.2,39.4"/>
			<path class="st15" d="M102.3,32.4c0.1-0.2,0.1-0.4,0.1-0.6c0-0.5-0.2-0.9-0.5-1.1c-0.2-0.5-0.6-0.9-1.1-0.9c-0.1,0-0.2,0-0.2,0
				c-0.2-0.5-0.6-0.8-1-0.8c-0.2-0.3-0.5-0.5-0.9-0.5c-0.1,0-0.2,0-0.3,0c-0.2-0.5-0.6-0.8-1.1-0.8c-0.2,0-0.4,0.1-0.5,0.1
				c-0.1,0-0.2,0-0.3,0c-0.4,0-0.7,0.2-0.9,0.5c-0.2-0.4-0.6-0.7-1-0.7c-0.4,0-0.8,0.3-1,0.6c-0.2-0.2-0.5-0.4-0.8-0.4
				c-0.6,0-1.1,0.5-1.2,1.1c-0.1,0-0.2-0.1-0.3-0.1c-0.3,0-0.6,0.2-0.8,0.4c-0.2-0.1-0.4-0.2-0.6-0.2c-0.6,0-1.1,0.5-1.2,1.2
				c0.2-0.5,0.6-0.8,1-0.8c0.2,0,0.4,0.1,0.6,0.2c0.2-0.3,0.5-0.4,0.8-0.4c0.1,0,0.2,0,0.3,0c0.1-0.6,0.6-1.1,1.1-1.1
				c0.3,0,0.6,0.1,0.8,0.3c0.2-0.4,0.6-0.6,1-0.6c0.4,0,0.8,0.3,1,0.7c0.2-0.3,0.5-0.5,0.9-0.5c0.1,0,0.2,0,0.3,0
				c0.1-0.1,0.3-0.1,0.5-0.1c0.5,0,0.9,0.3,1.1,0.8c0.1,0,0.2,0,0.3,0c0.4,0,0.7,0.2,0.9,0.5c0.5,0,0.9,0.3,1.1,0.8
				c0.1,0,0.2,0,0.3,0c0.5,0,0.9,0.4,1.1,0.9c0.3,0.3,0.5,0.7,0.5,1.1C102.3,32.4,102.3,32.4,102.3,32.4"/>
			<path class="st15" d="M111.6,31.9c0-0.1,0-0.2,0-0.3c0-0.5,0.2-0.9,0.5-1.1c0.2-0.5,0.6-0.9,1.1-0.9c0.1,0,0.2,0,0.3,0
				c0.2-0.5,0.6-0.8,1-0.8c0.2-0.3,0.6-0.5,1-0.5c0.1,0,0.2,0,0.3,0c0.2-0.5,0.6-0.8,1-0.8c0.2,0,0.4,0,0.5,0.1c0.1,0,0.2,0,0.3,0
				c0.4,0,0.7,0.2,0.9,0.5c0.2-0.4,0.6-0.6,1-0.6c0.4,0,0.8,0.2,1,0.6c0.2-0.2,0.5-0.3,0.8-0.3c0.6,0,1.1,0.5,1.1,1.1
				c0.1,0,0.2-0.1,0.3-0.1c0.3,0,0.7,0.2,0.9,0.4c0.2-0.1,0.4-0.2,0.6-0.2c0.7,0,1.2,0.6,1.2,1.3c0,0.7-0.1-0.8-1.2-0.8
				c-0.2,0-0.4,0.1-0.6,0.2c-0.2-0.3-0.5-0.4-0.9-0.4c-0.1,0-0.2,0-0.3,0c-0.1-0.6-0.6-1.1-1.1-1.1c-0.3,0-0.6,0.1-0.8,0.3
				c-0.2-0.4-0.6-0.6-1-0.6c-0.4,0-0.8,0.3-1,0.6c-0.2-0.3-0.6-0.5-0.9-0.5c-0.1,0-0.2,0-0.3,0.1c-0.1-0.1-0.3-0.1-0.5-0.1
				c-0.5,0-0.9,0.3-1,0.8c-0.1,0-0.2,0-0.3,0c-0.4,0-0.7,0.2-1,0.5c-0.5,0-0.9,0.3-1,0.8c-0.1,0-0.2,0-0.3,0c-0.5,0-1,0.4-1.1,0.9
				C111.9,31.2,111.7,31.5,111.6,31.9"/>
			<path class="st15" d="M136.8,39.2c0-0.1,0-0.2,0-0.2c0-0.7-0.5-1.3-1.2-1.3c0,0-0.1,0-0.1,0c0,0-0.1-0.1-0.1-0.1
				c-0.2-0.5-0.6-0.8-1-0.8c-0.2-0.5-0.6-0.8-1.1-0.8c-0.2,0-0.4,0.1-0.6,0.2c-0.2-0.1-0.3-0.2-0.6-0.2c-0.1,0-0.1,0-0.2,0
				c0,0-0.1,0-0.1,0c-0.2-0.5-0.6-0.9-1.1-0.9c-0.4,0-0.7,0.2-0.9,0.5c-0.1,0-0.1,0-0.2,0c-0.1,0-0.2,0-0.2,0
				c-0.2-0.3-0.5-0.5-0.9-0.5c-0.3,0-0.5,0.1-0.8,0.3c-0.2-0.4-0.6-0.7-1-0.7c-0.4,0-0.7,0.2-0.9,0.5c-0.1-0.1-0.3-0.1-0.4-0.1
				c-0.4,0-0.8,0.3-1,0.7c-0.2-0.1-0.4-0.2-0.6-0.2c-0.4,0-0.8,0.3-1,0.7c-0.6,0-1,0.5-1.1,1.1c-0.5,0.1-0.9,0.6-0.9,1.3
				c0,0.1,0,0.1,0,0.2c0.1-0.5,0.5-1,0.9-1c0.1-0.6,0.6-1.1,1.1-1.1c0.2-0.4,0.6-0.7,1-0.7c0.2,0,0.4,0.1,0.6,0.2
				c0.2-0.4,0.6-0.7,1-0.7c0.1,0,0.3,0,0.4,0.1c0.2-0.3,0.5-0.5,0.9-0.5c0.4,0,0.8,0.3,1,0.7c0.2-0.2,0.5-0.3,0.8-0.3
				c0.4,0,0.7,0.2,0.9,0.5c0.1,0,0.1,0,0.2,0c0.1,0,0.1,0,0.2,0c0.2-0.3,0.5-0.5,0.9-0.5c0.5,0,0.9,0.4,1.1,0.9c0,0,0.1,0,0.1,0
				c0.1,0,0.1,0,0.2,0c0.2,0,0.4,0.1,0.6,0.2c0.2-0.1,0.4-0.2,0.6-0.2c0.5,0,0.9,0.3,1.1,0.8c0.5,0,0.9,0.4,1,0.8
				c0.1,0.1,0.1,0.1,0.1,0.1c0,0,0.1,0,0.1,0C136.2,38.2,136.7,38.6,136.8,39.2"/>
			<path class="st0" d="M107.5,116.4c-12.3,0-23.5,3.5-31.8,9.2L65.1,122l4.2-7.8c10.4-6.7,23.7-10.9,38.3-10.9
				c14.6,0,27.9,4.2,38.3,10.9l4.2,7.8l-10.6,3.6C131,119.9,119.9,116.4,107.5,116.4"/>
			<path class="st1" d="M139.5,124.7l9.3-3.2l-3.6-6.7c-11.1-7.2-24.5-10.7-37.6-10.7c-13.2,0-26.5,3.5-37.6,10.7l-3.6,6.7l9.3,3.2
				c9.3-6.2,20.8-9.1,31.9-9.1C118.7,115.6,130.2,118.5,139.5,124.7"/>
			<path class="st2" d="M90.1,131c0,0.1,0.1,0.1,0.1,0.2c0,0.1,0.1,0.2,0.2,0.2c0,0.1,0.1,0.2,0.2,0.3c0.1,0.1,0.2,0.2,0.3,0.3
				c0.1,0.1,0.2,0.1,0.3,0.1c0.1,0,0.2,0,0.3,0c0.1,0,0.2,0,0.3-0.1c0.1,0,0.2,0,0.3-0.1c0,0,0.1-0.1,0.2-0.1c0.1,0,0.2-0.1,0.2-0.2
				c0.1-0.1,0.2-0.1,0.2-0.2c0.1-0.1,0.1-0.2,0.2-0.3c0-0.1,0.1-0.2,0-0.4c0-0.1,0-0.3,0-0.4c0-0.1-0.1-0.3-0.2-0.5l-0.4-0.9
				c-0.1-0.2-0.2-0.4-0.3-0.5c-0.1-0.1-0.2-0.3-0.3-0.3c-0.1-0.1-0.2-0.1-0.3-0.2c-0.1,0-0.2-0.1-0.4-0.1c-0.1,0-0.2,0-0.4,0
				c-0.2,0-0.2,0.1-0.4,0.1c-0.1,0-0.2,0.1-0.3,0.2c-0.1,0.1-0.2,0.2-0.3,0.3c-0.1,0.1-0.1,0.2-0.2,0.3c0,0.1-0.1,0.3-0.1,0.4
				c0,0.1,0,0.3,0.1,0.4c0,0.1,0.1,0.3,0.1,0.4L90.1,131z M90.4,129.5c0,0,0-0.1,0-0.1c0,0,0-0.1-0.1-0.2c0-0.1,0-0.1,0-0.2
				c0-0.1,0.1-0.1,0.1-0.2c0,0,0.1-0.1,0.2-0.1c0.1,0,0.2,0,0.3,0c0.1,0,0.1,0,0.2,0.1c0,0,0.1,0.1,0.1,0.2c0,0,0.1,0.1,0.1,0.2
				l0.6,1.3c0,0,0,0.1,0.1,0.2c0,0.1,0,0.1,0.1,0.2c0,0.1,0,0.1,0,0.2c0,0.1,0,0.1-0.1,0.2c0,0.1-0.1,0.1-0.2,0.2
				c-0.1,0-0.2,0-0.3,0c-0.1,0-0.2-0.1-0.2-0.2c-0.1-0.1-0.1-0.2-0.2-0.3L90.4,129.5z M87.8,131.6l0.3-0.1l1.3,1.3l0.9-0.3l-1.4-1.4
				c0.1-0.1,0.3-0.2,0.3-0.4c0.1-0.1,0.1-0.3,0.1-0.4c0-0.1,0-0.3-0.1-0.5c-0.1-0.2-0.2-0.4-0.3-0.5c-0.1-0.1-0.2-0.2-0.3-0.2
				c-0.1-0.1-0.2-0.1-0.4-0.1c-0.1,0-0.3,0-0.4,0.1c-0.1,0-0.3,0.1-0.4,0.1l-1.2,0.4l1.4,3.8l0.8-0.3L87.8,131.6z M87.2,130
				c0.1,0,0.2-0.1,0.3-0.1c0.1,0,0.1-0.1,0.2-0.1c0,0,0.1,0,0.1,0c0,0,0.1,0,0.1,0c0.1,0,0.2,0,0.2,0.1c0.1,0.1,0.1,0.2,0.2,0.3
				c0,0.1,0,0.1,0.1,0.2c0,0,0,0.1,0,0.2c0,0.1-0.1,0.1-0.1,0.2c0,0,0,0-0.1,0c0,0-0.1,0-0.1,0c0,0-0.1,0-0.2,0.1
				c-0.1,0-0.2,0.1-0.3,0.1L87.2,130z M87.1,133.7l-0.1-0.3l-0.5,0.2l-1.1-3.1l0.5-0.2l-0.1-0.3l-1.7,0.6l0.1,0.3l0.5-0.2l1.1,3.1
				l-0.5,0.2l0.1,0.3L87.1,133.7z M82.3,135.2l2.7-0.8l-0.2-0.7l-1.9,0.6l-0.3-0.9l1.2-0.4l-0.2-0.7l-1.2,0.4l-0.3-0.8l1.7-0.5
				l-0.2-0.7l-2.6,0.8L82.3,135.2z M78.7,136.1l0.8-0.2l-0.5-1.8c0,0,0-0.1,0-0.1c0,0,0-0.1-0.1-0.2c0-0.1,0-0.1,0-0.2
				c0,0,0-0.1,0-0.1c0,0,0-0.1,0-0.1h0c0.1,0.1,0.1,0.2,0.2,0.2c0,0,0.1,0.1,0.1,0.1c0.1,0,0.1,0.1,0.1,0.1c0,0,0,0,0.1,0.1
				c0,0,0,0,0.1,0.1l1.5,1.6l0.7-0.2l-1-3.9l-0.8,0.2l0.4,1.5c0,0,0,0.1,0,0.1c0,0,0,0.1,0,0.1c0,0,0,0.1,0,0.1c0,0,0,0.1,0,0.2
				l0.1,0.4l0,0c0,0,0,0,0,0c0,0,0,0-0.1-0.1c0,0,0,0,0-0.1c0,0-0.1-0.1-0.1-0.1c0,0-0.1-0.1-0.1-0.1l-1.5-1.6l-0.8,0.2L78.7,136.1z
				 M75.2,132.7l-0.3,4.2l0.8-0.2l0-0.8l1.2-0.3l0.3,0.8l0.9-0.2l-1.9-3.7L75.2,132.7z M76.6,135l-0.9,0.2l0.1-1.9l0,0L76.6,135z
				 M72.1,136C72.1,136,72.1,136.1,72.1,136c0,0.1,0,0.2,0,0.2c0,0.1,0,0.1,0,0.2c0,0.1,0.1,0.2,0.1,0.3c0,0.1,0.1,0.2,0.2,0.2
				c0.1,0.1,0.2,0.1,0.3,0.2c0.1,0,0.2,0.1,0.2,0.1c0.1,0,0.2,0,0.2,0c0.1,0,0.2,0,0.2,0c0.1,0,0.2,0,0.3-0.1
				c0.1-0.1,0.2-0.1,0.3-0.2c0.1-0.1,0.2-0.1,0.2-0.2c0-0.1,0.1-0.1,0.1-0.2c0-0.1,0-0.1,0-0.2c0-0.1,0-0.1,0-0.2c0-0.1,0-0.1,0-0.1
				l-0.5-3.1L73,133l0.5,3.1c0,0.1,0,0.1,0,0.2c0,0,0,0.1-0.1,0.1c-0.1,0-0.1,0.1-0.2,0.1c-0.1,0-0.1,0-0.2,0c0,0-0.1-0.1-0.1-0.1
				c0-0.1,0-0.1,0-0.2c0-0.1,0-0.2-0.1-0.3L72.1,136z M67.8,137.8l2.8-0.3l-0.1-0.8l-1.9,0.2l-0.1-1l1.3-0.1l-0.1-0.7l-1.3,0.1
				l-0.1-0.9l1.8-0.2l-0.1-0.7l-2.7,0.3L67.8,137.8z M64.9,134.6c0.1,0,0.2,0,0.3,0c0.1,0,0.2,0,0.2,0c0.1,0,0.1,0,0.2,0.1
				c0,0,0.1,0.1,0.1,0.1c0.1,0.1,0.1,0.1,0.1,0.2c0,0.1,0,0.2,0.1,0.3c0,0.1,0,0.3,0,0.4c0,0,0,0.1,0,0.2c0,0,0,0.1,0,0.2
				c0,0.1,0,0.1,0,0.2c0,0.2,0,0.3,0,0.4c0,0.1,0,0.2-0.1,0.3c0,0.1-0.1,0.1-0.2,0.2c-0.1,0-0.1,0-0.2,0.1c-0.1,0-0.1,0-0.2,0
				l-0.3,0L64.9,134.6z M64.2,138c0.1,0,0.3,0,0.5,0c0.2,0,0.3,0,0.4,0c0.1,0,0.2,0,0.3,0c0.1,0,0.1,0,0.2,0c0.1,0,0.2,0,0.3-0.1
				c0.1,0,0.2,0,0.3-0.1c0.1,0,0.2-0.1,0.3-0.1c0.1-0.1,0.2-0.1,0.3-0.2c0.1-0.1,0.1-0.2,0.1-0.3c0-0.1,0.1-0.2,0.1-0.3
				c0-0.1,0-0.2,0-0.3l0-0.7c0-0.2,0-0.3,0-0.5c0-0.1,0-0.2,0-0.4c0-0.1,0-0.2-0.1-0.3c0-0.1,0-0.1-0.1-0.2c0,0-0.1-0.1-0.1-0.1
				c-0.1-0.1-0.1-0.2-0.2-0.2c-0.1-0.1-0.2-0.1-0.3-0.1c-0.1,0-0.3-0.1-0.5-0.1c-0.2,0-0.4,0-0.6,0l-1,0.1L64.2,138z M61.5,136
				c0,0,0.1,0,0.1-0.1c0,0,0.1-0.1,0.1-0.1c0,0,0.1-0.1,0.1-0.2c0-0.1,0.1-0.1,0.1-0.2c0-0.1,0-0.2,0-0.3c0-0.2,0-0.3-0.1-0.5
				c0-0.1-0.1-0.3-0.3-0.3c-0.1-0.1-0.2-0.2-0.4-0.2c-0.1,0-0.3-0.1-0.5-0.1c-0.1,0-0.3,0-0.4,0.1c-0.2,0-0.3,0.1-0.4,0.2
				c-0.1,0.1-0.2,0.2-0.2,0.2c0,0.1-0.1,0.2-0.1,0.3c0,0.1,0,0.2,0,0.2c0,0.1,0,0.1,0,0.2c0,0.1,0,0.2,0.1,0.3
				c0,0.1,0.1,0.2,0.1,0.3c0.1,0.1,0.1,0.1,0.2,0.2c0.1,0,0.1,0.1,0.2,0.1l0,0c-0.1,0-0.2,0.1-0.3,0.2c-0.1,0.1-0.2,0.2-0.2,0.2
				c0,0.1-0.1,0.1-0.1,0.2c0,0.1,0,0.1,0,0.2c0,0.1,0,0.2,0,0.2c0,0.1,0,0.2,0,0.3c0,0.1,0.1,0.2,0.1,0.3c0.1,0.1,0.1,0.2,0.2,0.3
				c0.1,0.1,0.2,0.1,0.4,0.2c0.1,0,0.3,0.1,0.5,0.1c0.1,0,0.2,0,0.3,0c0.1,0,0.2,0,0.3-0.1c0.1,0,0.2-0.1,0.3-0.1
				c0.1-0.1,0.2-0.2,0.2-0.3c0.1-0.1,0.1-0.2,0.2-0.3c0-0.1,0.1-0.3,0.1-0.4c0-0.1,0-0.2,0-0.3c0-0.1,0-0.1-0.1-0.2
				c0-0.1,0-0.1-0.1-0.2c0-0.1-0.1-0.1-0.1-0.2c-0.1-0.1-0.1-0.1-0.2-0.1C61.7,136,61.6,136,61.5,136L61.5,136z M60.9,135.7
				c-0.1,0-0.1,0-0.2,0c-0.1,0-0.1-0.1-0.1-0.1c0-0.1-0.1-0.1-0.1-0.1c0-0.1,0-0.1,0-0.1c0-0.1,0-0.1,0-0.1c0-0.1,0-0.2,0-0.3
				c0-0.1,0.1-0.1,0.1-0.2c0.1-0.1,0.2-0.1,0.2-0.1c0.2,0,0.3,0.1,0.3,0.2c0.1,0.1,0.1,0.2,0.1,0.4c0,0,0,0.1,0,0.1c0,0,0,0.1,0,0.1
				c0,0,0,0.1-0.1,0.1c0,0-0.1,0.1-0.1,0.1C61,135.7,61,135.7,60.9,135.7z M60.9,136.3c0.1,0,0.2,0,0.2,0c0.1,0,0.1,0.1,0.1,0.1
				c0,0.1,0.1,0.1,0.1,0.2c0,0.1,0,0.1,0,0.2c0,0.1,0,0.1,0,0.1c0,0.1,0,0.2,0,0.3c0,0.1-0.1,0.2-0.2,0.2c-0.1,0.1-0.2,0.1-0.3,0.1
				c-0.1,0-0.1,0-0.2,0c0,0-0.1,0-0.2-0.1c0-0.1-0.1-0.1-0.1-0.2c0-0.1-0.1-0.2-0.1-0.3c0-0.1,0-0.2,0-0.3c0-0.1,0.1-0.1,0.1-0.2
				c0,0,0.1-0.1,0.1-0.1c0,0,0.1,0,0.1-0.1C60.8,136.3,60.9,136.3,60.9,136.3z"/>
			<g>
				<path class="st2" d="M130.2,130.2l0.9,0.3c0.9,0.3,1.2,0.6,1.3,1c0.1,0.3,0.1,0.6-0.2,1.4l-0.2,0.7c-0.1,0.4-0.4,0.9-0.9,0.9
					c-0.3,0.1-0.6,0-0.9-0.1c-0.1,0-0.7-0.2-1.3-0.4L130.2,130.2z M130.1,133.7l0.2,0.1c0.4,0.1,0.7,0.1,0.9-0.6
					c0-0.1,0.1-0.3,0.2-0.5c0.1-0.5,0.2-0.8,0.1-1c-0.1-0.3-0.3-0.3-0.7-0.5L130.1,133.7z"/>
			</g>
			<g>
				<path class="st2" d="M133.3,131.2l2.6,0.6l-0.2,0.7l-1.8-0.5l-0.2,0.8l1.2,0.3l-0.2,0.7l-1.2-0.3l-0.2,0.9l1.9,0.5l-0.2,0.7
					l-2.8-0.7L133.3,131.2z"/>
			</g>
			<g>
				<path class="st2" d="M137.5,135.6l0.8,0.1l0.5-2.7l-0.8-0.2l0.1-0.6l1.6,0.3l-0.6,3.3l0.8,0.1l-0.1,0.6l-2.3-0.4L137.5,135.6z"
					/>
			</g>
			<g>
				<path class="st2" d="M142,135c0.2,0.1,0.4,0.2,0.5,0.5c0.1,0.1,0.1,0.3,0.1,0.6c-0.1,0.4-0.3,0.8-0.6,0.9
					c-0.3,0.2-0.7,0.1-0.9,0.1c-1-0.1-1.2-0.9-1.2-1.3c0-0.3,0.1-0.4,0.2-0.6c0.1-0.2,0.3-0.3,0.5-0.3v0c-0.2-0.1-0.5-0.4-0.4-0.9
					c0-0.2,0.1-0.6,0.5-0.8c0.3-0.2,0.6-0.2,0.9-0.2c0.7,0.1,1.2,0.5,1.1,1.2C142.6,134.7,142.2,134.9,142,135L142,135z
					 M140.9,135.3c-0.1,0.1-0.1,0.2-0.2,0.5c-0.1,0.6,0.2,0.7,0.4,0.7c0.4,0.1,0.5-0.2,0.6-0.6c0-0.2,0.1-0.7-0.4-0.7
					C141.2,135.1,141,135.1,140.9,135.3z M141.8,134.1c0-0.3-0.1-0.6-0.3-0.6c-0.3,0-0.5,0.2-0.5,0.5c0,0.1-0.1,0.5,0.3,0.6
					C141.7,134.6,141.8,134.2,141.8,134.1z"/>
			</g>
			<g>
				<path class="st2" d="M142.9,135.3l0.4-2.2l2.1,0.2l-0.1,0.7l-1.5-0.1l-0.1,0.7l0,0c0.2-0.1,0.4-0.1,0.5-0.1
					c0.9,0.1,1.2,0.7,1.1,1.4c0,0.3-0.2,0.7-0.5,1c-0.4,0.3-0.9,0.3-1.2,0.3c-0.2,0-0.5-0.1-1-0.2l0.2-0.7c0.2,0.1,0.5,0.2,0.7,0.2
					c0.2,0,0.5,0,0.8-0.1c0.2-0.1,0.3-0.3,0.4-0.6c0-0.5-0.3-0.7-0.6-0.7c-0.3,0-0.4,0.1-0.6,0.2L142.9,135.3z"/>
			</g>
			<g>
				<path class="st2" d="M145.6,136.8c0.1,0,0.2,0,0.5,0.1c0.7,0,1.4-0.2,1.4-0.7c0-0.4-0.3-0.5-0.5-0.5c-0.3,0-0.4,0.1-0.5,0.1
					l-0.2-0.5c0.2-0.1,0.5-0.2,0.7-0.4c0.1-0.1,0.4-0.2,0.4-0.5c0-0.2-0.2-0.3-0.4-0.4c-0.4,0-0.7,0.3-0.9,0.5l-0.4-0.5
					c0.3-0.3,0.7-0.6,1.4-0.6c0.2,0,0.5,0.1,0.7,0.3c0.2,0.1,0.3,0.4,0.3,0.6c0,0.5-0.4,0.7-0.7,0.9v0c0.2,0.1,0.5,0.1,0.7,0.4
					c0.1,0.2,0.1,0.4,0.1,0.5c0,0.5-0.3,0.9-0.7,1.2c-0.5,0.3-1,0.4-1.6,0.3c-0.2,0-0.4,0-0.4,0L145.6,136.8z"/>
			</g>
			<path class="st2" d="M143.2,117.9c0-0.3-0.1-0.5-0.2-0.7c-0.1-0.2-0.2-0.4-0.3-0.6c-0.2-0.2-0.3-0.3-0.6-0.4
				c-0.3-0.1-0.5-0.2-0.7-0.3c-0.2,0-0.4,0-0.6,0c-0.2,0.1-0.4,0.1-0.5,0.3c-0.2,0.1-0.3,0.3-0.4,0.5c-0.1,0.2-0.2,0.4-0.2,0.7
				c0,0.2,0,0.4,0,0.6c0.1,0.2,0.1,0.3,0.2,0.5c0.1,0.2,0.2,0.3,0.4,0.5c0.1,0.2,0.2,0.3,0.3,0.4c0.1,0.1,0.2,0.2,0.2,0.3
				c0,0.1,0.1,0.2,0.1,0.2c0,0.1,0,0.2-0.1,0.2c-0.1,0.1-0.1,0.2-0.2,0.2c-0.1,0-0.2,0.1-0.3,0.1c-0.1,0-0.2,0-0.2,0
				c-0.1,0-0.1-0.1-0.2-0.1c-0.1-0.1-0.2-0.2-0.3-0.3c-0.1-0.1-0.1-0.2-0.2-0.4c0-0.1,0-0.3,0-0.5l-1.1,0.1c0,0.2,0,0.5,0.1,0.7
				c0.1,0.2,0.1,0.4,0.2,0.5c0.1,0.1,0.2,0.3,0.4,0.4c0.2,0.1,0.3,0.2,0.5,0.4c0.1,0,0.2,0.1,0.3,0.1c0.1,0,0.2,0.1,0.3,0.1
				c0.1,0,0.3,0,0.4,0c0.2,0,0.4,0,0.6-0.1c0.2-0.1,0.3-0.1,0.4-0.2c0.1-0.1,0.2-0.2,0.3-0.3c0.1-0.1,0.1-0.2,0.1-0.2
				c0.1-0.1,0.1-0.2,0.1-0.3c0-0.1,0.1-0.2,0.1-0.3c0-0.1,0-0.2,0-0.2c0-0.1,0-0.1,0-0.1c0-0.1,0-0.2-0.1-0.3c0-0.1-0.1-0.2-0.2-0.4
				c-0.1-0.1-0.1-0.2-0.2-0.3l-0.5-0.5c-0.1-0.1-0.1-0.1-0.2-0.2c0-0.1-0.1-0.1-0.1-0.2c0-0.1-0.1-0.1-0.1-0.2c0-0.1,0-0.2,0.1-0.2
				c0,0,0,0,0-0.1c0,0,0.1,0,0.1-0.1c0,0,0.1,0,0.2-0.1c0.1,0,0.1,0,0.2,0c0.1,0,0.2,0,0.3,0.1c0.1,0.1,0.2,0.2,0.3,0.3
				c0.1,0.1,0.1,0.2,0.2,0.3c0,0.1,0,0.2,0,0.4L143.2,117.9z M137.8,120l0.2-0.4l-0.5-0.3l2-3.9l0.5,0.3l0.2-0.4l-2.1-1.1l-0.2,0.4
				l0.5,0.3l-2.1,3.9l-0.5-0.3l-0.2,0.4L137.8,120z M135.4,113l-3.5,4.3l1,0.5l0.7-0.9l1.5,0.7l-0.2,1.1l1,0.5l0.8-5.5L135.4,113z
				 M135.2,116.6l-1.1-0.5l1.5-2l0,0L135.2,116.6z M128,115.7l1.1,0.4l0.8-2.2l1.4,0.6l-0.8,2.1l1.1,0.4l1.9-5l-1.1-0.4l-0.7,1.9
				l-1.4-0.5l0.7-1.9l-1.1-0.4L128,115.7z M123.5,114.4l1,0.3l0.7-2.4c0,0,0-0.1,0-0.1c0-0.1,0-0.1,0.1-0.2c0-0.1,0-0.2,0.1-0.2
				c0-0.1,0-0.2,0.1-0.2c0,0,0-0.1,0-0.1h0c0,0.1,0,0.3,0,0.3c0,0.1,0,0.2,0,0.2c0,0.1,0,0.1,0,0.1c0,0,0,0.1,0,0.1c0,0,0,0.1,0,0.1
				l0.6,2.9l0.9,0.3l1.5-5.1l-1-0.3l-0.6,1.9c0,0,0,0.1,0,0.1c0,0,0,0.1,0,0.1c0,0,0,0.1,0,0.1c0,0.1,0,0.1,0,0.2l-0.1,0.5h0
				c0,0,0,0,0-0.1c0,0,0-0.1,0-0.1c0,0,0-0.1,0-0.1c0-0.1,0-0.1,0-0.2c0-0.1,0-0.1,0-0.2l-0.6-2.8l-1.1-0.3L123.5,114.4z
				 M123.2,114.4l0.1-0.5l-0.6-0.2l1-4.2l0.6,0.2l0.1-0.5l-2.4-0.6l-0.1,0.4l0.6,0.2l-1.1,4.3l-0.6-0.2l-0.1,0.5L123.2,114.4z
				 M117.2,113.2l1.2,0.2l0.3-2l0.6,0.1c0.1,0,0.3,0,0.4,0c0.1,0,0.3,0,0.4,0c0.2,0,0.3,0,0.4-0.1c0.1,0,0.1-0.1,0.2-0.1
				c0.1-0.1,0.2-0.1,0.3-0.2c0.1-0.1,0.2-0.2,0.2-0.4c0.1-0.2,0.1-0.3,0.2-0.5c0-0.3,0-0.5,0-0.7c0-0.2-0.1-0.4-0.3-0.6
				c-0.1-0.1-0.2-0.2-0.3-0.3c-0.1-0.1-0.3-0.2-0.5-0.2c-0.2-0.1-0.4-0.1-0.6-0.2l-1.7-0.3L117.2,113.2z M119.1,109
				c0.2,0,0.3,0.1,0.4,0.1c0.1,0,0.2,0,0.2,0.1c0.1,0,0.1,0,0.2,0c0,0,0.1,0,0.1,0.1c0.1,0,0.1,0,0.1,0.1c0,0,0.1,0.1,0.1,0.1
				c0,0.1,0,0.1,0.1,0.2c0,0.1,0,0.2,0,0.3c0,0.1-0.1,0.2-0.1,0.3c0,0.1-0.1,0.2-0.2,0.2c0,0-0.1,0.1-0.2,0.1c-0.1,0-0.1,0-0.1,0
				c0,0-0.1,0-0.2,0c-0.1,0-0.2,0-0.3,0c-0.1,0-0.3-0.1-0.4-0.1L119.1,109z M115.4,108.5c-0.1-0.2-0.3-0.4-0.4-0.6
				c-0.2-0.2-0.3-0.3-0.5-0.4c-0.2-0.1-0.5-0.1-0.7-0.2c-0.3,0-0.5,0-0.7,0c-0.2,0-0.4,0.1-0.6,0.3c-0.2,0.1-0.3,0.3-0.4,0.5
				c-0.1,0.2-0.2,0.4-0.2,0.6c0,0.3,0,0.5,0.1,0.7c0.1,0.2,0.2,0.4,0.3,0.5c0.1,0.1,0.3,0.3,0.4,0.4c0.2,0.1,0.4,0.2,0.6,0.3
				c0.2,0.1,0.4,0.2,0.5,0.2c0.1,0.1,0.2,0.1,0.3,0.2c0.1,0.1,0.1,0.1,0.2,0.2c0,0.1,0,0.2,0,0.3c0,0.1,0,0.2-0.1,0.3
				c0,0.1-0.1,0.1-0.2,0.2c-0.1,0-0.2,0.1-0.2,0.1c-0.1,0-0.2,0-0.2,0c-0.1,0-0.3-0.1-0.4-0.1c-0.1-0.1-0.2-0.2-0.3-0.3
				c-0.1-0.1-0.2-0.3-0.2-0.4l-0.9,0.5c0.1,0.2,0.2,0.4,0.3,0.6c0.1,0.2,0.3,0.3,0.4,0.4c0.1,0.1,0.3,0.2,0.5,0.2
				c0.2,0.1,0.4,0.1,0.6,0.1c0.1,0,0.2,0,0.3,0c0.1,0,0.2,0,0.3-0.1c0.1,0,0.3-0.1,0.4-0.1c0.2-0.1,0.4-0.2,0.5-0.3
				c0.1-0.1,0.2-0.3,0.2-0.4c0.1-0.1,0.1-0.2,0.1-0.4c0-0.1,0-0.2,0-0.3c0-0.1,0-0.2,0-0.3c0-0.1,0-0.2-0.1-0.3
				c0-0.1-0.1-0.2-0.1-0.2c0-0.1,0-0.1-0.1-0.1c0-0.1-0.1-0.2-0.2-0.3c-0.1-0.1-0.2-0.2-0.3-0.2c-0.1-0.1-0.2-0.1-0.3-0.2l-0.6-0.3
				c-0.1,0-0.2-0.1-0.2-0.1c-0.1,0-0.1-0.1-0.2-0.1c-0.1-0.1-0.1-0.1-0.1-0.2c0-0.1,0-0.2,0-0.2c0,0,0,0,0-0.1c0,0,0-0.1,0.1-0.1
				c0-0.1,0.1-0.1,0.1-0.1c0-0.1,0.1-0.1,0.2-0.1c0.1,0,0.2,0,0.3,0c0.1,0,0.3,0.1,0.4,0.1c0.1,0.1,0.2,0.1,0.3,0.2
				c0.1,0.1,0.2,0.2,0.2,0.3L115.4,108.5z M107.5,110.4c0,0.1,0,0.2,0,0.3c0,0.1,0,0.3,0,0.4c0,0.1,0,0.3,0.1,0.4
				c0,0.2,0.1,0.3,0.2,0.5c0.1,0.1,0.2,0.2,0.3,0.3c0.1,0.1,0.2,0.2,0.4,0.2c0.1,0,0.2,0.1,0.4,0.1c0.1,0,0.2,0,0.3,0
				c0.1,0,0.2,0,0.3,0c0.1,0,0.2,0,0.4-0.1c0.1,0,0.3-0.1,0.4-0.1c0.1-0.1,0.3-0.2,0.4-0.3c0.1-0.1,0.2-0.2,0.3-0.4
				c0.1-0.1,0.1-0.3,0.2-0.5c0-0.2,0.1-0.4,0.1-0.7l0-1.3c0-0.3,0-0.5,0-0.7c0-0.2-0.1-0.4-0.1-0.5c-0.1-0.2-0.1-0.3-0.2-0.4
				c-0.1-0.1-0.2-0.2-0.4-0.3c-0.1-0.1-0.3-0.1-0.5-0.2c-0.2,0-0.3,0-0.5-0.1c-0.1,0-0.3,0-0.5,0c-0.2,0-0.3,0.1-0.5,0.2
				c-0.1,0.1-0.3,0.2-0.4,0.3c-0.1,0.1-0.2,0.3-0.3,0.4c-0.1,0.1-0.1,0.3-0.2,0.5c0,0.2,0,0.4-0.1,0.5L107.5,110.4z M108.8,108.9
				c0,0,0-0.1,0-0.2c0-0.1,0-0.1,0-0.2c0-0.1,0.1-0.1,0.1-0.2c0.1-0.1,0.1-0.1,0.2-0.1c0.1-0.1,0.2-0.1,0.3-0.1c0.2,0,0.3,0,0.4,0.1
				c0.1,0,0.1,0.1,0.2,0.2c0,0.1,0,0.2,0,0.3c0,0.1,0,0.2,0,0.3l-0.1,1.8c0,0.1,0,0.2,0,0.2c0,0.1,0,0.2,0,0.3
				c0,0.1-0.1,0.2-0.1,0.2c0,0.1-0.1,0.1-0.2,0.2c-0.1,0-0.2,0.1-0.3,0.1c-0.2,0-0.3-0.1-0.4-0.1c-0.1-0.1-0.2-0.2-0.2-0.4
				c-0.1-0.1-0.1-0.3-0.1-0.5L108.8,108.9z M104.2,108.2c0.1,0,0.3,0,0.4,0c0.1,0,0.2,0,0.3,0c0.1,0,0.2,0.1,0.2,0.1
				c0.1,0,0.1,0.1,0.2,0.2c0.1,0.1,0.1,0.2,0.2,0.3c0,0.1,0.1,0.3,0.1,0.4c0,0.2,0,0.4,0,0.6c0,0.1,0,0.1,0,0.2c0,0.1,0,0.1,0,0.2
				c0,0.1,0,0.2,0,0.2c0,0.2,0,0.4,0,0.5c0,0.1-0.1,0.2-0.1,0.3c0,0.1-0.1,0.2-0.2,0.2c-0.1,0-0.2,0.1-0.2,0.1c-0.1,0-0.2,0-0.3,0
				h-0.3L104.2,108.2z M103.2,112.6c0.2,0,0.4,0,0.6,0c0.2,0,0.4,0,0.5,0c0.2,0,0.3,0,0.4,0c0.1,0,0.2,0,0.2,0c0.1,0,0.3,0,0.4-0.1
				c0.1,0,0.2,0,0.4-0.1c0.1,0,0.3-0.1,0.4-0.2c0.1-0.1,0.3-0.2,0.4-0.3c0.1-0.1,0.1-0.2,0.2-0.4c0-0.1,0.1-0.3,0.1-0.4
				c0-0.2,0-0.3,0-0.5l0-0.9c0-0.3,0-0.4,0-0.6c0-0.2,0-0.3-0.1-0.5c0-0.1,0-0.3-0.1-0.3c0-0.1-0.1-0.2-0.1-0.3
				c0-0.1-0.1-0.1-0.1-0.2c-0.1-0.1-0.2-0.2-0.3-0.3c-0.1-0.1-0.2-0.2-0.4-0.2c-0.2-0.1-0.4-0.1-0.6-0.1c-0.2,0-0.5,0-0.8,0
				l-1.3,0.1L103.2,112.6z M98.5,106.2l-0.5,1.1l0.7-0.1l0.9-1.2L98.5,106.2z M97.6,113.2l3.7-0.5l-0.1-1l-2.5,0.3l-0.2-1.2l1.6-0.2
				l-0.1-1l-1.7,0.2l-0.1-1.1l2.4-0.3l-0.1-1l-3.5,0.4L97.6,113.2z M96.2,108.9c-0.2-0.2-0.3-0.3-0.5-0.4c-0.2-0.1-0.4-0.2-0.6-0.2
				c-0.2,0-0.5,0-0.7,0c-0.3,0.1-0.5,0.1-0.7,0.3c-0.2,0.1-0.4,0.2-0.5,0.4c-0.1,0.2-0.2,0.3-0.2,0.5c0,0.2,0,0.4,0,0.6
				c0.1,0.3,0.1,0.5,0.2,0.6c0.1,0.2,0.2,0.3,0.4,0.4c0.2,0.1,0.3,0.2,0.5,0.2c0.2,0.1,0.4,0.1,0.6,0.2c0.2,0,0.4,0.1,0.5,0.1
				c0.1,0,0.3,0.1,0.3,0.1c0.1,0,0.1,0.1,0.2,0.1c0,0.1,0.1,0.1,0.1,0.2c0,0.1,0,0.2,0,0.3c0,0.1-0.1,0.2-0.2,0.2
				c-0.1,0.1-0.1,0.1-0.2,0.1c-0.1,0.1-0.2,0.1-0.2,0.1c-0.2,0-0.3,0-0.4,0c-0.1,0-0.3-0.1-0.4-0.2c-0.1-0.1-0.2-0.2-0.3-0.3
				l-0.7,0.8c0.2,0.2,0.3,0.3,0.5,0.4c0.2,0.1,0.3,0.2,0.5,0.2c0.2,0.1,0.4,0.1,0.5,0.1c0.2,0,0.4,0,0.6-0.1c0.1,0,0.2,0,0.3-0.1
				c0.1,0,0.2-0.1,0.3-0.1c0.1-0.1,0.2-0.1,0.3-0.2c0.2-0.1,0.3-0.3,0.3-0.4c0.1-0.2,0.1-0.3,0.2-0.4c0-0.1,0-0.3,0-0.4
				c0-0.1,0-0.2,0-0.3c0-0.1,0-0.2-0.1-0.3c-0.1-0.1-0.1-0.2-0.2-0.3c0-0.1-0.1-0.1-0.1-0.2c0,0-0.1-0.1-0.1-0.1
				c-0.1-0.1-0.2-0.2-0.3-0.2c-0.1-0.1-0.2-0.1-0.3-0.1c-0.1,0-0.2-0.1-0.4-0.1l-0.7-0.1c-0.1,0-0.2,0-0.2,0c-0.1,0-0.2-0.1-0.3-0.1
				c-0.1,0-0.1-0.1-0.2-0.1c-0.1,0-0.1-0.1-0.1-0.2c0,0,0,0,0-0.1c0,0,0-0.1,0-0.1c0-0.1,0-0.1,0.1-0.2c0-0.1,0.1-0.1,0.1-0.1
				c0.1,0,0.2-0.1,0.3-0.1c0.1,0,0.3,0,0.4,0c0.1,0,0.2,0.1,0.4,0.2c0.1,0.1,0.2,0.1,0.3,0.2L96.2,108.9z M89.1,113
				c0,0.1,0,0.2,0.1,0.3c0,0.1,0.1,0.2,0.1,0.4c0,0.1,0.1,0.2,0.2,0.3c0.1,0.2,0.2,0.3,0.3,0.4c0.1,0.1,0.2,0.2,0.4,0.2
				c0.2,0,0.3,0.1,0.4,0.1c0.1,0,0.3,0,0.4,0c0.1,0,0.2,0,0.3-0.1c0.1,0,0.2,0,0.3-0.1c0.1,0,0.2-0.1,0.4-0.2
				c0.1-0.1,0.2-0.2,0.3-0.3c0.1-0.1,0.2-0.2,0.3-0.4c0.1-0.1,0.1-0.3,0.1-0.5c0-0.2,0-0.4,0-0.6c0-0.2-0.1-0.4-0.1-0.6l-0.3-1.2
				c-0.1-0.3-0.2-0.5-0.2-0.7c-0.1-0.2-0.2-0.3-0.3-0.5c-0.1-0.1-0.2-0.2-0.3-0.3c-0.2-0.1-0.3-0.2-0.5-0.2c-0.2,0-0.3,0-0.5,0
				c-0.2,0-0.3,0-0.5,0.1c-0.1,0-0.3,0.1-0.5,0.2c-0.1,0.1-0.3,0.2-0.4,0.3c-0.1,0.1-0.2,0.2-0.3,0.4c-0.1,0.2-0.1,0.3-0.1,0.5
				c0,0.2,0,0.3,0,0.5c0,0.2,0,0.3,0.1,0.5L89.1,113z M89.8,111.2c0,0,0-0.1,0-0.2c0-0.1,0-0.1,0-0.2c0-0.1,0-0.2,0-0.2
				c0-0.1,0.1-0.1,0.1-0.2c0.1-0.1,0.2-0.1,0.3-0.1c0.1,0,0.3,0,0.4,0c0.1,0,0.2,0.1,0.2,0.1c0.1,0.1,0.1,0.1,0.1,0.2
				c0,0.1,0.1,0.2,0.1,0.3l0.5,1.8c0,0.1,0,0.1,0.1,0.2c0,0.1,0,0.2,0,0.3c0,0.1,0,0.2,0,0.2c0,0.1-0.1,0.2-0.1,0.2
				c-0.1,0.1-0.2,0.1-0.3,0.1c-0.2,0-0.3,0-0.4,0c-0.1,0-0.2-0.2-0.3-0.3c-0.1-0.1-0.1-0.3-0.2-0.5L89.8,111.2z M85.7,114.4
				c0,0,0,0.1,0,0.1c0,0,0,0.1,0,0.1c0,0.1,0.1,0.2,0.1,0.3c0,0.1,0.1,0.2,0.2,0.3c0.1,0.1,0.2,0.2,0.3,0.3c0.1,0.1,0.2,0.1,0.4,0.2
				c0.1,0,0.2,0,0.3,0c0.1,0,0.2,0,0.3,0c0.1,0,0.2-0.1,0.3-0.1c0.1-0.1,0.3-0.1,0.4-0.2c0.1-0.1,0.2-0.1,0.3-0.2
				c0.1-0.1,0.2-0.2,0.2-0.3c0-0.1,0.1-0.2,0.1-0.3c0-0.1,0-0.2,0-0.3c0-0.1,0-0.2,0-0.2c0-0.1,0-0.1,0-0.1l-1.3-3.9l-1.1,0.4
				l1.3,3.9c0,0.1,0,0.2,0,0.2c0,0.1,0,0.1-0.1,0.2c0,0.1-0.1,0.1-0.2,0.1c-0.1,0-0.2,0-0.2,0c-0.1,0-0.1-0.1-0.2-0.1
				c0-0.1-0.1-0.1-0.1-0.3c0-0.1-0.1-0.2-0.1-0.3L85.7,114.4z M80.5,116.1c0,0.1,0.1,0.2,0.1,0.3c0,0.1,0.1,0.2,0.2,0.3
				c0,0.1,0.1,0.2,0.2,0.3c0.1,0.1,0.2,0.3,0.4,0.3c0.1,0.1,0.3,0.1,0.4,0.2c0.2,0,0.3,0,0.4,0c0.2,0,0.3,0,0.4-0.1
				c0.1,0,0.2-0.1,0.3-0.1c0.1,0,0.2-0.1,0.3-0.1c0.1-0.1,0.2-0.1,0.3-0.2c0.1-0.1,0.2-0.2,0.3-0.3c0.1-0.1,0.2-0.3,0.2-0.4
				c0-0.2,0.1-0.3,0.1-0.5c0-0.2,0-0.3-0.1-0.5c-0.1-0.2-0.1-0.4-0.2-0.6l-0.5-1.2c-0.1-0.3-0.2-0.5-0.3-0.7
				c-0.1-0.2-0.2-0.3-0.4-0.4c-0.1-0.1-0.2-0.2-0.4-0.2c-0.1-0.1-0.3-0.1-0.5-0.1c-0.2,0-0.3,0-0.5,0c-0.2,0-0.3,0.1-0.5,0.2
				c-0.2,0.1-0.3,0.1-0.4,0.2c-0.1,0.1-0.3,0.2-0.4,0.3c-0.1,0.1-0.2,0.3-0.2,0.4c-0.1,0.2-0.1,0.3-0.1,0.5c0,0.2,0,0.3,0.1,0.5
				c0,0.2,0.1,0.3,0.2,0.5L80.5,116.1z M81,114.2c0,0,0-0.1-0.1-0.2c0-0.1,0-0.1-0.1-0.2c0-0.1,0-0.2,0-0.2c0-0.1,0.1-0.2,0.1-0.2
				c0.1-0.1,0.1-0.1,0.3-0.2c0.1-0.1,0.3-0.1,0.3-0.1c0.1,0,0.2,0,0.2,0.1c0.1,0.1,0.1,0.1,0.2,0.2c0,0.1,0.1,0.2,0.1,0.3l0.7,1.7
				c0,0.1,0.1,0.1,0.1,0.2c0,0.1,0.1,0.2,0.1,0.2c0,0.1,0,0.2,0,0.3c0,0.1-0.1,0.2-0.1,0.2c-0.1,0.1-0.1,0.1-0.3,0.2
				c-0.2,0.1-0.3,0.1-0.4,0c-0.1,0-0.2-0.1-0.3-0.2c-0.1-0.1-0.2-0.2-0.2-0.4L81,114.2z M76,113.1c-0.1,0-0.1,0-0.2,0
				c-0.1,0-0.1,0-0.1,0.1c-0.1,0-0.2,0.1-0.2,0.1c-0.1,0.1-0.1,0.1-0.1,0.2c-0.1,0.1-0.1,0.2-0.1,0.3c0,0.1,0,0.3,0.1,0.5l0.4-0.2
				c0,0,0,0,0-0.1c0,0,0-0.1,0-0.1c0,0,0-0.1,0-0.1c0,0,0.1-0.1,0.1-0.1c0,0,0.1,0,0.1,0c0,0,0.1,0,0.1,0l0.3-0.1c0.1,0,0.2,0,0.2,0
				c0.1,0,0.1,0,0.1,0c0,0,0.1,0,0.1,0c0,0,0.1,0,0.1,0c0.1,0,0.2-0.1,0.2-0.2c0.1-0.1,0.1-0.2,0.1-0.2c0-0.1,0-0.2,0-0.3
				c0-0.1,0-0.2,0-0.2c0-0.1,0-0.1,0-0.2l-0.4,0.2c0,0,0,0,0,0.1c0,0,0,0.1,0,0.1c0,0,0,0.1,0,0.1c0,0-0.1,0.1-0.1,0.1
				c0,0-0.1,0-0.1,0c-0.1,0-0.1,0-0.2,0L76,113.1z M76.1,114.6l1.1,5.4l1-0.5l-0.2-1.1l1.5-0.8l0.7,0.8l1-0.5l-3.8-4L76.1,114.6z
				 M78.7,117l-1,0.5l-0.6-2.4l0,0L78.7,117z M74.8,116.1c-0.2-0.1-0.5-0.2-0.7-0.2c-0.2,0-0.4,0-0.7,0c-0.2,0.1-0.4,0.1-0.7,0.3
				c-0.2,0.1-0.4,0.3-0.6,0.5c-0.2,0.2-0.3,0.4-0.3,0.5c-0.1,0.2-0.1,0.4,0,0.6c0,0.2,0.1,0.4,0.2,0.6c0.1,0.2,0.3,0.4,0.4,0.5
				c0.2,0.1,0.3,0.2,0.5,0.3c0.2,0,0.4,0.1,0.6,0c0.2,0,0.4,0,0.6-0.1c0.2,0,0.4-0.1,0.5-0.1c0.1,0,0.3,0,0.4,0c0.1,0,0.2,0,0.2,0.1
				c0.1,0,0.1,0.1,0.2,0.2c0.1,0.1,0.1,0.2,0.1,0.3c0,0.1,0,0.2-0.1,0.3c0,0.1-0.1,0.1-0.1,0.2c-0.1,0-0.1,0.1-0.2,0.1
				c-0.1,0.1-0.3,0.1-0.4,0.1c-0.1,0-0.3,0-0.4,0c-0.1,0-0.3-0.1-0.4-0.2l-0.5,1c0.2,0.1,0.4,0.2,0.6,0.3c0.2,0.1,0.4,0.1,0.5,0.1
				c0.2,0,0.4,0,0.5-0.1c0.2-0.1,0.4-0.1,0.6-0.3c0.1,0,0.2-0.1,0.2-0.2c0.1-0.1,0.2-0.2,0.3-0.2c0.1-0.1,0.2-0.2,0.2-0.3
				c0.1-0.2,0.2-0.4,0.2-0.6c0-0.2,0-0.3,0-0.4c0-0.1,0-0.3-0.1-0.4c-0.1-0.1-0.1-0.2-0.1-0.2c-0.1-0.1-0.1-0.2-0.2-0.3
				c-0.1-0.1-0.1-0.1-0.2-0.2c-0.1-0.1-0.1-0.1-0.2-0.1c-0.1,0-0.1-0.1-0.1-0.1c-0.1,0-0.2-0.1-0.4-0.1c-0.1,0-0.2,0-0.4,0
				c-0.1,0-0.2,0-0.4,0l-0.7,0.1c-0.1,0-0.2,0-0.3,0c-0.1,0-0.2,0-0.2,0c-0.1,0-0.2,0-0.2-0.1c-0.1,0-0.1-0.1-0.2-0.2c0,0,0,0,0,0
				c0,0,0-0.1,0-0.1c0-0.1,0-0.1,0-0.2c0-0.1,0-0.1,0.1-0.2c0-0.1,0.1-0.1,0.2-0.2c0.1-0.1,0.2-0.1,0.4-0.1c0.1,0,0.3,0,0.4,0
				c0.1,0,0.2,0.1,0.3,0.1L74.8,116.1z"/>
		</g>
	</g>
	<g>
		<path class="st2" d="M36.4,181.8v-16.6h5.4c1.7,0,2.8,0.4,3.6,1.1c0.7,0.7,1.1,1.9,1.1,3.6c0,1.6-0.4,2.9-1.2,3.7
			c-0.8,0.8-2,1.2-3.5,1.2h-2.3v7.1H36.4z M39.4,172.5h1.3c1,0,1.7-0.2,2-0.6c0.4-0.4,0.6-1,0.6-1.9c0-0.9-0.2-1.6-0.5-1.9
			c-0.4-0.4-1-0.5-2-0.5h-1.3V172.5z"/>
		<path class="st2" d="M48.7,181.8v-16.6h5.6c1.7,0,2.9,0.3,3.6,1c0.7,0.7,1.1,1.8,1.1,3.3c0,1.1-0.2,1.9-0.6,2.6s-1,1-1.8,1.1
			c1.5,0.4,2.2,1.6,2.3,3.7c0,0.1,0,0.2,0,0.2l0.1,2.2c0,0.6,0.1,1.1,0.2,1.5c0.1,0.4,0.3,0.7,0.6,1h-3.7c-0.1-0.3-0.2-0.6-0.2-1
			c0-0.4-0.1-0.9-0.1-1.6l0-1.7V177c0-1-0.2-1.6-0.6-2s-1.3-0.5-2.5-0.5h-1.1v7.3H48.7z M51.7,172.2h1.8c0.9,0,1.5-0.2,1.9-0.5
			s0.5-1,0.5-1.9c0-0.8-0.2-1.4-0.6-1.7c-0.4-0.3-1.1-0.5-2.1-0.5h-1.5V172.2z"/>
		<path class="st2" d="M61.7,181.8v-16.6h8.6v2.8h-5.5v3.8h5.1v2.6h-5.1v4.6h5.6v2.8H61.7z"/>
		<path class="st2" d="M72.9,181.8v-16.6h8.7v2.7H76v3.9h5.3v2.7H76v7.3H72.9z"/>
		<path class="st2" d="M83.9,181.8v-16.6h8.6v2.8H87v3.8h5.1v2.6H87v4.6h5.6v2.8H83.9z"/>
		<path class="st2" d="M95.1,181.8v-16.6h3.1v16.6H95.1z"/>
		<path class="st2" d="M103.6,181.8v-13.9H100v-2.7h10.3v2.7h-3.6v13.9H103.6z"/>
		<path class="st2" d="M112.1,165.2h3.1v11.2c0,1.3,0.2,2.2,0.5,2.6c0.3,0.5,0.9,0.7,1.7,0.7c0.8,0,1.3-0.2,1.7-0.7
			c0.3-0.5,0.5-1.3,0.5-2.6v-11.2h3.1v11.5c0,1.1-0.1,1.9-0.2,2.4c-0.1,0.5-0.3,1-0.6,1.4c-0.4,0.6-1,1-1.8,1.3
			c-0.7,0.3-1.6,0.4-2.6,0.4c-1.9,0-3.3-0.4-4-1.2s-1.2-2.3-1.2-4.3V165.2z"/>
		<path class="st2" d="M125.5,181.8v-16.6h5.6c1.7,0,2.9,0.3,3.6,1c0.7,0.7,1.1,1.8,1.1,3.3c0,1.1-0.2,1.9-0.6,2.6s-1,1-1.8,1.1
			c1.5,0.4,2.2,1.6,2.3,3.7c0,0.1,0,0.2,0,0.2l0.1,2.2c0,0.6,0.1,1.1,0.2,1.5c0.1,0.4,0.3,0.7,0.6,1H133c-0.1-0.3-0.2-0.6-0.2-1
			c0-0.4-0.1-0.9-0.1-1.6l0-1.7V177c0-1-0.2-1.6-0.6-2c-0.4-0.4-1.3-0.5-2.5-0.5h-1.1v7.3H125.5z M128.5,172.2h1.8
			c0.9,0,1.5-0.2,1.9-0.5s0.5-1,0.5-1.9c0-0.8-0.2-1.4-0.6-1.7s-1.1-0.5-2.1-0.5h-1.5V172.2z"/>
		<path class="st2" d="M137.3,181.8l3.8-16.6h4.2l3.8,16.6h-3.4l-0.8-4.2h-3.6l-0.8,4.2H137.3z M141.8,175.1h2.7l-1.3-7L141.8,175.1
			z"/>
		<path class="st2" d="M156.5,181.8v-16.6h5c1,0,1.8,0.1,2.4,0.3c0.6,0.2,1.1,0.5,1.5,0.8c0.6,0.6,1,1.3,1.2,2.2
			c0.2,0.9,0.4,2.2,0.4,4c0,2.4-0.1,4-0.2,5c-0.2,1-0.4,1.8-0.8,2.5c-0.4,0.7-0.9,1.2-1.6,1.4s-1.9,0.4-3.6,0.4H156.5z M159.6,179.4
			h1.4c0.7,0,1.2-0.1,1.5-0.2c0.3-0.1,0.5-0.3,0.7-0.5c0.3-0.4,0.5-1,0.6-1.8c0.1-0.8,0.2-2,0.2-3.6c0-1.6-0.1-2.8-0.2-3.5
			s-0.4-1.3-0.7-1.7c-0.2-0.2-0.4-0.3-0.7-0.4c-0.3-0.1-0.7-0.1-1.3-0.1h-1.3V179.4z"/>
		<path class="st2" d="M169.8,181.8v-16.6h8.6v2.8h-5.5v3.8h5.1v2.6h-5.1v4.6h5.6v2.8H169.8z"/>
		<path class="st2" d="M0,202.5h3.1v1.1c0,1,0.1,1.7,0.4,2.1c0.3,0.4,0.7,0.6,1.3,0.6c0.7,0,1.2-0.2,1.5-0.5
			c0.3-0.3,0.5-0.8,0.5-1.5c0-0.5-0.1-0.9-0.4-1.3c-0.2-0.4-0.8-0.8-1.6-1.4l-1.6-1.1c-1.4-1-2.3-1.7-2.6-2.4
			c-0.4-0.6-0.6-1.4-0.6-2.3c0-1.4,0.4-2.5,1.2-3.3c0.8-0.8,2-1.2,3.4-1.2c1.6,0,2.7,0.4,3.6,1.3c0.8,0.8,1.2,2.1,1.2,3.6
			c0,0.2,0,0.3,0,0.4c0,0.1,0,0.2,0,0.2h-3v-0.4c0-0.9-0.1-1.5-0.4-1.9c-0.3-0.4-0.8-0.6-1.5-0.6c-0.5,0-0.9,0.1-1.2,0.4
			c-0.3,0.3-0.4,0.7-0.4,1.2c0,0.7,0.6,1.5,1.9,2.3c0,0,0,0,0,0l1.7,1.2c1.2,0.8,2.1,1.6,2.5,2.3s0.7,1.6,0.7,2.7
			c0,1.5-0.4,2.7-1.3,3.5s-2.1,1.2-3.7,1.2c-1.7,0-2.9-0.4-3.8-1.3c-0.8-0.9-1.2-2.2-1.2-4C0,203.3,0,203,0,202.5L0,202.5z"/>
		<path class="st2" d="M11.5,208.4l3.8-16.6h4.2l3.8,16.6h-3.4l-0.8-4.2h-3.6l-0.8,4.2H11.5z M15.3,190.2h-1
			c0.1-0.8,0.4-1.5,0.7-1.9c0.3-0.4,0.7-0.6,1.2-0.6c0.1,0,0.2,0,0.3,0s0.2,0,0.3,0.1l1.2,0.4c0.1,0,0.2,0,0.2,0s0.2,0,0.3,0
			c0.2,0,0.4-0.1,0.5-0.2s0.2-0.3,0.3-0.6h1c-0.1,0.8-0.4,1.4-0.7,1.9c-0.4,0.5-0.8,0.7-1.3,0.7c-0.1,0-0.2,0-0.3,0s-0.2,0-0.3-0.1
			l-1.3-0.4c-0.1,0-0.1,0-0.2,0s-0.1,0-0.2,0c-0.2,0-0.4,0.1-0.6,0.2C15.4,189.8,15.3,190,15.3,190.2z M16,201.7h2.7l-1.3-7
			L16,201.7z"/>
		<path class="st2" d="M24.7,200.1c0-1.8,0.1-3.2,0.2-4.2c0.2-1.1,0.4-1.8,0.8-2.4c0.5-0.8,1.1-1.3,1.7-1.6c0.7-0.3,1.6-0.5,2.7-0.5
			c1.1,0,2,0.2,2.7,0.5c0.7,0.3,1.3,0.9,1.7,1.6c0.4,0.5,0.6,1.3,0.8,2.4c0.2,1.1,0.2,2.5,0.2,4.2c0,1.8-0.1,3.2-0.2,4.2
			s-0.4,1.9-0.8,2.4c-0.5,0.8-1.1,1.3-1.7,1.6c-0.7,0.3-1.6,0.5-2.7,0.5c-1.1,0-2-0.2-2.7-0.5c-0.7-0.3-1.3-0.9-1.7-1.6
			c-0.4-0.5-0.6-1.3-0.8-2.4C24.8,203.2,24.7,201.8,24.7,200.1z M27.9,200.1c0,2.7,0.2,4.5,0.5,5.2c0.3,0.7,0.9,1.1,1.8,1.1
			c0.9,0,1.4-0.3,1.8-1s0.5-2.4,0.5-5.2c0-2.8-0.2-4.5-0.5-5.2s-0.9-1.1-1.8-1.1c-0.9,0-1.4,0.4-1.8,1.1S27.9,197.3,27.9,200.1z"/>
		<path class="st2" d="M42.8,203.1h2.8v2c0,0.4,0.1,0.8,0.3,1c0.2,0.2,0.5,0.3,0.8,0.3c0.4,0,0.7-0.1,0.8-0.4
			c0.1-0.2,0.2-0.8,0.2-1.7v-0.8v-11.8h3.1v11.7c0,1.2,0,1.9-0.1,2.4c0,0.4-0.1,0.8-0.2,1c-0.3,0.7-0.8,1.2-1.4,1.5
			c-0.6,0.3-1.4,0.5-2.4,0.5c-1.3,0-2.3-0.3-2.9-1c-0.7-0.7-1-1.7-1-3V203.1z"/>
		<path class="st2" d="M53.6,200.1c0-1.8,0.1-3.2,0.2-4.2c0.2-1.1,0.4-1.8,0.8-2.4c0.5-0.8,1.1-1.3,1.7-1.6c0.7-0.3,1.6-0.5,2.7-0.5
			c1.1,0,2,0.2,2.7,0.5c0.7,0.3,1.3,0.9,1.7,1.6c0.4,0.5,0.6,1.3,0.8,2.4c0.2,1.1,0.2,2.5,0.2,4.2c0,1.8-0.1,3.2-0.2,4.2
			s-0.4,1.9-0.8,2.4c-0.5,0.8-1.1,1.3-1.7,1.6c-0.7,0.3-1.6,0.5-2.7,0.5c-1.1,0-2-0.2-2.7-0.5c-0.7-0.3-1.3-0.9-1.7-1.6
			c-0.4-0.5-0.6-1.3-0.8-2.4C53.7,203.2,53.6,201.8,53.6,200.1z M56.8,200.1c0,2.7,0.2,4.5,0.5,5.2c0.3,0.7,0.9,1.1,1.8,1.1
			c0.9,0,1.4-0.3,1.8-1s0.5-2.4,0.5-5.2c0-2.8-0.2-4.5-0.5-5.2s-0.9-1.1-1.8-1.1c-0.9,0-1.4,0.4-1.8,1.1S56.8,197.3,56.8,200.1z"/>
		<path class="st2" d="M66.8,202.5H70v1.1c0,1,0.1,1.7,0.4,2.1c0.3,0.4,0.7,0.6,1.3,0.6c0.7,0,1.2-0.2,1.5-0.5
			c0.3-0.3,0.5-0.8,0.5-1.5c0-0.5-0.1-0.9-0.4-1.3c-0.2-0.4-0.8-0.8-1.6-1.4l-1.6-1.1c-1.4-1-2.3-1.7-2.6-2.4
			c-0.4-0.6-0.6-1.4-0.6-2.3c0-1.4,0.4-2.5,1.2-3.3s2-1.2,3.4-1.2c1.6,0,2.7,0.4,3.6,1.3c0.8,0.8,1.2,2.1,1.2,3.6c0,0.2,0,0.3,0,0.4
			c0,0.1,0,0.2,0,0.2h-3v-0.4c0-0.9-0.1-1.5-0.4-1.9c-0.3-0.4-0.8-0.6-1.5-0.6c-0.5,0-0.9,0.1-1.2,0.4c-0.3,0.3-0.4,0.7-0.4,1.2
			c0,0.7,0.6,1.5,1.9,2.3c0,0,0,0,0,0l1.7,1.2c1.2,0.8,2.1,1.6,2.5,2.3s0.7,1.6,0.7,2.7c0,1.5-0.4,2.7-1.3,3.5s-2.1,1.2-3.7,1.2
			c-1.7,0-2.9-0.4-3.8-1.3c-0.8-0.9-1.2-2.2-1.2-4C66.8,203.3,66.8,203,66.8,202.5L66.8,202.5z"/>
		<path class="st2" d="M79.5,208.4v-16.6h8.6v2.8h-5.5v3.8h5.1v2.6h-5.1v4.6h5.6v2.8H79.5z M82.2,190.3l1.9-3.1h2.8l-3.3,3.1H82.2z"
			/>
		<path class="st2" d="M96.4,208.4v-16.6h5c1,0,1.8,0.1,2.4,0.3c0.6,0.2,1.1,0.5,1.5,0.8c0.6,0.6,1,1.3,1.2,2.2
			c0.2,0.9,0.4,2.2,0.4,4c0,2.4-0.1,4-0.2,5s-0.4,1.8-0.8,2.5c-0.4,0.7-0.9,1.2-1.6,1.4s-1.9,0.4-3.6,0.4H96.4z M99.4,205.9h1.4
			c0.7,0,1.2-0.1,1.5-0.2c0.3-0.1,0.5-0.3,0.7-0.5c0.3-0.4,0.5-1,0.6-1.8s0.2-2,0.2-3.6c0-1.6-0.1-2.8-0.2-3.5s-0.4-1.3-0.7-1.7
			c-0.2-0.2-0.4-0.3-0.7-0.4c-0.3-0.1-0.7-0.1-1.3-0.1h-1.3V205.9z"/>
		<path class="st2" d="M109.3,200.1c0-1.8,0.1-3.2,0.2-4.2c0.2-1.1,0.4-1.8,0.8-2.4c0.5-0.8,1.1-1.3,1.7-1.6s1.6-0.5,2.7-0.5
			c1.1,0,2,0.2,2.7,0.5s1.3,0.9,1.7,1.6c0.4,0.5,0.6,1.3,0.8,2.4s0.2,2.5,0.2,4.2c0,1.8-0.1,3.2-0.2,4.2c-0.2,1.1-0.4,1.9-0.8,2.4
			c-0.5,0.8-1.1,1.3-1.7,1.6s-1.6,0.5-2.7,0.5c-1.1,0-2-0.2-2.7-0.5s-1.3-0.9-1.7-1.6c-0.4-0.5-0.6-1.3-0.8-2.4
			C109.4,203.2,109.3,201.8,109.3,200.1z M112.5,200.1c0,2.7,0.2,4.5,0.5,5.2c0.3,0.7,0.9,1.1,1.8,1.1c0.9,0,1.4-0.3,1.8-1
			s0.5-2.4,0.5-5.2c0-2.8-0.2-4.5-0.5-5.2c-0.3-0.7-0.9-1.1-1.8-1.1c-0.9,0-1.4,0.4-1.8,1.1C112.6,195.6,112.5,197.3,112.5,200.1z"
			/>
		<path class="st2" d="M122.5,202.5h3.1v1.1c0,1,0.1,1.7,0.4,2.1s0.7,0.6,1.3,0.6c0.7,0,1.2-0.2,1.5-0.5c0.3-0.3,0.5-0.8,0.5-1.5
			c0-0.5-0.1-0.9-0.4-1.3c-0.2-0.4-0.8-0.8-1.6-1.4l-1.6-1.1c-1.4-1-2.3-1.7-2.6-2.4c-0.4-0.6-0.6-1.4-0.6-2.3
			c0-1.4,0.4-2.5,1.2-3.3s2-1.2,3.4-1.2c1.5,0,2.7,0.4,3.6,1.3c0.8,0.8,1.2,2.1,1.2,3.6c0,0.2,0,0.3,0,0.4c0,0.1,0,0.2,0,0.2h-3
			v-0.4c0-0.9-0.1-1.5-0.4-1.9c-0.3-0.4-0.8-0.6-1.5-0.6c-0.5,0-0.9,0.1-1.2,0.4s-0.4,0.7-0.4,1.2c0,0.7,0.6,1.5,1.9,2.3
			c0,0,0,0,0,0l1.7,1.2c1.2,0.8,2.1,1.6,2.5,2.3s0.7,1.6,0.7,2.7c0,1.5-0.4,2.7-1.3,3.5s-2.1,1.2-3.7,1.2c-1.7,0-2.9-0.4-3.8-1.3
			c-0.8-0.9-1.2-2.2-1.2-4C122.5,203.3,122.5,203,122.5,202.5L122.5,202.5z"/>
		<path class="st2" d="M140.9,208.4v-16.6h5.4c1.7,0,2.8,0.4,3.6,1.1s1.1,1.9,1.1,3.6c0,1.6-0.4,2.9-1.2,3.7c-0.8,0.8-2,1.2-3.5,1.2
			H144v7.1H140.9z M143.9,199h1.3c1,0,1.7-0.2,2-0.6c0.4-0.4,0.6-1,0.6-1.9c0-0.9-0.2-1.6-0.5-1.9c-0.4-0.4-1-0.5-2-0.5h-1.3V199z"
			/>
		<path class="st2" d="M153.2,208.4v-16.6h3.1v16.6H153.2z"/>
		<path class="st2" d="M159.3,208.4v-16.6h3.2l4.4,11.6l-0.1-11.6h2.9v16.6h-3.2l-4.4-11.7l0.1,11.7H159.3z"/>
		<path class="st2" d="M172.7,208.4v-16.6h3.1v6.5h4.3v-6.5h3.1v16.6h-3.1v-7.5h-4.3v7.5H172.7z"/>
		<path class="st2" d="M185,208.4l3.8-16.6h4.2l3.8,16.6h-3.4l-0.8-4.2H189l-0.8,4.2H185z M189.5,201.7h2.7l-1.3-7L189.5,201.7z"/>
		<path class="st2" d="M198.5,208.4v-16.6h3.1v16.6H198.5z"/>
		<path class="st2" d="M204.3,202.5h3.1v1.1c0,1,0.1,1.7,0.4,2.1s0.7,0.6,1.3,0.6c0.7,0,1.2-0.2,1.5-0.5c0.3-0.3,0.5-0.8,0.5-1.5
			c0-0.5-0.1-0.9-0.4-1.3c-0.2-0.4-0.8-0.8-1.6-1.4l-1.6-1.1c-1.4-1-2.3-1.7-2.6-2.4c-0.4-0.6-0.6-1.4-0.6-2.3
			c0-1.4,0.4-2.5,1.2-3.3s2-1.2,3.4-1.2c1.5,0,2.7,0.4,3.6,1.3c0.8,0.8,1.2,2.1,1.2,3.6c0,0.2,0,0.3,0,0.4c0,0.1,0,0.2,0,0.2h-3
			v-0.4c0-0.9-0.1-1.5-0.4-1.9c-0.3-0.4-0.8-0.6-1.5-0.6c-0.5,0-0.9,0.1-1.2,0.4s-0.4,0.7-0.4,1.2c0,0.7,0.6,1.5,1.9,2.3
			c0,0,0,0,0,0l1.7,1.2c1.2,0.8,2.1,1.6,2.5,2.3s0.7,1.6,0.7,2.7c0,1.5-0.4,2.7-1.3,3.5s-2.1,1.2-3.7,1.2c-1.7,0-2.9-0.4-3.8-1.3
			c-0.8-0.9-1.2-2.2-1.2-4C204.3,203.3,204.3,203,204.3,202.5L204.3,202.5z"/>
	</g>
</g>
</svg>
